<svg id="Layer_1" data-name="Layer 1" xmlns="http://www.w3.org/2000/svg" viewBox="0 0 50 50"><defs><style>.cls-1{fill:#fff;}</style></defs><title>leidobem</title><path class="cls-1" d="M45.45,40A4.29,4.29,0,0,1,43,39.21l-0.06.06-0.67-.7L27.18,22.12c-0.56.5-1.13,1-1.7,1.42a3.39,3.39,0,0,1-.58,4,3.46,3.46,0,0,1-4.78,0l-9.24-9.24a3.39,3.39,0,0,1,0-4.78,3.46,3.46,0,0,1,4-.58,33.18,33.18,0,0,1,2.79-3.17,32.53,32.53,0,0,1,5.27-4.29,3.39,3.39,0,0,1,.35-4.37,3.47,3.47,0,0,1,4.79,0l9.24,9.24a3.39,3.39,0,0,1,0,4.79,3.46,3.46,0,0,1-4.37.35q-0.57.88-1.23,1.76l17.37,15.9L49,33.22A4.32,4.32,0,0,1,45.45,40h0ZM43,36.56l0.77,0.84a2.48,2.48,0,0,0,3.38,0,2.41,2.41,0,0,0,0-3.4L47,33.88l-0.73-.68h0L29.1,17.45l0.56-.7a27,27,0,0,0,2.25-3.25l0.63-1.07,1.34,1.34a1.51,1.51,0,0,0,2.08,0,1.47,1.47,0,0,0,0-2.08L26.72,2.45a1.51,1.51,0,0,0-2.08,0,1.48,1.48,0,0,0,0,2.08L26,5.87l-1.07.63A29.53,29.53,0,0,0,19,11.11a31.2,31.2,0,0,0-3.18,3.72l-0.66.91-0.88-.88a1.51,1.51,0,0,0-2.08,0,1.47,1.47,0,0,0,0,2.08l9.24,9.24a1.5,1.5,0,0,0,2.08,0,1.47,1.47,0,0,0,0-2.08l-0.88-.88,0.91-.66a30.86,30.86,0,0,0,3-2.5l0.71-.66L43,36.56h0ZM28.28,49.86H0.23v-1A5.11,5.11,0,0,1,5,43.81a3.72,3.72,0,0,1,3.38-2.2H20.1a3.72,3.72,0,0,1,3.38,2.2,5.11,5.11,0,0,1,4.8,5.09v1h0Zm-26-1.91H26.22a3.19,3.19,0,0,0-3-2.23H22L21.85,45a1.79,1.79,0,0,0-1.75-1.42H8.41A1.79,1.79,0,0,0,6.66,45l-0.16.76H5.33a3.2,3.2,0,0,0-3,2.23h0Zm0,0"/></svg>