<?xml version="1.0" encoding="utf-8"?>
<!-- Generator: Adobe Illustrator 19.2.0, SVG Export Plug-In . SVG Version: 6.00 Build 0)  -->
<svg version="1.1" id="Layer_1" xmlns="http://www.w3.org/2000/svg" xmlns:xlink="http://www.w3.org/1999/xlink" x="0px" y="0px"
	 viewBox="0 0 50 50" style="enable-background:new 0 0 50 50;" xml:space="preserve">
<style type="text/css">
	.st0{fill-rule:evenodd;clip-rule:evenodd;fill:#FFFFFF;}
</style>
<title>leidobem</title>
<g>
	<path class="st0" d="M20.6,43.2c-0.4,0-0.8-0.3-0.8-0.8c0-0.4,0.3-0.8,0.8-0.8h8.8c0.4,0,0.8,0.3,0.8,0.8c0,0.4-0.3,0.8-0.8,0.8
		H20.6z M20.6,43.2"/>
	<path class="st0" d="M21.6,46.2c-0.4,0-0.8-0.3-0.8-0.8c0-0.4,0.3-0.8,0.8-0.8h6.8c0.4,0,0.8,0.3,0.8,0.8c0,0.4-0.3,0.8-0.8,0.8
		H21.6z M21.6,46.2"/>
	<path class="st0" d="M24.3,35.8c0,0.4-0.3,0.8-0.8,0.8s-0.8-0.3-0.8-0.8c0-3.2-0.1-5.6-0.5-7.8c-0.4-2.2-1.2-4.2-2.6-6.7
		c-0.2-0.4-0.1-0.8,0.3-1c0.4-0.2,0.8-0.1,1,0.3c1.5,2.6,2.3,4.8,2.8,7.1C24.2,30,24.3,32.5,24.3,35.8L24.3,35.8z M24.3,35.8"/>
	<path class="st0" d="M27.2,35.8c0,0.4-0.3,0.8-0.8,0.8s-0.8-0.3-0.8-0.8c0-3.3,0.1-5.8,0.6-8.1c0.5-2.3,1.3-4.5,2.8-7.1
		c0.2-0.4,0.7-0.5,1-0.3c0.4,0.2,0.5,0.7,0.3,1c-1.4,2.5-2.2,4.5-2.6,6.7C27.3,30.2,27.2,32.6,27.2,35.8L27.2,35.8z M27.2,35.8"/>
	<path class="st0" d="M20.1,21.6c-0.4-0.1-0.6-0.6-0.5-1c0.1-0.4,0.6-0.6,0.9-0.5c0.5,0.2,1,0.4,1.4,0.6l0,0
		c0.7,0.3,1.2,0.6,1.6,0.3l0.9-0.8c0.3-0.3,0.8-0.2,1.1,0.1c0.3,0.3,0.2,0.8-0.1,1.1l-0.9,0.8c-1.2,0.9-2.1,0.5-3.2-0.1l0,0
		C20.9,22,20.5,21.8,20.1,21.6L20.1,21.6z M20.1,21.6"/>
	<path class="st0" d="M25.8,4.5c0,0.4-0.3,0.8-0.8,0.8c-0.4,0-0.8-0.3-0.8-0.8V1.5c0-0.4,0.3-0.8,0.8-0.8c0.4,0,0.8,0.3,0.8,0.8V4.5
		z M25.8,4.5"/>
	<path class="st0" d="M29.5,20.2c0.4-0.1,0.8,0.1,1,0.5c0.1,0.4-0.1,0.8-0.5,1c-0.4,0.1-0.8,0.3-1.2,0.5l0,0c-1.1,0.6-2.1,1-3.3,0.1
		l-0.9-0.8c-0.3-0.3-0.4-0.7-0.1-1.1c0.3-0.3,0.7-0.4,1.1-0.1l0.9,0.8c0.4,0.3,1,0.1,1.6-0.3l0,0C28.5,20.6,28.9,20.4,29.5,20.2
		L29.5,20.2z M29.5,20.2"/>
	<path class="st0" d="M34.5,12.5c2.4,2.4,3.9,5.8,3.9,9.5c0,1.5-0.2,2.9-0.7,4.2c-0.4,1.4-1.1,2.6-1.9,3.8c-1.4,1.9-2.5,3.2-3.4,4.1
		c-1.6,1.7-2.3,2.5-2.3,5.1c0,0.4-0.3,0.8-0.8,0.8h-8.9c-0.4,0-0.8-0.3-0.8-0.8c0-2.5-0.7-3.3-2.3-5c-0.9-1-2-2.2-3.5-4.2
		c-0.8-1.1-1.5-2.4-1.9-3.8c-0.4-1.3-0.7-2.7-0.7-4.2c0-1.8,0.4-3.6,1-5.2l0,0c0.7-1.6,1.7-3.1,2.9-4.3c1.2-1.2,2.7-2.2,4.4-2.9
		c1.6-0.7,3.3-1,5.2-1c1.8,0,3.6,0.4,5.2,1C31.8,10.3,33.3,11.3,34.5,12.5L34.5,12.5z M37,22.1c0-3.3-1.3-6.3-3.5-8.5
		c-1.1-1.1-2.4-2-3.9-2.6c-1.4-0.6-2.9-0.9-4.6-0.9c-1.6,0-3.2,0.3-4.6,0.9c-1.5,0.6-2.8,1.5-3.9,2.6c-1.1,1.1-2,2.4-2.6,3.8l0,0
		c-0.6,1.4-0.9,3-0.9,4.6c0,1.3,0.2,2.5,0.6,3.7c0.4,1.2,1,2.3,1.7,3.3c1.4,1.9,2.5,3.1,3.4,4v0c1.7,1.8,2.5,2.8,2.6,5.3h7.4
		c0.1-2.5,1-3.4,2.6-5.3c0.8-0.9,1.9-2.1,3.3-4c0.7-1,1.3-2.1,1.7-3.3C36.7,24.6,37,23.4,37,22.1L37,22.1z M37,22.1"/>
	<path class="st0" d="M22.6,49.2c-0.4,0-0.8-0.3-0.8-0.8c0-0.4,0.3-0.8,0.8-0.8h4.9c0.4,0,0.8,0.3,0.8,0.8c0,0.4-0.3,0.8-0.8,0.8
		H22.6z M22.6,49.2"/>
	<path class="st0" d="M34.3,7.2c-0.2,0.4-0.7,0.5-1,0.3c-0.4-0.2-0.5-0.7-0.3-1l1.5-2.5c0.2-0.4,0.7-0.5,1-0.3
		c0.4,0.2,0.5,0.7,0.3,1L34.3,7.2z M34.3,7.2"/>
	<path class="st0" d="M17,6.4c0.2,0.4,0.1,0.8-0.3,1c-0.4,0.2-0.8,0.1-1-0.3l-1.5-2.5c-0.2-0.4-0.1-0.8,0.3-1c0.4-0.2,0.8-0.1,1,0.3
		L17,6.4z M17,6.4"/>
	<path class="st0" d="M10.4,12.5c0.4,0.2,0.5,0.7,0.3,1c-0.2,0.4-0.7,0.5-1,0.3l-2.5-1.5c-0.4-0.2-0.5-0.7-0.3-1
		c0.2-0.4,0.7-0.5,1-0.3L10.4,12.5z M10.4,12.5"/>
	<path class="st0" d="M40.3,13.8c-0.4,0.2-0.8,0.1-1-0.3c-0.2-0.4-0.1-0.8,0.3-1l2.5-1.5c0.4-0.2,0.8-0.1,1,0.3
		c0.2,0.4,0.1,0.8-0.3,1L40.3,13.8z M40.3,13.8"/>
	<path class="st0" d="M17.1,25.1c0.2,0.4,0,0.8-0.4,1c-0.4,0.2-0.8,0-1-0.4c-0.3-0.6-0.5-1.2-0.6-1.9c-0.1-0.7-0.2-1.3-0.2-2
		c0-0.4,0.3-0.8,0.8-0.8c0.4,0,0.8,0.3,0.8,0.8c0,0.6,0.1,1.2,0.2,1.7C16.7,24,16.9,24.5,17.1,25.1L17.1,25.1z M17.1,18.4
		c-0.2,0.4-0.6,0.6-1,0.4c-0.4-0.2-0.6-0.6-0.4-1c0.3-0.6,0.6-1.2,0.9-1.7l0,0h0c0.4-0.5,0.8-1,1.2-1.5c0.4-0.4,0.9-0.9,1.5-1.2v0
		c0.5-0.3,1.1-0.7,1.7-0.9c0.6-0.3,1.2-0.5,1.9-0.6c0.7-0.1,1.3-0.2,2-0.2c0.4,0,0.8,0.3,0.8,0.8c0,0.4-0.3,0.8-0.8,0.8
		c-0.6,0-1.2,0.1-1.7,0.2c-0.6,0.1-1.1,0.3-1.6,0.5c-0.5,0.2-1,0.5-1.4,0.8c-0.4,0.3-0.9,0.7-1.3,1c-0.4,0.4-0.7,0.8-1,1.3
		C17.6,17.4,17.3,17.9,17.1,18.4L17.1,18.4z M17.1,18.4"/>
</g>
</svg>
