<?xml version="1.0" encoding="utf-8"?>
<!-- Generator: Adobe Illustrator 19.2.0, SVG Export Plug-In . SVG Version: 6.00 Build 0)  -->
<svg version="1.1" id="Layer_1" xmlns="http://www.w3.org/2000/svg" xmlns:xlink="http://www.w3.org/1999/xlink" x="0px" y="0px"
	 viewBox="0 0 50 50" style="enable-background:new 0 0 50 50;" xml:space="preserve">
<style type="text/css">
	.st0{fill:#FFFFFF;}
</style>
<g>
	<path class="st0" d="M25,42.7c2.1,0,3.8-1.7,3.8-3.8v-0.8c0-2.1-1.7-3.8-3.8-3.8c-2.1,0-3.8,1.7-3.8,3.8V39
		C21.2,41,22.9,42.7,25,42.7L25,42.7z M22.7,38.2c0-1.2,1-2.3,2.3-2.3c1.2,0,2.3,1,2.3,2.3V39c0,1.2-1,2.3-2.3,2.3
		c-1.2,0-2.3-1-2.3-2.3V38.2z M22.7,38.2"/>
	<path class="st0" d="M28,42.8h-0.6c-0.3,0-0.5,0.1-0.6,0.4c-0.4,0.7-1.1,1.1-1.7,1.1c-0.7,0-1.3-0.4-1.7-1.1
		c-0.1-0.2-0.4-0.4-0.6-0.4H22c-1.7,0-3,1.6-3,3v1.6c0,0.8,0.6,1.4,1.4,1.4h9.3c0.8,0,1.4-0.6,1.4-1.4v-1.6c0-0.7-0.3-1.4-0.8-2
		C29.6,43.1,28.8,42.8,28,42.8L28,42.8z M29.5,47.3h-9.1v-1.5c0-0.5,0.6-1.5,1.5-1.5h0.2c0.7,0.9,1.7,1.5,2.8,1.5
		c1.1,0,2.1-0.5,2.8-1.5H28c0.9,0,1.5,1,1.5,1.5V47.3z M29.5,47.3"/>
	<path class="st0" d="M25,9.5c2.1,0,3.8-1.7,3.8-3.8V5c0-2.1-1.7-3.8-3.8-3.8c-2.1,0-3.8,1.7-3.8,3.8v0.8C21.2,7.8,22.9,9.5,25,9.5
		L25,9.5z M22.7,5c0-1.2,1-2.3,2.3-2.3c1.2,0,2.3,1,2.3,2.3v0.8C27.3,7,26.2,8,25,8c-1.2,0-2.3-1-2.3-2.3V5z M22.7,5"/>
	<path class="st0" d="M28,9.6h-0.6c-0.3,0-0.5,0.1-0.6,0.4C26.3,10.6,25.7,11,25,11c-0.7,0-1.3-0.4-1.7-1.1
		c-0.1-0.2-0.4-0.4-0.6-0.4H22c-1.7,0-3,1.6-3,3v1.6c0,0.8,0.6,1.4,1.4,1.4h9.3c0.8,0,1.4-0.6,1.4-1.4v-1.6c0-0.7-0.3-1.4-0.8-2
		C29.6,9.9,28.8,9.6,28,9.6L28,9.6z M29.5,14.1h-9.1v-1.5c0-0.5,0.6-1.5,1.5-1.5h0.2c0.7,0.9,1.7,1.5,2.8,1.5c1.1,0,2.1-0.5,2.8-1.5
		H28c0.9,0,1.5,1,1.5,1.5V14.1z M29.5,14.1"/>
	<path class="st0" d="M39.3,21.6v0.8c0,2.1,1.7,3.8,3.8,3.8c2.1,0,3.8-1.7,3.8-3.8v-0.8c0-2.1-1.7-3.8-3.8-3.8
		C41,17.8,39.3,19.5,39.3,21.6L39.3,21.6z M40.8,21.6c0-1.2,1-2.3,2.3-2.3c1.2,0,2.3,1,2.3,2.3v0.8c0,1.2-1,2.3-2.3,2.3
		c-1.2,0-2.3-1-2.3-2.3V21.6z M40.8,21.6"/>
	<path class="st0" d="M48.3,27.2c-0.6-0.7-1.4-1-2.2-1h-0.6c-0.3,0-0.5,0.1-0.6,0.4c-0.4,0.7-1.1,1.1-1.7,1.1
		c-0.7,0-1.3-0.4-1.7-1.1c-0.1-0.2-0.4-0.4-0.6-0.4h-0.6c-1.7,0-3,1.6-3,3v1.6c0,0.8,0.6,1.4,1.4,1.4h9.3c0.8,0,1.4-0.6,1.4-1.4
		v-1.6C49.1,28.5,48.8,27.8,48.3,27.2L48.3,27.2z M47.6,30.7h-9.1v-1.5c0-0.5,0.6-1.5,1.5-1.5h0.2c0.7,0.9,1.7,1.5,2.8,1.5
		c1.1,0,2.1-0.5,2.8-1.5h0.2c0.9,0,1.5,1,1.5,1.5V30.7z M47.6,30.7"/>
	<path class="st0" d="M6.9,26.1c2.1,0,3.8-1.7,3.8-3.8v-0.8c0-2.1-1.7-3.8-3.8-3.8c-2.1,0-3.8,1.7-3.8,3.8v0.8
		C3.1,24.4,4.8,26.1,6.9,26.1L6.9,26.1z M4.6,21.6c0-1.2,1-2.3,2.3-2.3c1.2,0,2.3,1,2.3,2.3v0.8c0,1.2-1,2.3-2.3,2.3
		c-1.2,0-2.3-1-2.3-2.3V21.6z M4.6,21.6"/>
	<path class="st0" d="M12.9,30.8v-1.6c0-0.7-0.3-1.4-0.8-2c-0.6-0.7-1.4-1-2.2-1H9.3c-0.3,0-0.5,0.1-0.6,0.4
		c-0.4,0.7-1.1,1.1-1.7,1.1c-0.7,0-1.3-0.4-1.7-1.1c-0.1-0.2-0.4-0.4-0.6-0.4H3.9c-1.7,0-3,1.6-3,3v1.6c0,0.8,0.6,1.4,1.4,1.4h9.3
		C12.3,32.2,12.9,31.5,12.9,30.8L12.9,30.8z M11.4,30.7H2.4v-1.5c0-0.5,0.6-1.5,1.5-1.5h0.2c0.7,0.9,1.7,1.5,2.8,1.5
		c1.1,0,2.1-0.5,2.8-1.5h0.2c0.9,0,1.5,1,1.5,1.5L11.4,30.7L11.4,30.7z M11.4,30.7"/>
	<path class="st0" d="M17.9,42c-3.7-1.6-6.8-4.4-8.8-8c-0.2-0.4-0.7-0.5-1-0.3c-0.4,0.2-0.5,0.7-0.3,1c2.1,3.8,5.5,6.9,9.5,8.6
		c0.1,0,0.2,0.1,0.3,0.1c0.3,0,0.6-0.2,0.7-0.5C18.5,42.6,18.3,42.2,17.9,42L17.9,42z M17.9,42"/>
	<path class="st0" d="M41.9,33.8c-0.4-0.2-0.8-0.1-1,0.3c-1.9,3.6-5.1,6.4-8.8,8c-0.4,0.2-0.6,0.6-0.4,1c0.1,0.3,0.4,0.5,0.7,0.5
		c0.1,0,0.2,0,0.3-0.1c4-1.7,7.4-4.8,9.5-8.6C42.4,34.4,42.3,34,41.9,33.8L41.9,33.8z M41.9,33.8"/>
	<path class="st0" d="M30.8,8.2c4,1.4,7.5,4.1,9.7,7.7c0.1,0.2,0.4,0.4,0.6,0.4c0.1,0,0.3,0,0.4-0.1c0.4-0.2,0.5-0.7,0.3-1
		c-2.4-3.9-6.1-6.9-10.5-8.4c-0.4-0.1-0.8,0.1-1,0.5C30.2,7.7,30.4,8.1,30.8,8.2L30.8,8.2z M30.8,8.2"/>
	<path class="st0" d="M8.5,16.2c0.1,0.1,0.3,0.1,0.4,0.1c0.3,0,0.5-0.1,0.6-0.4c2.2-3.6,5.7-6.4,9.7-7.7c0.4-0.1,0.6-0.6,0.5-1
		c-0.1-0.4-0.6-0.6-1-0.5c-4.4,1.5-8.1,4.4-10.5,8.4C8,15.5,8.1,16,8.5,16.2L8.5,16.2z M8.5,16.2"/>
</g>
</svg>
