<?xml version="1.0" encoding="utf-8"?>
<!-- Generator: Adobe Illustrator 19.2.0, SVG Export Plug-In . SVG Version: 6.00 Build 0)  -->
<svg version="1.1" id="Layer_1" xmlns="http://www.w3.org/2000/svg" xmlns:xlink="http://www.w3.org/1999/xlink" x="0px" y="0px"
	 viewBox="0 0 50 50" style="enable-background:new 0 0 50 50;" xml:space="preserve">
<style type="text/css">
	.st0{fill:#FFFFFF;}
</style>
<g>
	<path class="st0" d="M49,7.4V1H1v6.4h1.6v32H1.8c-0.4,0-0.8,0.4-0.8,0.8C1,40.6,1.4,41,1.8,41h22.4v1.6c0,0,0,0.1,0,0.1
		c-1.4,0.4-2.4,1.6-2.4,3.1c0,1.8,1.4,3.2,3.2,3.2c1.8,0,3.2-1.4,3.2-3.2c0-1.5-1-2.7-2.4-3.1c0,0,0-0.1,0-0.1V41h22.4
		c0.4,0,0.8-0.4,0.8-0.8c0-0.4-0.4-0.8-0.8-0.8h-0.8v-32H49z M26.6,45.8c0,0.9-0.7,1.6-1.6,1.6c-0.9,0-1.6-0.7-1.6-1.6
		c0-0.9,0.7-1.6,1.6-1.6C25.9,44.2,26.6,44.9,26.6,45.8L26.6,45.8z M2.6,2.6h44.8v3.2H2.6V2.6z M45.8,39.4H4.2v-32h41.6V39.4z
		 M45.8,39.4"/>
	<path class="st0" d="M29.8,37c0.4,0,0.8-0.4,0.8-0.8v-2.4c0-0.4-0.4-0.8-0.8-0.8c-0.4,0-0.8,0.4-0.8,0.8v2.4
		C29,36.6,29.4,37,29.8,37L29.8,37z M29.8,37"/>
	<path class="st0" d="M33,29.8c-0.4,0-0.8,0.4-0.8,0.8v5.6c0,0.4,0.4,0.8,0.8,0.8s0.8-0.4,0.8-0.8v-5.6C33.8,30.2,33.4,29.8,33,29.8
		L33,29.8z M33,29.8"/>
	<path class="st0" d="M36.2,31.4c-0.4,0-0.8,0.4-0.8,0.8v4c0,0.4,0.4,0.8,0.8,0.8c0.4,0,0.8-0.4,0.8-0.8v-4
		C37,31.8,36.6,31.4,36.2,31.4L36.2,31.4z M36.2,31.4"/>
	<path class="st0" d="M39.4,25.8c-0.4,0-0.8,0.4-0.8,0.8v9.6c0,0.4,0.4,0.8,0.8,0.8c0.4,0,0.8-0.4,0.8-0.8v-9.6
		C40.2,26.2,39.8,25.8,39.4,25.8L39.4,25.8z M39.4,25.8"/>
	<path class="st0" d="M42.6,29c-0.4,0-0.8,0.4-0.8,0.8v6.4c0,0.4,0.4,0.8,0.8,0.8c0.4,0,0.8-0.4,0.8-0.8v-6.4
		C43.4,29.4,43,29,42.6,29L42.6,29z M42.6,29"/>
	<path class="st0" d="M9,33h8c0.4,0,0.8-0.4,0.8-0.8c0-0.4-0.4-0.8-0.8-0.8H9c-0.4,0-0.8,0.4-0.8,0.8C8.2,32.6,8.6,33,9,33L9,33z
		 M9,33"/>
	<path class="st0" d="M21,34.6H9c-0.4,0-0.8,0.4-0.8,0.8c0,0.4,0.4,0.8,0.8,0.8h12c0.4,0,0.8-0.4,0.8-0.8C21.8,35,21.4,34.6,21,34.6
		L21,34.6z M21,34.6"/>
	<path class="st0" d="M16.6,28.2c2.3,0,4.4-0.9,6-2.3c0,0,0.1,0,0.1,0c0,0,0,0,0,0c1.7-1.5,2.8-3.7,3-6.1l0,0l0-0.4
		c0-0.1,0-0.1,0-0.2c0-0.1,0-0.1,0-0.2c0-0.1,0-0.2,0-0.3c0-0.1,0-0.3,0-0.4c0-0.2,0-0.4-0.1-0.6c0-0.1,0-0.2-0.1-0.3
		c0-0.2-0.1-0.4-0.1-0.6c0-0.1,0-0.2-0.1-0.3c-0.1-0.2-0.1-0.4-0.2-0.6c0-0.1-0.1-0.2-0.1-0.3c-0.1-0.2-0.2-0.4-0.3-0.6
		c0-0.1-0.1-0.2-0.1-0.3c-0.1-0.2-0.2-0.3-0.3-0.5c-0.1-0.1-0.1-0.2-0.2-0.4c-0.1-0.1-0.1-0.2-0.2-0.3c-0.1-0.1-0.2-0.3-0.3-0.5
		c-0.2-0.2-0.4-0.4-0.6-0.7c-0.2-0.2-0.4-0.4-0.6-0.6c0,0,0,0,0,0c-0.1-0.1-0.3-0.2-0.4-0.3c-0.1-0.1-0.2-0.2-0.3-0.2
		c-0.1-0.1-0.2-0.1-0.3-0.2c-0.2-0.1-0.3-0.2-0.5-0.3c-0.1,0-0.2-0.1-0.2-0.1c-0.2-0.1-0.4-0.2-0.6-0.3c-0.1,0-0.1,0-0.2-0.1
		c-0.2-0.1-0.5-0.2-0.7-0.2c-0.1,0-0.1,0-0.2,0c-0.2-0.1-0.5-0.1-0.7-0.2c-0.1,0-0.2,0-0.3,0c-0.2,0-0.4-0.1-0.6-0.1
		c-0.1,0-0.3,0-0.4,0c-0.1,0-0.2,0-0.3,0c-0.1,0-0.1,0-0.2,0c-0.1,0-0.1,0-0.2,0l-0.3,0l0,0c-4.7,0.4-8.5,4.3-8.5,9.2
		C7.4,24.1,11.5,28.2,16.6,28.2L16.6,28.2z M22.1,24.2l-4-4h6C23.9,21.7,23.1,23.1,22.1,24.2L22.1,24.2z M17.2,11.4
		c0.1,0,0.2,0,0.3,0c0.2,0,0.4,0,0.5,0.1c0.1,0,0.1,0,0.2,0c0.2,0,0.4,0.1,0.6,0.2c0,0,0,0,0,0c2.4,0.7,4.2,2.6,5,5c0,0,0,0,0,0
		c0.1,0.2,0.1,0.4,0.2,0.6c0,0.1,0,0.1,0,0.2c0,0.2,0.1,0.4,0.1,0.5c0,0.1,0,0.2,0,0.2c0,0.1,0,0.2,0,0.2H17v-7.2
		C17.1,11.4,17.2,11.4,17.2,11.4L17.2,11.4z M15.4,11.5v7.9l0,0c0,0,0,0,0,0l0,0.8h0.4l5.1,5c-1.2,0.9-2.7,1.4-4.3,1.4
		C12.4,26.6,9,23.2,9,19C9,15.2,11.8,12.1,15.4,11.5L15.4,11.5z M15.4,11.5"/>
	<path class="st0" d="M32.2,16.2h6.4c0.4,0,0.8-0.4,0.8-0.8c0-0.4-0.4-0.8-0.8-0.8h-6.4c-0.4,0-0.8,0.4-0.8,0.8
		C31.4,15.8,31.8,16.2,32.2,16.2L32.2,16.2z M32.2,16.2"/>
	<path class="st0" d="M42,14.8c-0.1,0.2-0.2,0.4-0.2,0.6c0,0.2,0.1,0.4,0.2,0.6c0.2,0.1,0.4,0.2,0.6,0.2c0.2,0,0.4-0.1,0.6-0.2
		c0.1-0.2,0.2-0.4,0.2-0.6c0-0.2-0.1-0.4-0.2-0.6C42.9,14.5,42.3,14.5,42,14.8L42,14.8z M42,14.8"/>
	<path class="st0" d="M40.2,12.2h2.4c0.4,0,0.8-0.4,0.8-0.8c0-0.4-0.4-0.8-0.8-0.8h-2.4c-0.4,0-0.8,0.4-0.8,0.8
		C39.4,11.8,39.8,12.2,40.2,12.2L40.2,12.2z M40.2,12.2"/>
	<path class="st0" d="M32.2,12.2h1.6c0.4,0,0.8-0.4,0.8-0.8c0-0.4-0.4-0.8-0.8-0.8h-1.6c-0.4,0-0.8,0.4-0.8,0.8
		C31.4,11.8,31.8,12.2,32.2,12.2L32.2,12.2z M32.2,12.2"/>
	<path class="st0" d="M37,12.2c0.2,0,0.4-0.1,0.6-0.2c0.1-0.2,0.2-0.4,0.2-0.6c0-0.2-0.1-0.4-0.2-0.6c-0.3-0.3-0.8-0.3-1.1,0
		c-0.1,0.2-0.2,0.4-0.2,0.6c0,0.2,0.1,0.4,0.2,0.6C36.6,12.1,36.8,12.2,37,12.2L37,12.2z M37,12.2"/>
</g>
</svg>
