<?xml version="1.0" encoding="utf-8"?>
<!-- Generator: Adobe Illustrator 19.2.0, SVG Export Plug-In . SVG Version: 6.00 Build 0)  -->
<svg version="1.1" id="Layer_1" xmlns="http://www.w3.org/2000/svg" xmlns:xlink="http://www.w3.org/1999/xlink" x="0px" y="0px"
	 viewBox="0 0 50 50" style="enable-background:new 0 0 50 50;" xml:space="preserve">
<style type="text/css">
	.st0{fill:#FFFFFF;}
</style>
<g>
	<path class="st0" d="M19.5,37.7H8.3c-0.6,0-1.1,0.5-1.1,1.1c0,0.6,0.5,1.1,1.1,1.1h11.1c0.6,0,1.1-0.5,1.1-1.1
		C20.6,38.2,20.1,37.7,19.5,37.7L19.5,37.7z M19.5,37.7"/>
	<path class="st0" d="M36.1,37.7H25c-0.6,0-1.1,0.5-1.1,1.1c0,0.6,0.5,1.1,1.1,1.1h11.1c0.6,0,1.1-0.5,1.1-1.1
		C37.3,38.2,36.8,37.7,36.1,37.7L36.1,37.7z M36.1,37.7"/>
	<path class="st0" d="M36.1,10.1H8.3c-0.6,0-1.1,0.5-1.1,1.1c0,0.6,0.5,1.1,1.1,1.1h27.8c0.6,0,1.1-0.5,1.1-1.1
		C37.3,10.6,36.8,10.1,36.1,10.1L36.1,10.1z M36.1,10.1"/>
	<path class="st0" d="M36.1,15.6H25c-0.6,0-1.1,0.5-1.1,1.1c0,0.6,0.5,1.1,1.1,1.1h11.1c0.6,0,1.1-0.5,1.1-1.1
		C37.3,16.1,36.8,15.6,36.1,15.6L36.1,15.6z M36.1,15.6"/>
	<path class="st0" d="M36.1,21.1H25c-0.6,0-1.1,0.5-1.1,1.1c0,0.6,0.5,1.1,1.1,1.1h11.1c0.6,0,1.1-0.5,1.1-1.1
		C37.3,21.6,36.8,21.1,36.1,21.1L36.1,21.1z M36.1,21.1"/>
	<path class="st0" d="M36.1,26.7H25c-0.6,0-1.1,0.5-1.1,1.1c0,0.6,0.5,1.1,1.1,1.1h11.1c0.6,0,1.1-0.5,1.1-1.1
		C37.3,27.2,36.8,26.7,36.1,26.7L36.1,26.7z M36.1,26.7"/>
	<path class="st0" d="M36.1,32.2H25c-0.6,0-1.1,0.5-1.1,1.1c0,0.6,0.5,1.1,1.1,1.1h11.1c0.6,0,1.1-0.5,1.1-1.1
		C37.3,32.7,36.8,32.2,36.1,32.2L36.1,32.2z M36.1,32.2"/>
	<path class="st0" d="M19.5,32.2H8.3c-0.6,0-1.1,0.5-1.1,1.1c0,0.6,0.5,1.1,1.1,1.1h11.1c0.6,0,1.1-0.5,1.1-1.1
		C20.6,32.7,20.1,32.2,19.5,32.2L19.5,32.2z M19.5,32.2"/>
	<path class="st0" d="M19.5,15.6H8.3c-0.6,0-1.1,0.5-1.1,1.1v11.1c0,0.6,0.5,1.1,1.1,1.1h11.1c0.6,0,1.1-0.5,1.1-1.1V16.7
		C20.6,16.1,20.1,15.6,19.5,15.6L19.5,15.6z M18.4,26.8H9.4v-8.9h8.9V26.8z M18.4,26.8"/>
	<path class="st0" d="M47.2,9h-3.3V5.7c0-1.2-1-2.2-2.2-2.2H2.8c-1.2,0-2.2,1-2.2,2.2V41c0,3,2.5,5.5,5.5,5.5h37.8
		c3,0,5.5-2.5,5.5-5.5V11.2C49.4,10,48.4,9,47.2,9L47.2,9z M47.2,41c0,1.8-1.5,3.3-3.3,3.3H6.1c-1.8,0-3.3-1.5-3.3-3.3V5.7h38.9
		v33.7c0,1.5,1.2,2.8,2.8,2.8c0.6,0,1.1-0.5,1.1-1.1s-0.5-1.1-1.1-1.1c-0.3,0-0.6-0.2-0.6-0.6V11.2h3.3V41z M47.2,41"/>
</g>
</svg>
