<?xml version="1.0" encoding="utf-8"?>
<!-- Generator: Adobe Illustrator 19.2.0, SVG Export Plug-In . SVG Version: 6.00 Build 0)  -->
<svg version="1.1" id="Layer_1" xmlns="http://www.w3.org/2000/svg" xmlns:xlink="http://www.w3.org/1999/xlink" x="0px" y="0px"
	 viewBox="0 0 50 50" style="enable-background:new 0 0 50 50;" xml:space="preserve">
<style type="text/css">
	.st0{fill:#FFFFFF;}
</style>
<g>
	<path class="st0" d="M12.8,11.7l-7.5,2C9.2,6.9,16.6,2.3,25,2.3c12.5,0,22.7,10.2,22.7,22.7S37.5,47.7,25,47.7
		c-8.3,0-15.6-4.5-19.6-11.2l-1.8,1C7.9,44.8,15.9,49.7,25,49.7c13.7,0,24.7-11.1,24.7-24.7S38.7,0.3,25,0.3C16.1,0.3,8.3,4.9,4,12
		L2.3,5.5L0.3,6l2.6,10.4l10.4-2.7L12.8,11.7z M13.3,13.7"/>
	<path class="st0" d="M26.1,36v-1.9c1.8-0.1,3.2-0.6,4.2-1.6c1-0.9,1.6-2.2,1.6-3.7c0-1.6-0.4-2.7-1.4-3.5c-0.9-0.8-2.3-1.5-4.3-1.9
		h-0.1v-4.8c1.4,0.2,2.5,0.6,3.7,1.5l1.7-2.3c-1.7-1.2-3.5-1.8-5.4-1.9v-1.3h-1.6v1.3c-1.6,0.1-2.9,0.6-4,1.6
		c-1.1,0.9-1.6,2.2-1.6,3.7c0,1.5,0.4,2.6,1.4,3.4c0.8,0.7,2.3,1.4,4.2,1.8v4.9C23,31,21.6,30.3,20.1,29l-1.9,2.2
		c1.9,1.7,4,2.6,6.3,2.8V36H26.1z M26.2,26.8c1.1,0.3,1.7,0.6,2.1,0.9c0.3,0.4,0.5,0.8,0.5,1.5c0,0.6-0.2,1.1-0.7,1.5
		c-0.5,0.4-1.2,0.6-1.9,0.7V26.8z M22.5,22.3C22.2,22,22,21.5,22,21c0-0.6,0.2-1.1,0.6-1.5c0.5-0.4,1.1-0.6,1.9-0.7v4.5
		C23.5,22.9,22.8,22.6,22.5,22.3L22.5,22.3z M22.5,22.3"/>
</g>
</svg>
