<?xml version="1.0" encoding="utf-8"?>
<!-- Generator: Adobe Illustrator 21.0.0, SVG Export Plug-In . SVG Version: 6.00 Build 0)  -->
<svg version="1.1" id="Layer_1" xmlns="http://www.w3.org/2000/svg" xmlns:xlink="http://www.w3.org/1999/xlink" x="0px" y="0px"
	 viewBox="0 0 962.9 754" style="enable-background:new 0 0 962.9 754;" xml:space="preserve">
<style type="text/css">
	.st0{fill:#F6CC68;}
	.st1{fill:#F9BB1E;}
	.st2{fill:#FFFFFF;}
	.st3{fill:#D32027;}
	.st4{fill:#010101;}
	.st5{fill:#2E793F;}
	.st6{fill:#192550;}
	.st7{fill:#F8F8FA;}
	.st8{fill:#122441;}
</style>
<g>
	<g>
		<path class="st0" d="M266.8,120.7c0,53.2-43.1,96.3-96.3,96.3c-53.2,0-96.3-43.1-96.3-96.3c0-53.2,43.1-96.3,96.3-96.3
			C223.6,24.4,266.8,67.5,266.8,120.7"/>
	</g>
	<g>
		<path d="M170.5,218.9c-54.1,0-98.2-44-98.2-98.2c0-54.1,44-98.2,98.2-98.2c54.1,0,98.2,44,98.2,98.2
			C268.6,174.8,224.6,218.9,170.5,218.9z M170.5,26.3c-52.1,0-94.4,42.4-94.4,94.4c0,52.1,42.4,94.4,94.4,94.4
			c52.1,0,94.4-42.4,94.4-94.4C264.9,68.6,222.5,26.3,170.5,26.3z"/>
	</g>
	<g>
		<path class="st1" d="M50.1,1.9h47.5l12.5,37.5c0,0,145.1-70.6,155.1,93.5h-17.5l-2.5-13.9l-15,9.9l-85-61.5l12.5-25.5l-27.5,12.5
			l-20-15l-17.5,28l-10-13H60.1L50.1,1.9z"/>
	</g>
	<g>
		<path d="M267.2,134.8h-21.1l-2.3-12.7l-13.7,9.1l-1-0.8L142.8,68l10.9-22.2l-23.7,10.8l-19.3-14.5L92.8,70.7L81.7,56.3H58.5
			L47.8,0H99l12.3,36.8c11.2-5.1,67.1-27.9,109.4-3.2c27.8,16.2,43.4,49.6,46.5,99.2L267.2,134.8z M249.3,131h13.9
			C260,83.8,245,52.2,218.8,36.8c-39.1-22.8-92.2-2.5-105,3l16.6,12.4L161.6,38l-14.1,28.8l82.7,59.8l16.3-10.8L249.3,131z
			 M61.6,52.5h21.9l8.9,11.6l15.6-25L96.3,3.8H52.3L61.6,52.5z"/>
	</g>
	<g>
		<path class="st0" d="M402.1,128.9c0,41.1-33.3,74.4-74.4,74.4c-41.1,0-74.5-33.3-74.5-74.4c0-41.1,33.3-74.4,74.5-74.4
			C368.7,54.4,402.1,87.7,402.1,128.9"/>
	</g>
	<g>
		<path d="M327.6,205.2c-42.1,0-76.3-34.2-76.3-76.3s34.2-76.3,76.3-76.3c42.1,0,76.3,34.2,76.3,76.3S369.7,205.2,327.6,205.2z
			 M327.6,56.3c-40,0-72.6,32.6-72.6,72.6s32.6,72.6,72.6,72.6c40,0,72.6-32.6,72.6-72.6S367.6,56.3,327.6,56.3z"/>
	</g>
	<g>
		<path class="st0" d="M200.5,614.1c0,53.2-43.1,96.3-96.3,96.3c-53.2,0-96.3-43.1-96.3-96.3c0-53.2,43.1-96.3,96.3-96.3
			C157.4,517.8,200.5,560.9,200.5,614.1"/>
	</g>
	<g>
		<path d="M104.2,712.3C50,712.3,6,668.2,6,614.1c0-54.1,44-98.2,98.2-98.2c54.1,0,98.2,44,98.2,98.2
			C202.4,668.2,158.3,712.3,104.2,712.3z M104.2,519.7c-52.1,0-94.4,42.4-94.4,94.4c0,52.1,42.4,94.4,94.4,94.4
			c52.1,0,94.4-42.4,94.4-94.4C198.6,562,156.2,519.7,104.2,519.7z"/>
	</g>
	<g>
		<polygon class="st2" points="952.1,584.7 29.2,559.7 29.2,187 952.1,154.5 		"/>
	</g>
	<g>
		<path d="M951.8,595.3c-19.2-2.6-38.4-3.2-57.6-3.8l-57.7-1.9l-115.4-3.8l-230.7-7.5l-461.4-15l-3.7-0.1v-3.6V187v-3.6l3.6-0.1
			l923-32.5l3.8-0.1l0.1,3.9l7.1,442.4L951.8,595.3z M941.7,574.2l6.7-419.8l3.9,3.8l-923,32.5l3.6-3.8v372.7l-3.6-3.8L490.8,566
			l230.8,5l115.4,2.5l57.7,1.3C910.3,575.1,926,574.9,941.7,574.2"/>
	</g>
	<g>
		<path class="st0" d="M49.2,185.7c0,4.7-10.1,8.6-22.5,8.6c-12.4,0-22.5-3.9-22.5-8.6c0-4.7,10.1-8.6,22.5-8.6
			C39.1,177.1,49.2,181,49.2,185.7"/>
	</g>
	<g>
		<path d="M26.7,196.2c-11.8,0-24.4-3.7-24.4-10.5c0-6.8,12.6-10.5,24.4-10.5S51,178.9,51,185.7C51,192.5,38.5,196.2,26.7,196.2z
			 M26.7,179C14.1,179,6,183,6,185.7s8,6.7,20.6,6.7s20.6-4,20.6-6.7S39.2,179,26.7,179z"/>
	</g>
	<g>
		<path class="st0" d="M49.2,229.5c0,6.9-10.1,12.5-22.5,12.5c-12.4,0-22.5-5.6-22.5-12.5c0-6.9,10.1-12.5,22.5-12.5
			C39.1,217,49.2,222.6,49.2,229.5"/>
	</g>
	<g>
		<path d="M26.7,243.9c-13.7,0-24.4-6.3-24.4-14.4s10.7-14.4,24.4-14.4S51,221.4,51,229.5S40.3,243.9,26.7,243.9z M26.7,218.9
			c-11.2,0-20.6,4.9-20.6,10.6c0,5.8,9.5,10.6,20.6,10.6s20.6-4.9,20.6-10.6C47.3,223.7,37.8,218.9,26.7,218.9z"/>
	</g>
	<g>
		<path class="st0" d="M52.9,206.8c0,6.9-10.6,12.5-23.8,12.5c-13.1,0-23.8-5.6-23.8-12.5c0-6.9,10.6-12.5,23.8-12.5
			C42.3,194.3,52.9,199.9,52.9,206.8"/>
	</g>
	<g>
		<path d="M29.1,221.2c-14.4,0-25.6-6.3-25.6-14.4s11.3-14.4,25.6-14.4c14.4,0,25.6,6.3,25.6,14.4S43.5,221.2,29.1,221.2z
			 M29.1,196.2c-11.9,0-21.9,4.9-21.9,10.6c0,5.8,10,10.6,21.9,10.6c11.9,0,21.9-4.9,21.9-10.6C51,201.1,41,196.2,29.1,196.2z"/>
	</g>
	<g>
		<path class="st0" d="M49.2,249.5c0,5.2-10.1,9.4-22.5,9.4c-12.4,0-22.5-4.2-22.5-9.4c0-5.2,10.1-9.4,22.5-9.4
			C39.1,240.1,49.2,244.3,49.2,249.5"/>
	</g>
	<g>
		<path d="M26.7,260.7c-13.9,0-24.4-4.8-24.4-11.3s10.5-11.3,24.4-11.3S51,243.1,51,249.5S40.6,260.7,26.7,260.7z M26.7,242
			c-11.8,0-20.6,4-20.6,7.5s8.8,7.5,20.6,7.5s20.6-4,20.6-7.5S38.5,242,26.7,242z"/>
	</g>
	<g>
		<path class="st0" d="M6.4,542.3c-0.2-4.7,9.7-9,22.2-9.5c12.4-0.5,22.6,3,22.8,7.7c0.2,4.7-9.7,9-22.2,9.4
			C16.8,550.5,6.6,547,6.4,542.3"/>
	</g>
	<g>
		<path d="M27,551.9c-8.9,0-16.7-2-20.2-5.3c-1.4-1.3-2.1-2.8-2.2-4.3c-0.3-6.8,12.2-11,24-11.4c11.8-0.5,24.5,2.7,24.8,9.5
			c0.2,6.8-12.2,10.9-24,11.4C28.5,551.9,27.7,551.9,27,551.9z M30.9,534.6c-0.7,0-1.5,0-2.2,0c-12.6,0.5-20.5,4.8-20.4,7.5l0,0
			c0,0.5,0.4,1.1,1,1.7c2.5,2.3,9.8,4.6,19.9,4.2c12.6-0.5,20.5-4.7,20.4-7.5C49.4,538,42.2,534.6,30.9,534.6z"/>
	</g>
	<g>
		<path class="st0" d="M4.7,498.5c-0.3-6.9,9.6-12.9,22-13.4c12.4-0.5,22.7,4.7,23,11.6c0.3,6.9-9.6,12.9-22,13.4
			C15.3,510.7,5,505.4,4.7,498.5"/>
	</g>
	<g>
		<path d="M26.1,512.1c-12.9,0-22.9-5.7-23.2-13.5l0,0c-0.3-8.1,10.2-14.8,23.8-15.3c13.8-0.3,24.6,5.4,24.9,13.4
			c0.1,2.6-1,5.2-3.1,7.5c-4.1,4.5-12.1,7.5-20.7,7.8C27.2,512,26.6,512.1,26.1,512.1z M6.6,498.4c0.2,5.8,9.9,10.2,21,9.8
			c7.7-0.3,14.6-2.8,18.1-6.6c1.5-1.6,2.2-3.2,2.1-4.8c-0.2-5.8-10-10.2-21-9.8C15.7,487.5,6.4,492.7,6.6,498.4z"/>
	</g>
	<g>
		<path class="st0" d="M1.9,521.3c-0.3-6.9,10.1-12.9,23.3-13.4c13.1-0.5,24,4.7,24.2,11.6c0.3,6.9-10.2,12.9-23.3,13.4
			C13,533.4,2.2,528.2,1.9,521.3"/>
	</g>
	<g>
		<path d="M24.3,534.8c-13.5,0-24-5.7-24.3-13.4l0,0c-0.1-2.5,0.9-5.1,3-7.3c4.3-4.6,12.7-7.7,22.1-8.1c0.6,0,1.2,0,1.8,0
			c13.5,0,24,5.7,24.3,13.4c0.2,4.1-2.5,7.9-7.6,10.8c-4.7,2.7-10.9,4.3-17.5,4.6C25.6,534.8,24.9,534.8,24.3,534.8z M3.8,521.2
			C4,527,14.3,531.7,26,531c6-0.2,11.6-1.7,15.8-4c3.7-2.1,5.8-4.8,5.7-7.4c-0.2-5.8-10.4-10.4-22.3-9.8c-8.2,0.3-15.9,3-19.5,6.9
			C4.4,518.1,3.7,519.7,3.8,521.2L3.8,521.2z"/>
	</g>
	<g>
		<path class="st0" d="M4,478.5c-0.2-5.2,9.7-9.8,22.1-10.3c12.4-0.5,22.7,3.3,22.9,8.5c0.2,5.2-9.7,9.7-22.1,10.2
			C14.4,487.5,4.2,483.7,4,478.5"/>
	</g>
	<g>
		<path d="M24.7,488.9c-8.7,0-16.5-2.1-20.1-5.5c-1.5-1.4-2.4-3.1-2.5-4.8c-0.2-6.4,10-11.6,23.9-12.2c14-0.5,24.6,3.9,24.8,10.3
			c0.2,6.4-10.1,11.6-23.9,12.2C26.2,488.9,25.4,488.9,24.7,488.9z M28.2,470.1c-0.7,0-1.3,0-2,0c-11.8,0.5-20.5,4.8-20.3,8.3l0,0
			c0,0.7,0.4,1.5,1.3,2.2c2.7,2.5,9.9,4.9,19.7,4.5c11.8-0.4,20.5-4.7,20.3-8.3C47,473.5,39,470.1,28.2,470.1z"/>
	</g>
	<g>
		<path class="st0" d="M169.5,545.9c4.7-0.2,9,9.7,9.4,22.2c0.5,12.4-3,22.6-7.7,22.8c-4.7,0.2-9-9.8-9.5-22.2
			C161.3,556.3,164.8,546.1,169.5,545.9"/>
	</g>
	<g>
		<path d="M171.1,592.8c-6.7,0-10.7-12.3-11.2-24c-0.2-6.2,0.5-12.2,2-16.7c1.7-5.1,4.4-8,7.5-8.1c0.1,0,0.1,0,0.2,0
			c6.7,0,10.7,12.3,11.2,24c0.2,6.2-0.5,12.1-2,16.7c-1.7,5.1-4.4,8-7.5,8.1C171.3,592.8,171.2,592.8,171.1,592.8z M169.7,547.8
			C169.6,547.8,169.6,547.8,169.7,547.8c-1.5,0-3,2.2-4.2,5.6c-1.4,4.1-2,9.5-1.8,15.3c0.5,12.6,4.8,20.7,7.5,20.4
			c1.4,0,3-2.2,4.1-5.5c1.4-4.1,2-9.5,1.8-15.3C176.6,555.7,172.4,547.8,169.7,547.8z"/>
	</g>
	<g>
		<path class="st0" d="M213.3,544.2c6.9-0.3,12.9,9.6,13.3,22c0.5,12.4-4.7,22.7-11.6,23c-6.9,0.3-12.9-9.6-13.4-22
			C201.2,554.8,206.4,544.5,213.3,544.2"/>
	</g>
	<g>
		<path d="M214.7,591.1c-3.9,0-7.6-2.5-10.4-7.2c-2.7-4.4-4.3-10.3-4.5-16.7c-0.5-13.6,5.4-24.6,13.4-24.9l0,0c2.6,0,5.2,1,7.5,3.1
			c4.5,4.1,7.5,12.1,7.8,20.7c0.3,8.6-2,16.8-6.2,21.3c-2.1,2.3-4.6,3.5-7.2,3.6C214.9,591.1,214.8,591.1,214.7,591.1z M213.4,546.1
			L213.4,546.1c-5.8,0.2-10.3,9.8-9.8,21c0.2,5.7,1.6,11,4,14.9c2.2,3.5,4.9,5.5,7.4,5.3c1.6-0.1,3.2-0.9,4.6-2.4
			c3.5-3.8,5.5-10.9,5.2-18.6c-0.3-7.7-2.8-14.6-6.6-18.1C216.6,546.8,214.8,546,213.4,546.1z"/>
	</g>
	<g>
		<path class="st0" d="M190.5,541.4c6.9-0.3,12.9,10.2,13.4,23.3c0.5,13.1-4.7,24-11.6,24.2c-6.9,0.3-12.9-10.2-13.4-23.3
			C178.4,552.5,183.6,541.6,190.5,541.4"/>
	</g>
	<g>
		<path d="M192,590.7c-3.9,0-7.7-2.7-10.5-7.6c-2.7-4.6-4.3-10.9-4.5-17.5c-0.4-9.3,2.1-18,6.4-22.6c2.1-2.2,4.5-3.4,7-3.5l0,0
			c0.1,0,0.2,0,0.3,0c3.9,0,7.6,2.7,10.4,7.6c2.7,4.6,4.3,10.9,4.6,17.5c0.4,9.4-2.1,18-6.4,22.6c-2.1,2.2-4.5,3.4-7,3.5
			C192.3,590.7,192.1,590.7,192,590.7z M190.7,543.3c-0.1,0-0.1,0-0.2,0h0c-1.5,0.1-3,0.8-4.4,2.3c-3.6,3.9-5.7,11.7-5.4,19.9
			c0.2,6,1.7,11.7,4,15.8c2.1,3.7,4.7,5.7,7.4,5.7c1.5-0.1,3-0.8,4.4-2.3c3.6-3.9,5.7-11.7,5.4-19.9c-0.2-6-1.7-11.6-4-15.8
			C195.9,545.3,193.3,543.3,190.7,543.3z"/>
	</g>
	<g>
		<path class="st0" d="M233.3,543.5c5.2-0.2,9.8,9.7,10.2,22.2c0.5,12.4-3.3,22.6-8.5,22.8c-5.1,0.2-9.7-9.7-10.2-22.2
			C224.3,553.9,228.1,543.7,233.3,543.5"/>
	</g>
	<g>
		<path d="M234.8,590.4c-6.3,0-11.4-10.2-12-23.9c-0.2-6.2,0.6-12.2,2.3-16.7c1.9-5.1,4.7-7.9,8.1-8.1l0,0c0.1,0,0.1,0,0.2,0
			c6.3,0,11.4,10.2,12,23.9c0.5,13.9-3.9,24.5-10.3,24.8C235,590.4,234.9,590.4,234.8,590.4z M233.3,545.4c-1.6,0.1-3.4,2.2-4.7,5.6
			c-1.5,4.1-2.2,9.5-2,15.3c0.4,11.7,4.7,20.3,8.2,20.3c0,0,0.1,0,0.1,0c3.5-0.1,7.2-9.1,6.7-20.9
			C241.2,554,236.9,545.4,233.3,545.4C233.4,545.4,233.4,545.4,233.3,545.4L233.3,545.4z"/>
	</g>
	<g>
		<path class="st0" d="M519.5,197.5c-4.7,0.1-8.9-9.8-9.2-22.3c-0.4-12.4,3.2-22.6,8-22.8c4.7-0.1,8.9,9.8,9.2,22.3
			C527.9,187.2,524.3,197.3,519.5,197.5"/>
	</g>
	<g>
		<path d="M519.4,199.3c-1.5,0-3-0.7-4.3-1.9c-3.8-3.6-6.4-12.3-6.7-22.2c-0.2-6.2,0.6-12.1,2.2-16.7c1.8-5.1,4.5-7.9,7.6-8
			c3.1,0.1,6,2.6,8,7.6c1.8,4.4,2.9,10.3,3.1,16.5c0.2,6.2-0.6,12.2-2.2,16.7c-1.8,5.1-4.5,7.9-7.6,8l0,0
			C519.5,199.3,519.5,199.3,519.4,199.3z M518.4,154.3C518.4,154.3,518.4,154.3,518.4,154.3c-1.4,0-3,2.2-4.2,5.5
			c-1.4,4.1-2.1,9.5-2,15.3c0.3,10.1,3.1,17.2,5.5,19.6c0.6,0.6,1.2,0.9,1.7,0.9c0,0,0,0,0,0h0c1.4,0,3-2.1,4.2-5.5
			c1.4-4.1,2.1-9.5,2-15.3c-0.2-5.8-1.2-11.2-2.8-15.2C521.5,156.3,519.8,154.3,518.4,154.3z"/>
	</g>
	<g>
		<path class="st0" d="M475.8,198.7c-6.9,0.2-12.8-9.7-13.1-22.2c-0.3-12.4,5-22.6,11.9-22.8c6.9-0.2,12.8,9.7,13.1,22.2
			C488,188.3,482.7,198.5,475.8,198.7"/>
	</g>
	<g>
		<path d="M475.6,200.6c-4,0-7.7-2.6-10.4-7.3c-2.6-4.5-4.2-10.4-4.4-16.7c-0.4-13.7,5.7-24.5,13.7-24.8c0.1,0,0.2,0,0.3,0
			c4,0,7.7,2.6,10.4,7.3c2.6,4.5,4.2,10.4,4.4,16.7c0.4,13.7-5.7,24.5-13.7,24.8C475.8,200.6,475.7,200.6,475.6,200.6z M474.8,155.6
			c-0.1,0-0.1,0-0.2,0c-5.8,0.2-10.4,9.7-10.1,20.9c0.2,5.7,1.5,11,3.8,14.9c2.1,3.6,4.8,5.3,7.4,5.4c5.8-0.2,10.4-9.7,10.1-20.9
			c-0.2-5.7-1.5-11-3.8-14.9C479.9,157.5,477.3,155.6,474.8,155.6z"/>
	</g>
	<g>
		<path class="st0" d="M498.5,201.8c-6.9,0.2-12.8-10.3-13.2-23.4c-0.4-13.1,4.9-23.9,11.8-24.1c6.9-0.2,12.8,10.3,13.2,23.4
			C510.7,190.8,505.4,201.6,498.5,201.8"/>
	</g>
	<g>
		<path d="M498.4,203.7c-2.4,0-4.9-1.1-7-3.1c-4.6-4.3-7.6-12.8-7.9-22.2c-0.4-14.4,5.6-25.8,13.7-26c0.1,0,0.2,0,0.2,0
			c4,0,7.7,2.7,10.5,7.7c2.6,4.7,4.2,10.9,4.4,17.6c0.4,14.4-5.6,25.8-13.7,26C498.5,203.7,498.4,203.7,498.4,203.7z M497.4,156.2
			c0,0-0.1,0-0.1,0c-5.8,0.2-10.3,10.3-10,22.2c0.2,8.2,2.9,15.9,6.7,19.5c1.5,1.4,2.9,2.2,4.5,2c5.8-0.2,10.3-10.3,10-22.2
			c-0.2-6-1.5-11.7-3.9-15.8C502.6,158.3,499.9,156.2,497.4,156.2z"/>
	</g>
	<g>
		<path class="st0" d="M455.8,199.2c-5.2,0.2-9.7-9.8-10-22.2c-0.3-12.4,3.6-22.6,8.8-22.8c5.2-0.1,9.6,9.8,10,22.2
			C464.9,188.9,461,199.1,455.8,199.2"/>
	</g>
	<g>
		<path d="M455.7,201.1c-3.2,0-6.2-2.7-8.4-7.5c-2-4.4-3.2-10.3-3.4-16.6c-0.4-13.9,4.2-24.5,10.6-24.7c0.1,0,0.1,0,0.2,0
			c6.3,0,11.4,10.3,11.8,24.1c0.3,9.6-2,18.4-5.7,22.3c-1.4,1.5-3.1,2.3-4.9,2.4C455.8,201.1,455.7,201.1,455.7,201.1z M454.7,156.1
			C454.6,156.1,454.6,156.1,454.7,156.1c-3.6,0.1-7.3,9-7,20.8c0.2,5.8,1.2,11.1,3,15.1c1.5,3.3,3.4,5.3,5,5.3c0,0,0,0,0.1,0l0,0
			c0.7,0,1.5-0.4,2.2-1.2c2.5-2.7,5-9.8,4.7-19.6C462.4,164.8,458.2,156.1,454.7,156.1z"/>
	</g>
	<g>
		<path class="st0" d="M286.4,191.9c-3.3,0.3-6.6-6.6-7.2-15.3c-0.6-8.7,1.5-16,4.8-16.2c3.3-0.2,6.6,6.6,7.2,15.3
			C291.9,184.4,289.7,191.7,286.4,191.9"/>
	</g>
	<g>
		<path d="M286.2,193.8c-0.9,0-2-0.3-3.3-1.3c-2.9-2.5-5.1-8.6-5.6-15.7c-0.7-8.8,1.4-17.9,6.6-18.2c5.1-0.3,8.6,8.3,9.2,17.1
			c0.7,8.8-1.4,17.8-6.6,18.2l0,0C286.4,193.8,286.3,193.8,286.2,193.8z M284.2,162.3C284.2,162.3,284.2,162.3,284.2,162.3
			c-1.5,0.1-3.8,5.6-3.2,14.2c0.5,6.9,2.6,11.7,4.3,13.2c0.2,0.2,0.5,0.5,0.9,0.4l0,0c1.5-0.1,3.8-5.6,3.1-14.2
			C288.7,167.3,285.7,162.3,284.2,162.3z"/>
	</g>
	<g>
		<path class="st0" d="M255.7,194.2c-4.8,0.4-9.3-6.4-9.9-15.1c-0.6-8.7,2.7-16.1,7.6-16.4c4.8-0.4,9.3,6.4,9.9,15.1
			C264,186.5,260.6,193.9,255.7,194.2"/>
	</g>
	<g>
		<path d="M255.3,196.1c-2.9,0-5.6-1.8-7.7-5c-2.1-3.1-3.4-7.3-3.7-11.9c-0.3-4.5,0.3-8.9,1.9-12.3c1.7-3.8,4.4-5.9,7.4-6.2
			c3.1-0.2,6,1.5,8.2,5c2.1,3.1,3.4,7.3,3.7,11.9c0.7,9.9-3.4,18-9.3,18.4l0,0C255.7,196.1,255.5,196.1,255.3,196.1z M253.7,164.5
			c-0.1,0-0.1,0-0.2,0c-1.6,0.1-3.2,1.6-4.3,4c-1.3,2.8-1.9,6.5-1.6,10.4c0.3,3.9,1.4,7.5,3.1,10.1c1.5,2.2,3.3,3.3,4.8,3.3l0,0
			c3.3-0.2,6.5-6.2,5.9-14.4c-0.3-3.9-1.4-7.5-3.1-10.1C257,165.7,255.3,164.5,253.7,164.5z"/>
	</g>
	<g>
		<path class="st0" d="M271.8,195.7c-4.8,0.4-9.3-6.8-10-16c-0.7-9.2,2.7-16.9,7.5-17.3c4.9-0.4,9.3,6.8,10,16
			C280,187.6,276.6,195.3,271.8,195.7"/>
	</g>
	<g>
		<path d="M271.4,197.6c-5.8,0-10.8-7.6-11.5-17.7c-0.8-10.4,3.3-18.9,9.2-19.3c1.9-0.2,3.9,0.6,5.6,2.1c3.5,3,5.9,9,6.4,15.7
			c0.4,4.7-0.3,9.3-1.8,12.8c-1.7,3.9-4.3,6.2-7.4,6.5l0,0C271.8,197.6,271.6,197.6,271.4,197.6z M269.7,164.2c-0.1,0-0.1,0-0.2,0
			c-3.2,0.2-6.4,6.6-5.8,15.3c0.6,8.5,4.6,14.3,7.8,14.3c0.1,0,0.1,0,0.2,0l0,0c1.6-0.1,3.1-1.7,4.3-4.2c1.3-3,1.8-6.9,1.5-11.1
			c-0.4-5.6-2.4-10.8-5.1-13.1C271.4,164.6,270.5,164.2,269.7,164.2z"/>
	</g>
	<g>
		<path class="st0" d="M241.7,195.3c-3.6,0.3-7.1-6.6-7.8-15.3c-0.6-8.7,1.8-16,5.4-16.3c3.6-0.3,7.1,6.6,7.7,15.3
			C247.7,187.7,245.3,195,241.7,195.3"/>
	</g>
	<g>
		<path d="M241.5,197.2c-5.3,0-8.7-8.5-9.4-17c-0.6-8.6,1.7-17.9,7.1-18.3c2.5-0.2,5,1.7,6.8,5.3c1.6,3.1,2.6,7.3,2.9,11.7
			c0.7,8.8-1.6,17.9-7.1,18.3C241.7,197.2,241.6,197.2,241.5,197.2z M239.6,165.6C239.5,165.6,239.5,165.6,239.6,165.6
			c-1.9,0.1-4.4,5.9-3.7,14.3c0.6,8.3,3.8,13.6,5.7,13.6c0,0,0.1,0,0.1,0c1.9-0.1,4.3-5.9,3.7-14.3c-0.3-4-1.2-7.6-2.6-10.3
			C241.4,166.4,240.2,165.6,239.6,165.6z"/>
	</g>
	<g>
		<path class="st0" d="M426.4,188.9c-3.3,0.3-6.6-6.6-7.2-15.3c-0.6-8.7,1.5-16,4.9-16.2c3.3-0.2,6.5,6.6,7.2,15.3
			C431.9,181.4,429.8,188.6,426.4,188.9"/>
	</g>
	<g>
		<path d="M426.3,190.8c-0.9,0-2-0.3-3.3-1.3c-2.9-2.5-5.1-8.6-5.6-15.7c-0.7-8.8,1.4-17.9,6.6-18.2c0.1,0,0.2,0,0.3,0
			c5,0,8.2,8.5,8.9,17.1c0.7,8.8-1.4,17.8-6.6,18.2C426.5,190.7,426.4,190.8,426.3,190.8z M424.3,159.2
			C424.3,159.2,424.3,159.2,424.3,159.2c-1.5,0.1-3.8,5.6-3.2,14.2c0.5,6.9,2.6,11.7,4.3,13.2c0.2,0.2,0.5,0.2,0.9,0.4
			c1.5-0.1,3.8-5.6,3.1-14.2C428.7,163.7,425.5,159.2,424.3,159.2z"/>
	</g>
	<g>
		<path class="st0" d="M395.8,191.2c-4.8,0.4-9.3-6.4-9.9-15.1c-0.6-8.7,2.7-16.1,7.6-16.4c4.8-0.4,9.3,6.4,9.9,15.1
			C404,183.4,400.6,190.8,395.8,191.2"/>
	</g>
	<g>
		<path d="M395.4,193c-5.7,0-10.7-7.3-11.4-16.9c-0.3-4.5,0.3-8.9,1.9-12.3c1.7-3.8,4.4-5.9,7.4-6.2c3-0.3,6,1.5,8.3,5
			c2.1,3.1,3.4,7.3,3.7,11.9c0.7,9.9-3.4,18-9.3,18.4l0,0C395.7,193,395.6,193,395.4,193z M393.8,161.5c-0.1,0-0.1,0-0.2,0
			c-1.6,0.1-3.2,1.6-4.3,4c-1.3,2.8-1.9,6.5-1.6,10.4c0.6,8,4.5,13.4,7.7,13.4c0.1,0,0.1,0,0.2,0l0,0c3.3-0.2,6.5-6.2,5.9-14.4
			c-0.3-3.9-1.4-7.5-3.1-10.1C397,162.7,395.3,161.5,393.8,161.5z"/>
	</g>
	<g>
		<path class="st0" d="M411.8,192.6c-4.8,0.4-9.3-6.8-10-16c-0.7-9.2,2.7-16.9,7.5-17.3c4.8-0.4,9.3,6.8,10,16
			C420.1,184.5,416.7,192.2,411.8,192.6"/>
	</g>
	<g>
		<path d="M411.5,194.5c-5.8,0-10.8-7.6-11.5-17.7c-0.4-4.7,0.3-9.3,1.8-12.9c1.7-3.9,4.3-6.2,7.4-6.5c3-0.2,6,1.6,8.3,5.3
			c2,3.3,3.4,7.7,3.7,12.4c0.4,4.7-0.3,9.3-1.8,12.8c-1.7,3.9-4.3,6.2-7.4,6.5l0,0C411.8,194.5,411.7,194.5,411.5,194.5z
			 M409.7,161.2c-0.1,0-0.1,0-0.2,0c-1.6,0.1-3.1,1.7-4.3,4.2c-1.3,3-1.8,6.9-1.5,11.1c0.6,8.5,4.6,14.3,7.8,14.3c0.1,0,0.1,0,0.2,0
			l0,0c1.6-0.1,3.1-1.7,4.3-4.2c1.3-3,1.8-6.9,1.5-11.1c-0.3-4.2-1.4-8-3.2-10.7C412.9,162.4,411.2,161.2,409.7,161.2z"/>
	</g>
	<g>
		<path class="st0" d="M381.7,192.2c-3.6,0.3-7.1-6.6-7.8-15.3c-0.6-8.7,1.8-16,5.4-16.3c3.6-0.3,7.1,6.6,7.7,15.3
			C387.8,184.7,385.4,191.9,381.7,192.2"/>
	</g>
	<g>
		<path d="M381.5,194.1c-5.3,0-8.7-8.5-9.4-17c-0.6-8.6,1.7-17.9,7.2-18.3c1.4-0.1,2.7,0.4,4,1.5c3,2.6,5.3,8.6,5.8,15.6
			c0.7,8.8-1.6,17.9-7.1,18.3l0,0C381.8,194.1,381.6,194.1,381.5,194.1z M379.6,162.5C379.6,162.5,379.6,162.5,379.6,162.5
			c-1.9,0.1-4.4,5.9-3.8,14.3c0.6,8.3,3.8,13.6,5.7,13.6c0,0,0.1,0,0.1,0l0,0c1.9-0.1,4.3-5.9,3.7-14.3c-0.5-6.7-2.7-11.4-4.5-13
			C380.5,162.8,380,162.5,379.6,162.5z"/>
	</g>
	<g>
		<path class="st3" d="M133,106.3c0,7.9-6.4,14.4-14.4,14.4c-7.9,0-14.4-6.4-14.4-14.4c0-7.9,6.5-14.4,14.4-14.4
			C126.5,91.9,133,98.4,133,106.3"/>
	</g>
	<g>
		<path d="M118.6,122.6c-9,0-16.3-7.3-16.3-16.3S109.6,90,118.6,90c9,0,16.3,7.3,16.3,16.3S127.5,122.6,118.6,122.6z M118.6,93.8
			c-6.9,0-12.5,5.6-12.5,12.5c0,6.9,5.6,12.5,12.5,12.5c6.9,0,12.5-5.6,12.5-12.5C131.1,99.4,125.5,93.8,118.6,93.8z"/>
	</g>
	<g>
		<path class="st4" d="M178.4,99.1c0,4-3.2,7.2-7.2,7.2c-4,0-7.2-3.2-7.2-7.2c0-4,3.2-7.2,7.2-7.2C175.2,91.9,178.4,95.1,178.4,99.1
			"/>
	</g>
	<g>
		<path class="st4" d="M203.9,118.9c0,4-3.2,7.2-7.2,7.2c-4,0-7.2-3.2-7.2-7.2c0-4,3.2-7.2,7.2-7.2
			C200.7,111.8,203.9,115,203.9,118.9"/>
	</g>
	<g>
		<path class="st3" d="M382.4,117.2c0,6.4-5.2,11.6-11.6,11.6c-6.4,0-11.6-5.2-11.6-11.6c0-6.4,5.2-11.6,11.6-11.6
			C377.2,105.6,382.4,110.8,382.4,117.2"/>
	</g>
	<g>
		<path d="M370.8,130.7c-7.4,0-13.5-6.1-13.5-13.5c0-7.4,6.1-13.5,13.5-13.5s13.5,6.1,13.5,13.5
			C384.3,124.7,378.2,130.7,370.8,130.7z M370.8,107.5c-5.4,0-9.7,4.4-9.7,9.8c0,5.4,4.4,9.7,9.7,9.7c5.4,0,9.8-4.4,9.8-9.7
			C380.5,111.9,376.1,107.5,370.8,107.5z"/>
	</g>
	<g>
		<path class="st3" d="M143.3,638.4c0.4-7.9,7.2-14,15.1-13.6c7.9,0.4,14,7.2,13.6,15.1c-0.4,7.9-7.2,14-15.1,13.6
			C148.9,653.1,142.8,646.4,143.3,638.4"/>
	</g>
	<g>
		<path d="M157.6,655.5c-0.3,0-0.6,0-0.9,0c-4.3-0.2-8.3-2.2-11.2-5.4c-2.9-3.2-4.4-7.4-4.1-11.7c0.2-4.3,2.1-8.3,5.4-11.2
			c3.2-2.9,7.3-4.4,11.7-4.1c8.9,0.5,15.8,8.1,15.4,17.1C173.4,648.7,166.2,655.5,157.6,655.5z M157.6,626.7c-3.1,0-6,1.1-8.3,3.2
			c-2.5,2.2-4,5.3-4.1,8.6l0,0c-0.2,3.3,0.9,6.5,3.2,9c2.2,2.5,5.3,4,8.6,4.1c6.8,0.4,12.8-4.9,13.2-11.8
			c0.4-6.9-4.9-12.8-11.8-13.1C158.1,626.7,157.8,626.7,157.6,626.7z"/>
	</g>
	<g>
		<path class="st4" d="M97.6,626.7c0.2-3.9,3.6-7,7.6-6.8c4,0.2,7,3.6,6.8,7.6c-0.2,3.9-3.6,7-7.5,6.8
			C100.5,634,97.4,630.7,97.6,626.7"/>
	</g>
	<g>
		<path class="st4" d="M75.4,606.5c0.2-4,3.6-7,7.6-6.8c3.9,0.2,7,3.6,6.8,7.6c-0.2,4-3.6,7-7.6,6.8
			C78.3,613.9,75.2,610.5,75.4,606.5"/>
	</g>
	<g>
		<path class="st4" d="M304.5,122.9c2.6,1.3,3.6,4.5,2.3,7.1c-1.3,2.6-4.5,3.6-7.1,2.3c-2.6-1.3-3.6-4.5-2.3-7.1
			C298.7,122.6,301.9,121.6,304.5,122.9"/>
	</g>
	<g>
		<path class="st4" d="M330,108.9c2.6,1.3,3.6,4.5,2.3,7.1c-1.3,2.6-4.5,3.6-7.1,2.3c-2.6-1.3-3.6-4.5-2.3-7.1
			C324.2,108.6,327.4,107.6,330,108.9"/>
	</g>
	<g>
		<path class="st5" d="M320.8,287.7v114.2c0,0,25.7,15.3,57.5,0V287.7C378.3,287.7,343.3,269.1,320.8,287.7"/>
	</g>
	<g>
		<path class="st5" d="M393.3,242c0,11.6-19.6,21-43.8,21c-24.2,0-43.8-9.4-43.8-21c0-11.6,19.6-21,43.8-21
			C373.7,221,393.3,230.4,393.3,242"/>
	</g>
	<g>
		<path class="st6" d="M888.1,347.1c0,38.7-52.6,70-117.6,70c-64.9,0-117.6-31.4-117.6-70c0-38.7,52.6-70,117.6-70
			C835.5,277,888.1,308.4,888.1,347.1"/>
	</g>
	<g>
		<rect x="758.1" y="323.4" class="st7" width="25" height="47.5"/>
	</g>
</g>
<g>
	<path d="M481.5,233.9c-0.1,0.7-0.2,1.2-0.2,1.6c0,1.2,0.5,2.2,1.6,3c1.1,0.8,2.4,1.2,4,1.2c1.3,0,2.5-0.2,3.6-0.6
		c1.2-0.4,2.9-1.3,5.1-2.6l0.5,0.6c-4.1,3.1-8.1,4.7-11.8,4.7c-2.5,0-4.4-0.6-5.7-1.8c-1.3-1.2-1.9-2.6-1.9-4c0-2,0.8-4,2.4-6
		c1.6-2.1,3.6-3.7,6-4.8c2.4-1.2,4.9-1.7,7.5-1.7c1.8,0,3.2,0.3,4.1,0.9c0.9,0.6,1.3,1.3,1.3,2c0,1.1-0.6,2.1-1.7,3.2
		c-1.5,1.3-3.7,2.4-6.7,3.2C487.8,233.2,485.1,233.6,481.5,233.9z M481.7,233c2.6-0.2,4.7-0.6,6.3-1.2c2.1-0.7,3.8-1.6,4.8-2.6
		c1.1-1,1.6-2,1.6-2.9c0-0.5-0.2-1-0.7-1.3c-0.5-0.3-1.1-0.5-2-0.5c-1.8,0-3.7,0.7-5.6,2.1C484.1,228,482.7,230.1,481.7,233z"/>
	<path d="M527.9,213.2l-9,23.4c-0.5,1.3-0.7,2.1-0.7,2.5c0,0.1,0.1,0.2,0.2,0.4c0.2,0.1,0.3,0.2,0.5,0.2c0.2,0,0.5-0.1,0.8-0.2
		c0.6-0.3,1.6-1.1,3-2.4l0.9,0.4c-1.3,1.3-2.5,2.4-3.8,3.2c-1.3,0.8-2.5,1.2-3.6,1.2c-0.6,0-1.1-0.2-1.5-0.5
		c-0.4-0.3-0.6-0.8-0.6-1.4c0-0.8,0.3-1.8,0.8-3l1-2.5c-2.5,3-4.8,5-6.9,6.2c-1.4,0.8-2.8,1.2-4.1,1.2c-1.3,0-2.5-0.4-3.5-1.3
		c-1-0.9-1.5-2.1-1.5-3.6c0-2,0.8-4.1,2.5-6.3c1.7-2.2,3.8-4,6.6-5.4c2.1-1.1,4.1-1.7,5.9-1.7c0.9,0,1.7,0.1,2.4,0.4
		c0.7,0.3,1.4,0.8,2,1.5l2.6-6.9c0.2-0.5,0.3-0.9,0.5-1.2c0.2-0.5,0.3-1,0.3-1.3c0-0.3-0.1-0.5-0.4-0.7c-0.4-0.2-0.8-0.3-1.4-0.3
		c-0.4,0-1,0.1-2,0.2v-0.7L527.9,213.2z M518.2,227.3c0-0.9-0.3-1.5-1-2c-0.6-0.5-1.5-0.8-2.4-0.8c-2.2,0-4.5,1.4-6.9,4.1
		c-2.4,2.7-3.6,5.4-3.6,7.9c0,1,0.3,1.8,0.9,2.3c0.6,0.5,1.3,0.8,2.1,0.8c1.8,0,4.1-1.5,6.8-4.5
		C516.8,232.1,518.2,229.5,518.2,227.3z"/>
	<path d="M550.9,223.9l-4.5,11.8c-0.7,1.8-1,2.9-1,3.3c0,0.2,0.1,0.4,0.2,0.5c0.1,0.1,0.3,0.2,0.5,0.2c0.3,0,0.6-0.1,1-0.3
		s1.3-1,2.7-2.4l0.8,0.5c-1.4,1.6-2.8,2.9-4.3,3.6c-1,0.5-1.9,0.7-2.8,0.7c-0.7,0-1.2-0.1-1.6-0.4c-0.4-0.3-0.6-0.7-0.6-1.1
		c0-0.5,0.1-1.1,0.3-1.8c0.3-1,1.1-3.1,2.4-6.4c-3,3.7-5.4,6.2-7.4,7.6c-2,1.4-3.8,2.1-5.5,2.1c-0.8,0-1.5-0.2-2-0.6
		c-0.6-0.4-0.8-1-0.8-1.6c0-1,0.4-2.5,1.1-4.6l2.3-6.1c0.5-1.5,0.8-2.4,0.8-2.7c0-0.1-0.1-0.3-0.2-0.4c-0.1-0.1-0.3-0.2-0.5-0.2
		c-0.4,0-0.7,0.1-1.1,0.3c-0.4,0.2-1.2,0.9-2.5,2.2l-0.8-0.4c1.3-1.5,2.7-2.7,4.2-3.4c1.1-0.6,2.1-0.9,3.1-0.9
		c0.7,0,1.2,0.2,1.6,0.5c0.4,0.3,0.6,0.7,0.6,1.2c0,0.7-0.4,2-1,3.8l-2.5,6.4c-0.7,1.8-1,2.9-1,3.3c0,0.2,0.1,0.4,0.3,0.6
		c0.2,0.2,0.5,0.2,0.9,0.2c0.6,0,1.3-0.2,2.2-0.7c0.9-0.4,2.2-1.4,3.7-2.9c1.5-1.5,2.8-2.9,3.8-4.2c1-1.3,2.1-3.4,3.2-6.3l0.6-1.5
		H550.9z"/>
	<path d="M573.1,237.1c-1.8,1.6-3.7,2.9-5.5,3.6c-1.9,0.8-3.8,1.2-5.9,1.2c-2.5,0-4.4-0.5-5.8-1.6c-1.4-1-2.1-2.5-2.1-4.3
		c0-2,0.7-4,2.2-6c1.5-2,3.5-3.6,6-4.8c2.5-1.2,5-1.8,7.4-1.8c1.9,0,3.3,0.3,4.3,0.9c0.9,0.6,1.4,1.3,1.4,2.2c0,0.8-0.3,1.5-1,2.1
		c-0.5,0.5-1.1,0.7-1.8,0.7c-0.5,0-1-0.1-1.3-0.4c-0.4-0.3-0.5-0.6-0.5-1c0-0.2,0.1-0.5,0.2-0.7s0.4-0.5,0.8-0.8
		c0.4-0.3,0.7-0.5,0.7-0.6s0.1-0.3,0.1-0.4c0-0.3-0.2-0.5-0.5-0.7c-0.5-0.3-1.2-0.4-2.1-0.4c-1.7,0-3.4,0.5-5.1,1.4
		c-1.7,0.9-3.1,2.2-4.3,3.9c-1.4,2-2.1,4.1-2.1,6.1c0,1.3,0.5,2.4,1.5,3.2c1,0.8,2.4,1.2,4.1,1.2c1.3,0,2.7-0.3,4-0.8
		c1.3-0.5,2.8-1.4,4.4-2.8L573.1,237.1z"/>
	<path d="M601.3,223.5l-5.1,13.4l-0.6,1.8c0,0.2-0.1,0.3-0.1,0.4c0,0.2,0.1,0.4,0.3,0.6c0.1,0.1,0.3,0.2,0.5,0.2
		c0.2,0,0.5-0.1,0.9-0.3c0.7-0.4,1.6-1.2,2.7-2.4l0.9,0.5c-1.2,1.4-2.4,2.4-3.7,3.1c-1.3,0.7-2.5,1.1-3.5,1.1
		c-0.7,0-1.3-0.1-1.7-0.4s-0.6-0.7-0.6-1.2c0-0.7,0.2-1.5,0.6-2.6l0.6-1.5c-2.3,2.3-4.4,3.9-6.3,4.8c-1.4,0.6-2.7,1-4.1,1
		c-1.3,0-2.4-0.4-3.3-1.2c-0.9-0.8-1.4-1.9-1.4-3.3c0-2.1,0.8-4.3,2.5-6.7c1.6-2.3,3.8-4.2,6.3-5.6c2-1.1,3.9-1.7,5.6-1.7
		c1.1,0,2,0.2,2.7,0.6c0.7,0.4,1.2,1.1,1.6,2.1l0.9-2.3L601.3,223.5z M592,224.5c-1.1,0-2.3,0.4-3.5,1.2c-1.8,1.1-3.4,2.8-4.8,5
		c-1.4,2.2-2.1,4.2-2.1,6c0,0.9,0.3,1.6,0.9,2.1c0.6,0.5,1.3,0.8,2.1,0.8c1.9,0,3.9-1.1,6.2-3.2c3-2.8,4.5-5.7,4.5-8.7
		c0-1.1-0.3-1.9-0.9-2.4C593.8,224.7,593,224.5,592,224.5z"/>
	<path d="M623.6,237.1c-1.8,1.6-3.7,2.9-5.5,3.6c-1.9,0.8-3.8,1.2-5.9,1.2c-2.5,0-4.4-0.5-5.8-1.6c-1.4-1-2.1-2.5-2.1-4.3
		c0-2,0.7-4,2.2-6c1.5-2,3.5-3.6,6-4.8c2.5-1.2,5-1.8,7.4-1.8c1.9,0,3.3,0.3,4.3,0.9c0.9,0.6,1.4,1.3,1.4,2.2c0,0.8-0.3,1.5-1,2.1
		c-0.5,0.5-1.1,0.7-1.8,0.7c-0.5,0-1-0.1-1.3-0.4c-0.4-0.3-0.5-0.6-0.5-1c0-0.2,0.1-0.5,0.2-0.7s0.4-0.5,0.8-0.8
		c0.4-0.3,0.7-0.5,0.7-0.6c0.1-0.1,0.1-0.3,0.1-0.4c0-0.3-0.2-0.5-0.5-0.7c-0.5-0.3-1.2-0.4-2.1-0.4c-1.7,0-3.4,0.5-5.1,1.4
		c-1.7,0.9-3.1,2.2-4.3,3.9c-1.4,2-2.1,4.1-2.1,6.1c0,1.3,0.5,2.4,1.5,3.2c1,0.8,2.4,1.2,4.1,1.2c1.3,0,2.7-0.3,4-0.8
		c1.3-0.5,2.8-1.4,4.4-2.8L623.6,237.1z M614.7,240.8l-1.2,1.5c1,0.2,1.8,0.5,2.4,1c0.6,0.5,0.8,1.1,0.8,1.9c0,0.9-0.5,1.6-1.5,2.3
		c-1.3,0.8-2.9,1.3-4.6,1.3c-1,0-2.2-0.1-3.7-0.4l0.3-0.6c0.9,0.1,1.6,0.2,2.2,0.2c1.1,0,2-0.2,2.6-0.6c0.6-0.4,0.9-0.9,0.9-1.4
		c0-0.5-0.2-0.9-0.5-1.1c-0.5-0.3-1.2-0.5-2.2-0.5l2.9-3.5H614.7z"/>
	<path d="M651.8,223.5l-5.1,13.4l-0.6,1.8c0,0.2-0.1,0.3-0.1,0.4c0,0.2,0.1,0.4,0.3,0.6c0.1,0.1,0.3,0.2,0.5,0.2
		c0.2,0,0.5-0.1,0.9-0.3c0.7-0.4,1.6-1.2,2.7-2.4l0.9,0.5c-1.2,1.4-2.4,2.4-3.7,3.1c-1.3,0.7-2.5,1.1-3.5,1.1
		c-0.7,0-1.3-0.1-1.7-0.4s-0.6-0.7-0.6-1.2c0-0.7,0.2-1.5,0.6-2.6l0.6-1.5c-2.3,2.3-4.4,3.9-6.3,4.8c-1.4,0.6-2.7,1-4.1,1
		c-1.3,0-2.4-0.4-3.3-1.2c-0.9-0.8-1.4-1.9-1.4-3.3c0-2.1,0.8-4.3,2.5-6.7c1.6-2.3,3.8-4.2,6.3-5.6c2-1.1,3.9-1.7,5.6-1.7
		c1.1,0,2,0.2,2.7,0.6c0.7,0.4,1.2,1.1,1.6,2.1l0.9-2.3L651.8,223.5z M642.5,224.5c-1.1,0-2.3,0.4-3.5,1.2c-1.8,1.1-3.4,2.8-4.8,5
		s-2.1,4.2-2.1,6c0,0.9,0.3,1.6,0.9,2.1c0.6,0.5,1.3,0.8,2.1,0.8c1.9,0,3.9-1.1,6.2-3.2c3-2.8,4.5-5.7,4.5-8.7
		c0-1.1-0.3-1.9-0.9-2.4C644.3,224.7,643.5,224.5,642.5,224.5z M652.2,214.4h0.8c0,1.7-0.5,3-1.4,3.9c-1,0.9-2.1,1.3-3.4,1.3
		c-1.3,0-2.7-0.4-4.4-1.2c-1.7-0.8-2.7-1.3-3.1-1.4c-0.3-0.1-0.7-0.2-1-0.2c-0.6,0-1.1,0.2-1.5,0.5c-0.4,0.3-0.7,1.1-1,2.2h-0.8
		c0.1-1.9,0.7-3.2,1.6-4c0.9-0.8,2-1.2,3.4-1.2c1.3,0,2.8,0.5,4.6,1.4c1.8,0.9,3.1,1.4,3.8,1.4c0.6,0,1.1-0.2,1.5-0.5
		C651.7,216.2,652,215.4,652.2,214.4z"/>
	<path d="M678.2,229.7c0,2-0.7,4-2.1,5.9c-1.4,1.9-3.3,3.5-5.8,4.6c-2.5,1.1-4.9,1.7-7.2,1.7c-2.4,0-4.3-0.6-5.8-1.7
		c-1.5-1.2-2.3-2.6-2.3-4.5c0-1.9,0.7-3.9,2.2-5.9c1.5-2,3.4-3.5,5.9-4.6c2.5-1.1,4.8-1.7,7.1-1.7c2.3,0,4.2,0.6,5.7,1.7
		C677.4,226.3,678.2,227.8,678.2,229.7z M673.8,228.3c0-1.2-0.4-2.2-1.2-2.8c-0.8-0.7-1.8-1-3.1-1c-2.6,0-4.9,1.4-7.1,4.2
		c-2.2,2.8-3.2,5.6-3.2,8.3c0,1.3,0.4,2.2,1.3,2.9c0.8,0.7,1.9,1,3.2,1c2.5,0,4.8-1.4,6.9-4.1C672.8,234,673.8,231.2,673.8,228.3z"
		/>
	<path d="M705.9,223.5l-5.2,13.9c-0.3,0.9-0.5,1.5-0.5,1.7c0,0.2,0.1,0.4,0.2,0.5c0.2,0.1,0.4,0.2,0.6,0.2c0.3,0,0.6-0.1,0.9-0.3
		c1-0.6,2-1.4,3-2.5l0.9,0.5c-1.2,1.4-2.6,2.5-4.2,3.5c-1.2,0.7-2.3,1-3.4,1c-0.7,0-1.3-0.2-1.8-0.5c-0.5-0.3-0.7-0.7-0.7-1.2
		c0-0.5,0.2-1.3,0.7-2.4l3.4-8.9c0.5-1.4,0.8-2.4,0.8-2.7c0-0.3-0.1-0.5-0.4-0.7c-0.3-0.2-0.6-0.3-1.1-0.3c-0.4,0-1.2,0.1-2.4,0.2
		v-0.8L705.9,223.5z M705.5,215.6c0.7,0,1.4,0.2,1.9,0.6s0.7,0.9,0.7,1.4s-0.3,1-0.8,1.4c-0.5,0.4-1.1,0.6-1.8,0.6
		c-0.7,0-1.3-0.2-1.8-0.6c-0.5-0.4-0.8-0.9-0.8-1.4s0.2-1,0.8-1.4C704.2,215.8,704.8,215.6,705.5,215.6z"/>
	<path d="M720.2,223.5l-3.5,9c3.2-3.7,5.7-6.1,7.5-7.3c1.7-1.2,3.4-1.7,5-1.7c0.9,0,1.6,0.2,2.1,0.7c0.6,0.4,0.8,1,0.8,1.7
		c0,0.8-0.2,1.9-0.7,3.2l-3.2,8.3c-0.4,1-0.5,1.6-0.5,1.8c0,0.2,0.1,0.3,0.2,0.5c0.1,0.1,0.3,0.2,0.4,0.2c0.2,0,0.4-0.1,0.7-0.2
		c0.9-0.6,1.9-1.4,3.1-2.5l0.8,0.4c-1.6,1.8-3.2,3-4.6,3.8c-1,0.5-1.9,0.8-2.7,0.8c-0.6,0-1.2-0.1-1.5-0.4c-0.4-0.3-0.6-0.7-0.6-1.2
		c0-0.6,0.3-1.7,0.9-3.3l3-8c0.4-1,0.6-1.8,0.6-2.3c0-0.3-0.1-0.5-0.3-0.6c-0.2-0.2-0.5-0.2-0.8-0.2c-0.5,0-1.1,0.2-1.8,0.5
		c-1.3,0.6-2.6,1.6-4,2.9c-1.4,1.4-2.9,3.1-4.4,5.2c-0.8,1.1-1.5,2.4-2,3.7l-1.3,3.3h-3.9l4.8-12.4c0.6-1.5,0.9-2.4,0.9-2.7
		c0-0.3-0.2-0.6-0.5-0.8c-0.3-0.2-0.7-0.3-1.1-0.3c-0.2,0-0.6,0-1.1,0.1l-1,0.1l-0.2-0.7L720.2,223.5z"/>
	<path d="M751,223.9l-0.5,1.3h-3.8l-2.9,8.7c-1.3,3.8-2.6,6.8-3.8,8.9c-1.8,2.9-3.8,5-5.9,6.1c-1.6,0.9-3.2,1.3-4.8,1.3
		c-1.1,0-1.9-0.2-2.7-0.7c-0.5-0.3-0.8-0.8-0.8-1.3c0-0.4,0.2-0.8,0.7-1.1c0.4-0.3,1-0.5,1.6-0.5c0.5,0,0.9,0.1,1.2,0.3
		c0.3,0.2,0.5,0.5,0.5,0.8s-0.2,0.6-0.5,0.8c-0.3,0.2-0.4,0.3-0.4,0.4c0,0.1,0.1,0.2,0.2,0.3c0.2,0.1,0.4,0.1,0.7,0.1
		c0.8,0,1.5-0.2,2.4-0.5c0.8-0.4,1.6-0.9,2.2-1.6c0.6-0.7,1.3-1.7,1.8-3.1c0.2-0.6,0.9-2.4,1.9-5.5l4.5-13.4h-4.5l0.4-1.3
		c1.5,0,2.5-0.1,3-0.2c0.6-0.2,1.1-0.4,1.6-0.9c0.5-0.4,1.1-1.2,1.9-2.4c1-1.6,2-2.8,3-3.7c1.3-1.2,2.6-2.1,4.1-2.7
		c1.4-0.6,2.8-0.9,4-0.9c1.3,0,2.4,0.3,3.2,0.8c0.8,0.5,1.2,1.1,1.2,1.6c0,0.5-0.2,0.9-0.6,1.2c-0.4,0.3-0.9,0.5-1.5,0.5
		c-0.5,0-1-0.1-1.3-0.4c-0.4-0.2-0.5-0.5-0.5-0.9c0-0.2,0.1-0.5,0.3-0.8c0.2-0.3,0.3-0.5,0.3-0.6c0-0.2-0.1-0.3-0.2-0.4
		c-0.2-0.1-0.5-0.2-1-0.2c-1.1,0-2.1,0.3-3,0.8c-1.2,0.7-2.2,1.8-3.2,3.3c-0.5,0.8-1.3,2.7-2.6,5.8H751z"/>
	<path d="M775.1,223.5l-5.1,13.4l-0.6,1.8c0,0.2-0.1,0.3-0.1,0.4c0,0.2,0.1,0.4,0.3,0.6c0.1,0.1,0.3,0.2,0.5,0.2
		c0.2,0,0.5-0.1,0.9-0.3c0.7-0.4,1.6-1.2,2.7-2.4l0.9,0.5c-1.2,1.4-2.4,2.4-3.7,3.1c-1.3,0.7-2.5,1.1-3.5,1.1
		c-0.7,0-1.3-0.1-1.7-0.4s-0.6-0.7-0.6-1.2c0-0.7,0.2-1.5,0.6-2.6l0.6-1.5c-2.3,2.3-4.4,3.9-6.3,4.8c-1.4,0.6-2.7,1-4.1,1
		c-1.3,0-2.4-0.4-3.3-1.2c-0.9-0.8-1.4-1.9-1.4-3.3c0-2.1,0.8-4.3,2.5-6.7c1.6-2.3,3.8-4.2,6.3-5.6c2-1.1,3.9-1.7,5.6-1.7
		c1.1,0,2,0.2,2.7,0.6c0.7,0.4,1.2,1.1,1.6,2.1l0.9-2.3L775.1,223.5z M765.8,224.5c-1.1,0-2.3,0.4-3.5,1.2c-1.8,1.1-3.4,2.8-4.8,5
		c-1.4,2.2-2.1,4.2-2.1,6c0,0.9,0.3,1.6,0.9,2.1c0.6,0.5,1.3,0.8,2.1,0.8c1.9,0,3.9-1.1,6.2-3.2c3-2.8,4.5-5.7,4.5-8.7
		c0-1.1-0.3-1.9-0.9-2.4C767.6,224.7,766.8,224.5,765.8,224.5z"/>
	<path d="M788.6,223.5l-3.5,9c3.2-3.7,5.7-6.1,7.5-7.3c1.7-1.2,3.4-1.7,5-1.7c0.9,0,1.6,0.2,2.1,0.7c0.6,0.4,0.8,1,0.8,1.7
		c0,0.8-0.2,1.9-0.7,3.2l-3.2,8.3c-0.4,1-0.5,1.6-0.5,1.8c0,0.2,0.1,0.3,0.2,0.5c0.1,0.1,0.3,0.2,0.4,0.2c0.2,0,0.4-0.1,0.7-0.2
		c0.9-0.6,1.9-1.4,3.1-2.5l0.8,0.4c-1.6,1.8-3.2,3-4.6,3.8c-1,0.5-1.9,0.8-2.7,0.8c-0.6,0-1.2-0.1-1.5-0.4c-0.4-0.3-0.6-0.7-0.6-1.2
		c0-0.6,0.3-1.7,0.9-3.3l3-8c0.4-1,0.6-1.8,0.6-2.3c0-0.3-0.1-0.5-0.3-0.6c-0.2-0.2-0.5-0.2-0.8-0.2c-0.5,0-1.1,0.2-1.8,0.5
		c-1.3,0.6-2.6,1.6-4,2.9c-1.4,1.4-2.9,3.1-4.4,5.2c-0.8,1.1-1.5,2.4-2,3.7l-1.3,3.3h-3.9l4.8-12.4c0.6-1.5,0.9-2.4,0.9-2.7
		c0-0.3-0.2-0.6-0.5-0.8c-0.3-0.2-0.7-0.3-1.1-0.3c-0.2,0-0.6,0-1.1,0.1l-1,0.1l-0.2-0.7L788.6,223.5z"/>
	<path d="M817.4,218.5l-2.1,5.4h4.1l-0.5,1.3H815l-4.5,11.7c-0.5,1.3-0.7,2.1-0.7,2.4c0,0.2,0.1,0.4,0.2,0.5
		c0.1,0.1,0.3,0.2,0.5,0.2c0.4,0,1-0.2,1.7-0.7c0.4-0.3,1.4-1.1,2.8-2.4l0.9,0.5c-1.6,1.8-3.1,3-4.5,3.7c-1,0.5-2,0.7-3,0.7
		c-0.8,0-1.4-0.2-1.9-0.5c-0.5-0.4-0.7-0.8-0.7-1.4c0-0.7,0.3-1.8,0.8-3.2l4.4-11.5h-4l0.2-0.8c1.9-0.4,3.5-1,4.8-1.8
		c1.3-0.8,2.7-2.1,4.3-4.1H817.4z"/>
	<path d="M830.7,223.5l-5.2,13.9c-0.3,0.9-0.5,1.5-0.5,1.7c0,0.2,0.1,0.4,0.2,0.5c0.2,0.1,0.4,0.2,0.6,0.2c0.3,0,0.6-0.1,0.9-0.3
		c1-0.6,2-1.4,3-2.5l0.9,0.5c-1.2,1.4-2.6,2.5-4.2,3.5c-1.2,0.7-2.3,1-3.4,1c-0.7,0-1.3-0.2-1.7-0.5c-0.5-0.3-0.7-0.7-0.7-1.2
		c0-0.5,0.2-1.3,0.7-2.4l3.4-8.9c0.5-1.4,0.8-2.4,0.8-2.7c0-0.3-0.1-0.5-0.4-0.7c-0.3-0.2-0.6-0.3-1.1-0.3c-0.4,0-1.2,0.1-2.4,0.2
		v-0.8L830.7,223.5z M830.4,215.6c0.7,0,1.3,0.2,1.8,0.6s0.7,0.9,0.7,1.4s-0.2,1-0.8,1.4c-0.5,0.4-1.1,0.6-1.8,0.6
		c-0.7,0-1.3-0.2-1.8-0.6c-0.5-0.4-0.8-0.9-0.8-1.4s0.2-1,0.8-1.4S829.6,215.6,830.4,215.6z"/>
	<path d="M849.1,213.2l-8.9,23.6c-0.4,1.2-0.6,1.9-0.6,2.2c0,0.2,0.1,0.4,0.2,0.5c0.2,0.1,0.4,0.2,0.6,0.2c0.4,0,0.7-0.1,1.1-0.3
		c0.9-0.5,1.8-1.4,2.8-2.5l0.8,0.6c-1.7,1.8-3.2,3-4.6,3.7c-1,0.5-2,0.7-2.9,0.7c-0.6,0-1.2-0.2-1.6-0.5c-0.4-0.3-0.7-0.7-0.7-1.2
		c0-0.5,0.3-1.5,0.8-2.9l7.1-18.6c0.6-1.5,0.9-2.4,0.9-2.6c0-0.3-0.2-0.6-0.5-0.8s-0.9-0.3-1.5-0.3c-0.4,0-1,0.1-1.8,0.2v-0.7
		L849.1,213.2z"/>
</g>
<g>
	<g>
		<path class="st4" d="M322.3,180.1v-3.8c25.7,0,46.6-21.3,46.6-47.5h3.8C372.6,157.1,350.1,180.1,322.3,180.1z"/>
	</g>
	<g>
		<path class="st4" d="M196.7,181.4c-44.1,0-80-27.2-80-60.7h3.8c0,31.4,34.2,56.9,76.3,56.9V181.4z"/>
	</g>
	<g>
		<path class="st4" d="M153.4,627.1h-3.8c0-36.1-41.6-65.4-92.7-65.4v-3.8C110.1,557.9,153.4,588.9,153.4,627.1z"/>
	</g>
	<g>
		
			<rect x="170.8" y="112" transform="matrix(0.9997 -2.343106e-02 2.343106e-02 0.9997 -2.6209 4.135)" class="st4" width="8.6" height="3.8"/>
	</g>
	<g>
		<polygon class="st4" points="179.7,122.5 177.6,113.9 181.3,113 183.4,121.6 		"/>
	</g>
	<g>
		
			<rect x="101.4" y="608.3" transform="matrix(0.9922 -0.125 0.125 0.9922 -75.4432 17.9924)" class="st4" width="8.6" height="3.8"/>
	</g>
	<g>
		
			<rect x="98.1" y="602.5" transform="matrix(0.9419 -0.336 0.336 0.9419 -198.1143 68.8688)" class="st4" width="3.8" height="8.9"/>
	</g>
	<g>
		
			<rect x="310.7" y="126.1" transform="matrix(0.2425 -0.9701 0.9701 0.2425 113.4651 401.3116)" class="st4" width="6.1" height="3.7"/>
	</g>
	<g>
		
			<rect x="315.5" y="121.9" transform="matrix(2.667264e-02 -0.9996 0.9996 2.667264e-02 183.9474 439.0029)" class="st4" width="3.8" height="6.3"/>
	</g>
</g>
<g>
	<path class="st8" d="M526.2,471.3c4.4-5.1,8.6-7.7,12.6-7.7c4.5,0,7.8,1.7,9.9,5.1c1.8-1.6,3.8-2.8,5.9-3.6c2.2-0.8,4.5-1.2,7-1.2
		c5.7,0,9.6,2.9,11.7,8.6c0.4,1.2,1,5.1,1.9,11.9c0.8,4.7,1.9,12.7,3.2,23.7c0.1,1.7-0.5,3-1.7,4.1c-1.3,1.1-2.7,1.6-4.4,1.6
		c-3.4,0-5.3-1.7-5.9-5c-0.5-3-1.1-7.3-1.6-12.8c-0.6-6-1.1-10.3-1.5-12.8c-0.8-5.2-1.8-7.9-3-7.9c-0.7,0-2.2,0.7-4.6,2
		c-2.4,1.3-4.2,2.5-5.3,3.5c0,3.3,0.4,8.1,1.2,14.4c0.8,6.4,1.2,11.2,1.2,14.4c0,1.7-0.6,3.1-1.7,4.2c-1.1,1.1-2.6,1.7-4.4,1.7
		c-1.8,0-3.2-0.6-4.4-1.7s-1.7-2.5-1.7-4.2c0-3.3-0.4-8.3-1.1-14.8c-0.7-6.5-1.1-11.4-1.1-14.7c0-1.9-0.2-3.4-0.5-4.5
		c-3.4,2-6.8,5.2-10.2,9.8c-0.1,0.2-0.4,0.5-0.7,0.9c-0.1,5.9-0.2,10.6-0.2,13.9c0,0.8,0,1.9-0.1,3.3c-0.1,1.4-0.1,2.4-0.1,3.1
		c0,1.6-0.6,2.8-1.9,3.7c-1.2,0.9-2.6,1.3-4.4,1.3c-2.5,0-4.2-1.1-5.1-3.3c-0.6-1.5-0.9-3.8-0.9-7v-16.4c0-1.5-0.1-3.6-0.2-6.4
		c-0.1-2.8-0.2-5-0.2-6.4c0-2.6,0.5-5,1.4-7.1c1.1-2.6,2.8-4,4.8-4c1.6,0,3.1,0.6,4.4,1.9c1.3,1.3,1.9,2.7,1.9,4.2
		C526.6,466.9,526.4,468.1,526.2,471.3z"/>
	<path class="st8" d="M622.7,512.6c-1.3,0-3.5-1.3-6.4-3.9c-2.7,1.3-5.1,2.3-7.1,2.9c-2.1,0.6-3.8,1-5.2,1c-7.1,0-12.4-1.9-15.9-5.7
		c-3.5-3.8-5.3-9.4-5.3-17c0-7.1,2.6-13.1,7.8-18.1c5.2-5,11.5-7.5,18.7-7.5c2.8,0,6,0.8,9.7,2.3c4.4,1.9,6.6,4.1,6.6,6.6
		c0,1-0.3,2-1,2.7c-0.3,1.2-0.5,2.6-0.7,4.4c-0.2,1.7-0.2,3.8-0.2,6.2c0,5.5,0.4,9.5,1.2,12c0.1,0.2,0.8,1.8,2,4.5
		c1.1,2.5,1.7,3.9,1.7,4.3c0,1.5-0.6,2.8-1.8,3.8C625.6,512.1,624.2,512.6,622.7,512.6z M611.8,482.9c0-0.9,0.1-2,0.2-3.2
		c0.1-1.2,0.3-2.6,0.6-4.1c-0.6-0.3-1.1-0.5-1.6-0.6c-0.5-0.1-0.8-0.2-1.2-0.2c-4,0-7.5,1.6-10.5,4.7c-3,3.1-4.5,6.7-4.5,10.8
		c0,3.9,0.7,6.9,2.1,8.9c1.4,2,3.5,3,6.3,3c1.8,0,3.5-0.3,5.2-0.9c1.6-0.6,3.2-1.5,4.6-2.7C612.2,491.6,611.8,486.4,611.8,482.9z"/>
	<path class="st8" d="M665.8,474.8c-0.6,0-1.3,0-2.2-0.1c-0.8,0-1.6-0.1-2.2-0.1c-1.2,0-2.6,0.1-4.2,0.4c0.5,11.8,0.8,19.6,0.8,23.2
		c0,0.4,0,1.1,0,2.1c0,1,0,1.9,0,2.5c0,6.7-2.1,10.1-6.4,10.1c-1.6,0-3-0.5-4.2-1.5c-1.3-1.1-1.9-2.4-1.9-4c0-1.1,0-2.6,0.1-4.7
		c0.1-2.1,0.1-3.7,0.1-4.7c0-3.5-0.3-11.1-0.8-22.8c-1.8-0.1-4.6-0.3-8.2-0.7c-3.7-0.4-5.5-2.3-5.5-5.7c0-1.6,0.6-3,1.7-4.2
		c1.1-1.1,2.6-1.7,4.3-1.7c1.1,0,3.6,0.2,7.5,0.5c0-0.9-0.1-2.5-0.2-4.7c-0.1-1.9-0.2-3.3-0.2-4.4c0-1.6,0.6-3,1.8-4.1
		c1.2-1.1,2.7-1.6,4.4-1.6c4.3,0,6.5,3.6,6.5,10.9l-0.1,3.6c1.8-0.3,3.3-0.4,4.4-0.4c3.4,0,5.7,0.2,6.9,0.7c2.3,0.8,3.5,2.6,3.5,5.4
		c0,1.7-0.6,3.1-1.7,4.2C669,474.2,667.6,474.8,665.8,474.8z"/>
	<path class="st8" d="M699.4,512.2c-7,0-12.7-1.7-17.2-5c-4.9-3.7-7.4-8.9-7.4-15.6c0-7.4,1.9-13.7,5.8-18.8
		c4.3-5.7,10.2-8.5,17.5-8.5c5.1,0,9.3,0.8,12.7,2.5c4.4,2.2,6.6,5.5,6.6,10.1c0,3.2-1.8,6.1-5.4,8.6c-1.6,1.1-4.9,2.8-9.9,5
		l-14.8,6.6c1.4,1.5,3.1,2.7,5.1,3.4s4.3,1.1,6.9,1.1c3.9,0,7.3-0.8,10-2.4c2.4-1.4,4.4-2.2,5.8-2.2c3,0,4.6,1.5,4.6,4.4
		c0,3.3-2.4,6.1-7.3,8.2C708.3,511.3,704,512.2,699.4,512.2z M698.2,474.9c-2.7,0-5.1,0.9-7,2.7s-3.5,4.5-4.7,8.2
		c3.3-1.4,6.6-2.9,9.9-4.3c4-1.8,7.1-3.4,9.5-5C703.9,475.4,701.3,474.9,698.2,474.9z"/>
	<path class="st8" d="M764.4,478.5c-0.3,4.5-2.3,6.7-6.1,6.7c-3.7,0-5.5-1.9-5.5-5.7l-0.2-4.4c-6.6,1.1-11.3,4.4-14.2,10.2l0,22.1
		c0,1.7-0.6,3.1-1.7,4.1c-1.1,1.1-2.6,1.7-4.4,1.7c-1.8,0-3.2-0.6-4.2-1.8c-0.9-1.1-1.4-2.4-1.4-4v-28.8c0-0.9,0-2.3,0.1-4.1
		c0.1-1.8,0.1-3.2,0.1-4.1c0-1.6,0.5-3,1.5-4.1c1-1.1,2.4-1.6,4.2-1.6c3.3,0,5.2,1.7,5.8,5c5.2-3.9,10.9-5.8,17.3-5.8
		c5.9,0,8.8,3.9,8.8,11.7C764.4,477,764.4,478,764.4,478.5z"/>
	<path class="st8" d="M805.5,513.3c-3.6,0-5.6-1.8-6-5.3c-0.4-3-0.8-6.1-1.2-9.1c-0.4-3.2-0.7-6.3-0.7-9.1c0-0.8,0.1-2.1,0.2-3.9
		s0.2-3.2,0.2-3.9c0-0.2,0-0.7,0.1-1.6c0.1-0.9,0.1-1.5,0.1-2.1c0-2.4-0.6-3.6-1.8-3.6c-2.5,0-5,1.6-7.4,4.8
		c-2.4,3.2-4.3,7.3-5.7,12.3c-0.1,1-0.2,2.3-0.4,4c-0.2,1.4-0.2,2.7-0.2,4c0,0.8-0.1,2.1-0.3,3.8c-0.2,1.7-0.3,3-0.3,3.8
		c0,1.7-0.6,3.1-1.7,4.3s-2.6,1.7-4.4,1.7s-3.2-0.6-4.4-1.7c-1.1-1.1-1.7-2.5-1.7-4.2c0-0.8-0.1-2.1-0.3-3.8c-0.2-1.7-0.3-3-0.3-3.8
		c0-2.9,0.2-6.8,0.6-11.9c0.4-5.1,0.6-9.1,0.6-12c0-0.9-0.1-2.2-0.2-4c-0.1-1.8-0.2-3.1-0.2-4c0-1.7,0.6-3,1.8-4.1
		c1.2-1.1,2.6-1.6,4.4-1.6c3.8,0,5.9,2.3,6.2,6.9l0,0.5c4.3-4.3,8.8-6.5,13.5-6.5c5.5,0,9.4,2.3,11.5,6.9c1.4,3.1,2.1,7.8,2.1,13.9
		v3.1c0,1.3,0,2.3,0,2.9c0,2.3,0.3,5.2,0.9,8.8c0.6,3.6,1,6.5,1,8.8c0,1.6-0.6,3-1.8,4.1C808.6,512.8,807.2,513.3,805.5,513.3z"/>
	<path class="st8" d="M855.9,512.6c-1.3,0-3.5-1.3-6.4-3.9c-2.7,1.3-5.1,2.3-7.1,2.9c-2.1,0.6-3.8,1-5.2,1c-7.1,0-12.4-1.9-15.9-5.7
		c-3.5-3.8-5.3-9.4-5.3-17c0-7.1,2.6-13.1,7.8-18.1c5.2-5,11.5-7.5,18.7-7.5c2.8,0,6,0.8,9.7,2.3c4.4,1.9,6.6,4.1,6.6,6.6
		c0,1-0.3,2-1,2.7c-0.3,1.2-0.5,2.6-0.7,4.4c-0.2,1.7-0.2,3.8-0.2,6.2c0,5.5,0.4,9.5,1.2,12c0.1,0.2,0.8,1.8,2,4.5
		c1.1,2.5,1.7,3.9,1.7,4.3c0,1.5-0.6,2.8-1.8,3.8C858.8,512.1,857.4,512.6,855.9,512.6z M845,482.9c0-0.9,0.1-2,0.2-3.2
		c0.1-1.2,0.3-2.6,0.6-4.1c-0.6-0.3-1.1-0.5-1.6-0.6c-0.5-0.1-0.8-0.2-1.2-0.2c-4,0-7.5,1.6-10.5,4.7c-3,3.1-4.5,6.7-4.5,10.8
		c0,3.9,0.7,6.9,2.1,8.9c1.4,2,3.5,3,6.3,3c1.8,0,3.5-0.3,5.2-0.9c1.6-0.6,3.2-1.5,4.6-2.7C845.4,491.6,845,486.4,845,482.9z"/>
	<path class="st8" d="M881.5,503.7c0,5.6-2,8.4-6.1,8.4c-1.8,0-3.2-0.6-4.4-1.7s-1.7-2.6-1.7-4.3v-60.8c0-1.7,0.6-3.1,1.8-4.2
		c1.2-1,2.6-1.5,4.4-1.5c1.7,0,3.2,0.5,4.3,1.6c1.1,1,1.7,2.4,1.7,4.1V503.7z"/>
</g>
<g>
	<g>
		<path class="st8" d="M14.6,558L164,702.8C164,702.8-41.8,761,14.6,558"/>
	</g>
	<g>
		<path d="M104.7,714.4c-27.6,0-58.7-5.7-79.7-26.6c-26.2-26-30.9-70-14-130.8l1.7-6.1l158.6,153.8l-6.3,1.8
			C163,707,136.2,714.4,104.7,714.4z M16.6,565.1C2.4,619.9,7,659.3,30.3,682.5c35.4,35.2,104.8,23.2,126.3,18.3L16.6,565.1z"/>
	</g>
	<g>
		<path class="st5" d="M19,561.5l45,43.4c0,0-28.1,20.6-28.1,74.5C35.9,706.8-13.4,619.9,19,561.5"/>
	</g>
	<g>
		<path d="M33.7,686.5c-2.5,0-4.9-2.7-5.7-3.7c-11.5-13.4-36.5-75.6-10.6-122.2l1.2-2.1l48.4,46.7l-1.8,1.3
			c-0.3,0.2-27.3,20.8-27.3,73c0,1.4,0,5.8-2.9,6.8C34.5,686.4,34.1,686.5,33.7,686.5z M19.5,564.6c-18.8,36.7-6.2,85.8,6.5,108.5
			c4.2,7.6,7,9.5,7.7,9.6c0-0.1,0.4-0.9,0.4-3.3c0-47.1,20.9-69.1,27.2-74.6L19.5,564.6z"/>
	</g>
	<g>
		<path class="st5" d="M109.9,650.4l42.7,46.6c0,0-60.9,27.9-119.8-14.9C32.8,682.2,103.9,682.3,109.9,650.4"/>
	</g>
	<g>
		<path d="M105.4,707.7c-21.6,0-47.9-5.3-73.7-24.1l-4.7-3.4l5.8,0c0,0,0,0,0,0c1.1,0,69.7-0.3,75.3-30.2l0.7-3.7l46.9,51.3
			l-2.3,1.1C153,698.9,133.2,707.7,105.4,707.7z M38.6,683.9c49.3,32.6,99.4,16.7,110.8,12.4l-38.5-42.1
			C102.3,679,55.3,683.2,38.6,683.9z"/>
	</g>
	<g>
		<path class="st8" d="M152.6,697c0,0,32.5,10,52.5,52.5C205.1,749.6,157.6,744.6,152.6,697"/>
	</g>
	<g>
		<path d="M211.3,754l-6.6-0.7c-0.5-0.1-50.6-5.9-55.9-55.9l-0.6-5.7l5.4,1.7c1.4,0.4,34.3,11,54.8,54.5L211.3,754z M157.3,703.1
			c5.9,28.3,29,38,40.9,41.2C184.6,719.4,166.5,707.7,157.3,703.1z"/>
	</g>
	<g>
		
			<rect x="82.8" y="43" transform="matrix(0.7305 -0.6829 0.6829 0.7305 -6.7393 80.5441)" class="st2" width="31.7" height="11.6"/>
	</g>
	<g>
		<path d="M91,66.5L80.5,55.3l25.9-24.2l10.5,11.2L91,66.5z M85.8,55.5l5.4,5.8l20.5-19.1l-5.4-5.8L85.8,55.5z"/>
	</g>
	<g>
		<path class="st0" d="M381.8,79.4c-0.6-27.8,23.9-10.6,30,2.5c5.6,12,14.3,42.7-5,42.5"/>
	</g>
	<g>
		<path d="M407,126.3c-0.1,0-0.1,0-0.2,0l0-3.8c0.1,0,0.1,0,0.2,0c3.6,0,6.1-1.2,7.7-3.7c4.9-7.6,0.3-25.7-4.6-36.1
			c-3.8-8.2-15.2-17.6-21.4-16.2c-4.4,1-5.1,7.5-5,12.8l-3.8,0.1c-0.3-12.1,4.2-15.7,7.9-16.6c9-2.1,21.5,9.4,25.7,18.2
			c3.5,7.5,11.1,29.3,4.4,39.8C415.6,124.5,411.9,126.3,407,126.3z"/>
	</g>
	<g>
		<path d="M300,74.6c-9.7,0-16.9-4.9-20.8-14.3c-2.5-6.1-3.3-13.4-3-20.7c-3.4-0.1-6.8-0.5-9.8-1.7c-6.3-2.6-16.2-10.9-11.5-36.3
			l3.7,0.7c-3.2,17.2,0,28.3,9.2,32.2c2.6,1.1,5.5,1.6,8.6,1.4c1.4-13.5,6.9-26.3,13.6-30.6c2.7-1.7,8-3.6,13.8,2.7
			c4.6,5,4.7,11.4,0.4,17.5c-4.8,6.8-14.5,12.5-24.3,13.8c-0.4,7,0.3,14,2.6,19.6c4.1,10,12.1,13.8,23.7,11.3l0.8,3.7
			C304.7,74.3,302.2,74.6,300,74.6z M295.4,7.3c-1.1,0-2.2,0.4-3.3,1.1c-5.6,3.6-10.3,14.9-11.7,27c8.4-1.4,16.8-6.4,20.8-12.2
			c2.3-3.3,4.2-8.1-0.1-12.8C299.2,8.4,297.3,7.3,295.4,7.3z"/>
	</g>
	<g>
		<path d="M297.8,74.6c-14.1,0-19.7-7.5-21.8-12.4c-1.6-3.7-2.2-7.8-2-12c-4.2,0.1-8.3-0.6-11.8-2c-5.4-2.2-13.8-8.5-9.4-25.4l3.6,1
			c-2.8,10.8-0.4,17.8,7.2,20.9c3.2,1.3,6.9,1.9,10.8,1.7c1.3-7.9,5.3-15.4,10.4-19.4c5.3-4.1,11.4-4.2,16.7-0.2
			c3.9,2.9,4.8,6.8,2.7,10.6c-3.5,6.1-15,11.4-26.4,12.5c-0.2,3.7,0.2,7.4,1.6,10.7c3.5,8.2,12.2,11.6,25,9.6L305,74
			C302.4,74.4,300,74.6,297.8,74.6z M293.3,27.7c-2.5,0-4.6,1.1-6.2,2.4c-4.2,3.2-7.6,9.5-8.8,16.1c10.1-1.2,20-6,22.6-10.5
			c0.8-1.4,1.4-3.4-1.7-5.7C297.2,28.3,295.1,27.7,293.3,27.7z"/>
	</g>
	<g>
		<path class="st6" d="M295.2,303c-1.6-14.9-15-23.9-31.8-23.9c-8.7,0-22.1,1.2-30.9,5.3c-6.3,1.7-12.8,4.5-19.3,9.1
			c0,0-42.4-27.5-78.3-6.6c-3.1,1.8-6.2,4-9.2,6.6c0,0-13.3-14.5-31.9-14.5c0,0-0.1,0.1-0.2,0.1c-0.2,0-0.3-0.1-0.5-0.1
			c-16.6,0-30,13.6-30,30.3v74.4h0.1c0,0.4-0.1,0.8-0.1,1.2c0,16.7,13.4,30.3,30,30.3c16.6,0,30-13.5,30-30.3c0-0.4-0.1-0.8-0.1-1.2
			h0.1v-67.7c0,0,14.7-13.4,25,0.2V385c0,16.7,14.1,30.3,30,30.3s30-13.5,30-30.2v-68.9c0,0,13.6-12,22.8,1.6l-0.3,67.4h0.3
			c0,16.7,14.5,30.3,32.4,30.3c17.9,0,32.4-13.5,32.4-30.3v-81.4C295.7,303.6,295.5,303.4,295.2,303"/>
	</g>
	<g>
		<path class="st6" d="M638.9,303c-1.6-14.9-15-23.9-31.8-23.9c-8.7,0-22.1,1.2-30.9,5.3c-6.3,1.7-12.8,4.5-19.3,9.1
			c0,0-42.4-27.5-78.3-6.6c-3.1,1.8-6.2,4-9.2,6.6c0,0-13.3-14.5-31.9-14.5c0,0-0.1,0.1-0.2,0.1c-0.2,0-0.3-0.1-0.5-0.1
			c-16.6,0-30,13.6-30,30.3v74.4h0.1c0,0.4-0.1,0.8-0.1,1.2c0,16.7,13.4,30.3,30,30.3c16.6,0,30-13.5,30-30.3c0-0.4-0.1-0.8-0.1-1.2
			h0.1v-67.7c0,0,14.7-13.4,25,0.2V385c0,16.7,14.1,30.3,30,30.3c15.9,0,30-13.5,30-30.2v-68.9c0,0,13.6-12,22.8,1.6l-0.3,67.4h0.3
			c0,16.7,14.5,30.3,32.4,30.3c17.9,0,32.4-13.5,32.4-30.3v-81.4C639.5,303.6,639.2,303.4,638.9,303"/>
	</g>
</g>
</svg>
