<?xml version="1.0" encoding="utf-8"?>
<!-- Generator: Adobe Illustrator 19.2.0, SVG Export Plug-In . SVG Version: 6.00 Build 0)  -->
<svg version="1.1" id="Layer_1" xmlns="http://www.w3.org/2000/svg" xmlns:xlink="http://www.w3.org/1999/xlink" x="0px" y="0px"
	 viewBox="0 0 50 50" style="enable-background:new 0 0 50 50;" xml:space="preserve">
<style type="text/css">
	.st0{fill:#163847;}
</style>
<g>
	<path class="st0" d="M15.6,23.7h1.7c1.1,3.2,4.2,5.6,7.8,5.6c2.6,0,4.9-1.2,6.4-3.1h2.1c0.4,0,0.7-0.3,0.7-0.7v-1.8h0.3
		c0.8,0,1.4-0.6,1.4-1.4v-3.6c0-0.7-0.5-1.3-1.1-1.4c-0.5-2.1-1.6-3.9-3.4-5.3c-1.8-1.3-4-2.1-6.5-2.1c-5,0-8.9,2.9-9.9,7.4
		c-0.6,0.2-1,0.7-1,1.4v3.6C14.2,23.1,14.8,23.7,15.6,23.7L15.6,23.7z M15.6,22.3v-3.6h1.5c-0.2,0.7-0.3,1.5-0.3,2.4
		c0,0.4,0,0.8,0.1,1.2H15.6z M25,27.9c-3.7,0-6.8-3-6.8-6.8s3-6.8,6.8-6.8c3.7,0,6.8,3,6.8,6.8c0,1.4-0.4,2.6-1.1,3.7h-6.1
		c-0.4,0-0.7,0.3-0.7,0.7c0,0.4,0.3,0.7,0.7,0.7h4.8C28.2,27.3,26.7,27.9,25,27.9L25,27.9z M32.8,24.8h-0.5c0.2-0.3,0.3-0.7,0.4-1.1
		h0V24.8z M34.6,22.3h-1.4c0.1-0.4,0.1-0.8,0.1-1.2c0-0.8-0.1-1.6-0.3-2.4h1.7V22.3z M25,11.4c4.1,0,7.4,2.3,8.4,5.9h-1.1
		c-1.4-2.6-4.1-4.4-7.3-4.4c-3.2,0-5.9,1.8-7.3,4.4h-1.1C17.6,13.8,20.9,11.4,25,11.4L25,11.4z M25,11.4"/>
	<path class="st0" d="M32.4,29.6H17.6c-2.3,0-4.1,1.9-4.1,4.1v5.5c0,0.4,0.3,0.7,0.7,0.7c0.4,0,0.7-0.3,0.7-0.7v-5.5
		c0-1.5,1.2-2.7,2.7-2.7h14.8c1.5,0,2.7,1.2,2.7,2.7v5.5c0,0.4,0.3,0.7,0.7,0.7c0.4,0,0.7-0.3,0.7-0.7v-5.5
		C36.5,31.5,34.7,29.6,32.4,29.6L32.4,29.6z M32.4,29.6"/>
</g>
</svg>
