<?xml version="1.0" encoding="utf-8"?>
<!-- Generator: Adobe Illustrator 19.2.0, SVG Export Plug-In . SVG Version: 6.00 Build 0)  -->
<svg version="1.1" id="Layer_1" xmlns="http://www.w3.org/2000/svg" xmlns:xlink="http://www.w3.org/1999/xlink" x="0px" y="0px"
	 viewBox="0 0 50 50" style="enable-background:new 0 0 50 50;" xml:space="preserve">
<style type="text/css">
	.st0{fill:#163847;}
</style>
<g>
	<path class="st0" d="M10.7,10.1c0,0.3-0.3,0.6-0.6,0.6c-0.3,0-0.6-0.3-0.6-0.6s0.3-0.6,0.6-0.6C10.4,9.5,10.7,9.8,10.7,10.1
		L10.7,10.1z M10.7,10.1"/>
	<path class="st0" d="M40.5,10.1c0,0.3-0.3,0.6-0.6,0.6s-0.6-0.3-0.6-0.6s0.3-0.6,0.6-0.6S40.5,9.8,40.5,10.1L40.5,10.1z M40.5,10.1
		"/>
	<path class="st0" d="M10.7,39.9c0,0.3-0.3,0.6-0.6,0.6c-0.3,0-0.6-0.3-0.6-0.6c0-0.3,0.3-0.6,0.6-0.6
		C10.4,39.3,10.7,39.6,10.7,39.9L10.7,39.9z M10.7,39.9"/>
	<path class="st0" d="M14.3,40.5c0,0.3-0.3,0.6-0.6,0.6c-0.3,0-0.6-0.3-0.6-0.6c0-0.3,0.3-0.6,0.6-0.6C14,39.9,14.3,40.2,14.3,40.5
		L14.3,40.5z M14.3,40.5"/>
	<path class="st0" d="M16.7,40.5c0,0.3-0.3,0.6-0.6,0.6c-0.3,0-0.6-0.3-0.6-0.6c0-0.3,0.3-0.6,0.6-0.6
		C16.4,39.9,16.7,40.2,16.7,40.5L16.7,40.5z M16.7,40.5"/>
	<path class="st0" d="M19,40.5c0,0.3-0.3,0.6-0.6,0.6c-0.3,0-0.6-0.3-0.6-0.6c0-0.3,0.3-0.6,0.6-0.6C18.8,39.9,19,40.2,19,40.5
		L19,40.5z M19,40.5"/>
	<path class="st0" d="M21.4,40.5c0,0.3-0.3,0.6-0.6,0.6c-0.3,0-0.6-0.3-0.6-0.6c0-0.3,0.3-0.6,0.6-0.6
		C21.2,39.9,21.4,40.2,21.4,40.5L21.4,40.5z M21.4,40.5"/>
	<path class="st0" d="M30.4,30.4c0,0.3-0.3,0.6-0.6,0.6c-0.3,0-0.6-0.3-0.6-0.6c0-0.3,0.3-0.6,0.6-0.6C30.1,29.8,30.4,30,30.4,30.4
		L30.4,30.4z M30.4,30.4"/>
	<path class="st0" d="M28,30.4c0,0.3-0.3,0.6-0.6,0.6c-0.3,0-0.6-0.3-0.6-0.6c0-0.3,0.3-0.6,0.6-0.6C27.7,29.8,28,30,28,30.4
		L28,30.4z M28,30.4"/>
	<path class="st0" d="M29.2,28.6c0,0.3-0.3,0.6-0.6,0.6c-0.3,0-0.6-0.3-0.6-0.6c0-0.3,0.3-0.6,0.6-0.6C28.9,28,29.2,28.2,29.2,28.6
		L29.2,28.6z M29.2,28.6"/>
	<path class="st0" d="M25.6,30.4c0,0.3-0.3,0.6-0.6,0.6s-0.6-0.3-0.6-0.6c0-0.3,0.3-0.6,0.6-0.6S25.6,30,25.6,30.4L25.6,30.4z
		 M25.6,30.4"/>
	<path class="st0" d="M23.2,30.4c0,0.3-0.3,0.6-0.6,0.6c-0.3,0-0.6-0.3-0.6-0.6c0-0.3,0.3-0.6,0.6-0.6C22.9,29.8,23.2,30,23.2,30.4
		L23.2,30.4z M23.2,30.4"/>
	<path class="st0" d="M26.8,28.6c0,0.3-0.3,0.6-0.6,0.6c-0.3,0-0.6-0.3-0.6-0.6c0-0.3,0.3-0.6,0.6-0.6C26.5,28,26.8,28.2,26.8,28.6
		L26.8,28.6z M26.8,28.6"/>
	<path class="st0" d="M24.4,28.6c0,0.3-0.3,0.6-0.6,0.6c-0.3,0-0.6-0.3-0.6-0.6c0-0.3,0.3-0.6,0.6-0.6C24.1,28,24.4,28.2,24.4,28.6
		L24.4,28.6z M24.4,28.6"/>
	<path class="st0" d="M20.8,30.4c0,0.3-0.3,0.6-0.6,0.6c-0.3,0-0.6-0.3-0.6-0.6c0-0.3,0.3-0.6,0.6-0.6C20.6,29.8,20.8,30,20.8,30.4
		L20.8,30.4z M20.8,30.4"/>
	<path class="st0" d="M22,28.6c0,0.3-0.3,0.6-0.6,0.6c-0.3,0-0.6-0.3-0.6-0.6c0-0.3,0.3-0.6,0.6-0.6C21.8,28,22,28.2,22,28.6
		L22,28.6z M22,28.6"/>
	<path class="st0" d="M30.4,26.8c0,0.3-0.3,0.6-0.6,0.6c-0.3,0-0.6-0.3-0.6-0.6c0-0.3,0.3-0.6,0.6-0.6
		C30.1,26.2,30.4,26.5,30.4,26.8L30.4,26.8z M30.4,26.8"/>
	<path class="st0" d="M28,26.8c0,0.3-0.3,0.6-0.6,0.6c-0.3,0-0.6-0.3-0.6-0.6c0-0.3,0.3-0.6,0.6-0.6C27.7,26.2,28,26.5,28,26.8
		L28,26.8z M28,26.8"/>
	<path class="st0" d="M29.2,25c0,0.3-0.3,0.6-0.6,0.6c-0.3,0-0.6-0.3-0.6-0.6c0-0.3,0.3-0.6,0.6-0.6C28.9,24.4,29.2,24.7,29.2,25
		L29.2,25z M29.2,25"/>
	<path class="st0" d="M25.6,26.8c0,0.3-0.3,0.6-0.6,0.6s-0.6-0.3-0.6-0.6c0-0.3,0.3-0.6,0.6-0.6S25.6,26.5,25.6,26.8L25.6,26.8z
		 M25.6,26.8"/>
	<path class="st0" d="M23.2,26.8c0,0.3-0.3,0.6-0.6,0.6c-0.3,0-0.6-0.3-0.6-0.6c0-0.3,0.3-0.6,0.6-0.6
		C22.9,26.2,23.2,26.5,23.2,26.8L23.2,26.8z M23.2,26.8"/>
	<path class="st0" d="M26.8,25c0,0.3-0.3,0.6-0.6,0.6c-0.3,0-0.6-0.3-0.6-0.6c0-0.3,0.3-0.6,0.6-0.6C26.5,24.4,26.8,24.7,26.8,25
		L26.8,25z M26.8,25"/>
	<path class="st0" d="M24.4,25c0,0.3-0.3,0.6-0.6,0.6c-0.3,0-0.6-0.3-0.6-0.6c0-0.3,0.3-0.6,0.6-0.6C24.1,24.4,24.4,24.7,24.4,25
		L24.4,25z M24.4,25"/>
	<path class="st0" d="M20.8,26.8c0,0.3-0.3,0.6-0.6,0.6c-0.3,0-0.6-0.3-0.6-0.6c0-0.3,0.3-0.6,0.6-0.6
		C20.6,26.2,20.8,26.5,20.8,26.8L20.8,26.8z M20.8,26.8"/>
	<path class="st0" d="M22,25c0,0.3-0.3,0.6-0.6,0.6c-0.3,0-0.6-0.3-0.6-0.6c0-0.3,0.3-0.6,0.6-0.6C21.8,24.4,22,24.7,22,25L22,25z
		 M22,25"/>
	<path class="st0" d="M30.4,23.2c0,0.3-0.3,0.6-0.6,0.6c-0.3,0-0.6-0.3-0.6-0.6c0-0.3,0.3-0.6,0.6-0.6
		C30.1,22.6,30.4,22.9,30.4,23.2L30.4,23.2z M30.4,23.2"/>
	<path class="st0" d="M28,23.2c0,0.3-0.3,0.6-0.6,0.6c-0.3,0-0.6-0.3-0.6-0.6c0-0.3,0.3-0.6,0.6-0.6C27.7,22.6,28,22.9,28,23.2
		L28,23.2z M28,23.2"/>
	<path class="st0" d="M29.2,21.4c0,0.3-0.3,0.6-0.6,0.6c-0.3,0-0.6-0.3-0.6-0.6c0-0.3,0.3-0.6,0.6-0.6
		C28.9,20.8,29.2,21.1,29.2,21.4L29.2,21.4z M29.2,21.4"/>
	<path class="st0" d="M25.6,23.2c0,0.3-0.3,0.6-0.6,0.6s-0.6-0.3-0.6-0.6c0-0.3,0.3-0.6,0.6-0.6S25.6,22.9,25.6,23.2L25.6,23.2z
		 M25.6,23.2"/>
	<path class="st0" d="M23.2,23.2c0,0.3-0.3,0.6-0.6,0.6c-0.3,0-0.6-0.3-0.6-0.6c0-0.3,0.3-0.6,0.6-0.6
		C22.9,22.6,23.2,22.9,23.2,23.2L23.2,23.2z M23.2,23.2"/>
	<path class="st0" d="M26.8,21.4c0,0.3-0.3,0.6-0.6,0.6c-0.3,0-0.6-0.3-0.6-0.6c0-0.3,0.3-0.6,0.6-0.6
		C26.5,20.8,26.8,21.1,26.8,21.4L26.8,21.4z M26.8,21.4"/>
	<path class="st0" d="M24.4,21.4c0,0.3-0.3,0.6-0.6,0.6c-0.3,0-0.6-0.3-0.6-0.6c0-0.3,0.3-0.6,0.6-0.6
		C24.1,20.8,24.4,21.1,24.4,21.4L24.4,21.4z M24.4,21.4"/>
	<path class="st0" d="M20.8,23.2c0,0.3-0.3,0.6-0.6,0.6c-0.3,0-0.6-0.3-0.6-0.6c0-0.3,0.3-0.6,0.6-0.6
		C20.6,22.6,20.8,22.9,20.8,23.2L20.8,23.2z M20.8,23.2"/>
	<path class="st0" d="M22,21.4c0,0.3-0.3,0.6-0.6,0.6c-0.3,0-0.6-0.3-0.6-0.6c0-0.3,0.3-0.6,0.6-0.6C21.8,20.8,22,21.1,22,21.4
		L22,21.4z M22,21.4"/>
	<path class="st0" d="M30.4,19.6c0,0.3-0.3,0.6-0.6,0.6c-0.3,0-0.6-0.3-0.6-0.6c0-0.3,0.3-0.6,0.6-0.6C30.1,19,30.4,19.3,30.4,19.6
		L30.4,19.6z M30.4,19.6"/>
	<path class="st0" d="M28,19.6c0,0.3-0.3,0.6-0.6,0.6c-0.3,0-0.6-0.3-0.6-0.6c0-0.3,0.3-0.6,0.6-0.6C27.7,19,28,19.3,28,19.6
		L28,19.6z M28,19.6"/>
	<path class="st0" d="M25.6,19.6c0,0.3-0.3,0.6-0.6,0.6s-0.6-0.3-0.6-0.6c0-0.3,0.3-0.6,0.6-0.6S25.6,19.3,25.6,19.6L25.6,19.6z
		 M25.6,19.6"/>
	<path class="st0" d="M23.2,19.6c0,0.3-0.3,0.6-0.6,0.6c-0.3,0-0.6-0.3-0.6-0.6c0-0.3,0.3-0.6,0.6-0.6C22.9,19,23.2,19.3,23.2,19.6
		L23.2,19.6z M23.2,19.6"/>
	<path class="st0" d="M20.8,19.6c0,0.3-0.3,0.6-0.6,0.6c-0.3,0-0.6-0.3-0.6-0.6c0-0.3,0.3-0.6,0.6-0.6C20.6,19,20.8,19.3,20.8,19.6
		L20.8,19.6z M20.8,19.6"/>
	<path class="st0" d="M40.5,39.9c0,0.3-0.3,0.6-0.6,0.6s-0.6-0.3-0.6-0.6c0-0.3,0.3-0.6,0.6-0.6S40.5,39.6,40.5,39.9L40.5,39.9z
		 M40.5,39.9"/>
	<path class="st0" d="M37.5,22c0.3,0,0.6-0.3,0.6-0.6c0-0.3-0.3-0.6-0.6-0.6h-1.2v-1.2h-2.4v-1c0-1.4-1.2-2.6-2.6-2.6h-1v-2.4h-1.2
		v-1.2c0-0.3-0.3-0.6-0.6-0.6c-0.3,0-0.6,0.3-0.6,0.6v1.2h-1.2v-1.2c0-0.3-0.3-0.6-0.6-0.6c-0.3,0-0.6,0.3-0.6,0.6v1.2h-1.2v-1.2
		c0-0.3-0.3-0.6-0.6-0.6c-0.3,0-0.6,0.3-0.6,0.6v1.2H22v-1.2c0-0.3-0.3-0.6-0.6-0.6c-0.3,0-0.6,0.3-0.6,0.6v1.2h-1.2v2.4h-1
		c-1.4,0-2.6,1.2-2.6,2.6v1h-2.4v1.2h-1.2c-0.3,0-0.6,0.3-0.6,0.6c0,0.3,0.3,0.6,0.6,0.6h1.2v1.2h-1.2c-0.3,0-0.6,0.3-0.6,0.6
		c0,0.3,0.3,0.6,0.6,0.6h1.2v1.2h-1.2c-0.3,0-0.6,0.3-0.6,0.6c0,0.3,0.3,0.6,0.6,0.6h1.2V28h-1.2c-0.3,0-0.6,0.3-0.6,0.6
		c0,0.3,0.3,0.6,0.6,0.6h1.2v1.2h2.4v1c0,1.4,1.2,2.6,2.6,2.6h1v2.4h1.2v1.2c0,0.3,0.3,0.6,0.6,0.6c0.3,0,0.6-0.3,0.6-0.6v-1.2h1.2
		v1.2c0,0.3,0.3,0.6,0.6,0.6c0.3,0,0.6-0.3,0.6-0.6v-1.2h1.2v1.2c0,0.3,0.3,0.6,0.6,0.6c0.3,0,0.6-0.3,0.6-0.6v-1.2H28v1.2
		c0,0.3,0.3,0.6,0.6,0.6c0.3,0,0.6-0.3,0.6-0.6v-1.2h1.2v-2.4h1c1.4,0,2.6-1.2,2.6-2.6v-1h2.4v-1.2h1.2c0.3,0,0.6-0.3,0.6-0.6
		c0-0.3-0.3-0.6-0.6-0.6h-1.2v-1.2h1.2c0.3,0,0.6-0.3,0.6-0.6c0-0.3-0.3-0.6-0.6-0.6h-1.2v-1.2h1.2c0.3,0,0.6-0.3,0.6-0.6
		c0-0.3-0.3-0.6-0.6-0.6h-1.2V22H37.5z M16.1,29.2h-1.2v-8.3h1.2V29.2z M20.8,14.9h8.3v1.2h-8.3V14.9z M29.2,35.1h-8.3v-1.2h8.3
		V35.1z M32.7,19.6v11.7c0,0.8-0.6,1.4-1.4,1.4H18.7c-0.8,0-1.4-0.6-1.4-1.4V18.7c0-0.8,0.6-1.4,1.4-1.4h12.7c0.8,0,1.4,0.6,1.4,1.4
		V19.6z M35.1,29.2h-1.2v-8.3h1.2V29.2z M35.1,29.2"/>
	<path class="st0" d="M10.1,29.2c0,0.3-0.3,0.6-0.6,0.6c-0.3,0-0.6-0.3-0.6-0.6c0-0.3,0.3-0.6,0.6-0.6C9.8,28.6,10.1,28.8,10.1,29.2
		L10.1,29.2z M10.1,29.2"/>
	<path class="st0" d="M10.1,31.6c0,0.3-0.3,0.6-0.6,0.6c-0.3,0-0.6-0.3-0.6-0.6c0-0.3,0.3-0.6,0.6-0.6C9.8,31,10.1,31.2,10.1,31.6
		L10.1,31.6z M10.1,31.6"/>
	<path class="st0" d="M10.1,33.9c0,0.3-0.3,0.6-0.6,0.6c-0.3,0-0.6-0.3-0.6-0.6c0-0.3,0.3-0.6,0.6-0.6C9.8,33.3,10.1,33.6,10.1,33.9
		L10.1,33.9z M10.1,33.9"/>
	<path class="st0" d="M10.1,36.3c0,0.3-0.3,0.6-0.6,0.6c-0.3,0-0.6-0.3-0.6-0.6c0-0.3,0.3-0.6,0.6-0.6C9.8,35.7,10.1,36,10.1,36.3
		L10.1,36.3z M10.1,36.3"/>
	<path class="st0" d="M39.6,7.1h-5.1v0.6c0,1-0.8,1.8-1.8,1.8c-1,0-1.8-0.8-1.8-1.8V7.1H10.4c-1.8,0-3.3,1.5-3.3,3.3v3.9h2.4v1.2
		H7.1v24.1c0,1.8,1.5,3.3,3.3,3.3H31v-0.6c0-1,0.8-1.8,1.8-1.8c1,0,1.8,0.8,1.8,1.8v0.6h5.1c1.8,0,3.3-1.5,3.3-3.3V10.4
		C42.9,8.6,41.4,7.1,39.6,7.1L39.6,7.1z M41.7,17.3h-1.2c-0.3,0-0.6,0.3-0.6,0.6c0,0.3,0.3,0.6,0.6,0.6h1.2V19h-1.2
		c-0.3,0-0.6,0.3-0.6,0.6c0,0.3,0.3,0.6,0.6,0.6h1.2v0.6h-1.2c-0.3,0-0.6,0.3-0.6,0.6c0,0.3,0.3,0.6,0.6,0.6h1.2v0.6h-1.2
		c-0.3,0-0.6,0.3-0.6,0.6c0,0.3,0.3,0.6,0.6,0.6h1.2v0.6h-1.2c-0.3,0-0.6,0.3-0.6,0.6c0,0.3,0.3,0.6,0.6,0.6h1.2v0.6h-1.2
		c-0.3,0-0.6,0.3-0.6,0.6c0,0.3,0.3,0.6,0.6,0.6h1.2V28h-1.2c-0.3,0-0.6,0.3-0.6,0.6c0,0.3,0.3,0.6,0.6,0.6h1.2v0.6h-1.2
		c-0.3,0-0.6,0.3-0.6,0.6c0,0.3,0.3,0.6,0.6,0.6h1.2v0.6h-1.2c-0.3,0-0.6,0.3-0.6,0.6c0,0.3,0.3,0.6,0.6,0.6h1.2v6.9
		c0,1.1-0.9,2.1-2.1,2.1h-3.9c-0.3-1.4-1.5-2.4-2.9-2.4c-1.4,0-2.6,1-2.9,2.4H10.4c-1.1,0-2.1-0.9-2.1-2.1V16.7h2.4v-3.6H8.3v-2.7
		c0-1.1,0.9-2.1,2.1-2.1h19.4c0.3,1.4,1.5,2.4,2.9,2.4c1.4,0,2.6-1,2.9-2.4h3.9c1.1,0,2.1,0.9,2.1,2.1V17.3z M41.7,17.3"/>
</g>
</svg>
