<?xml version="1.0" encoding="utf-8"?>
<!-- Generator: Adobe Illustrator 19.2.0, SVG Export Plug-In . SVG Version: 6.00 Build 0)  -->
<svg version="1.1" id="Layer_1" xmlns="http://www.w3.org/2000/svg" xmlns:xlink="http://www.w3.org/1999/xlink" x="0px" y="0px"
	 viewBox="0 0 50 50" style="enable-background:new 0 0 50 50;" xml:space="preserve">
<style type="text/css">
	.st0{fill:#163847;}
</style>
<g>
	<path class="st0" d="M42.6,35.4c-0.8,0-1.2,0.2-1.5,0.4c-0.3,0.1-0.5,0.3-1,0.3c-0.3,0-0.4,0-0.6-0.1l3.6-7.9
		c0.1-0.2,0.1-0.4,0-0.6c-0.1-0.2-0.3-0.3-0.5-0.3h-1.9v-9.4c0-0.3-0.3-0.6-0.6-0.6h-3.8c-0.3,0-0.6,0.3-0.6,0.6v9.4H30
		c-0.2,0-0.3,0.1-0.4,0.2l-2.3,2.3h-4.2v-5.4l8.2-6.7v3.9H30c-0.3,0-0.6,0.3-0.6,0.6v2.5c0,0.3,0.3,0.6,0.6,0.6h3.8
		c0.3,0,0.6-0.3,0.6-0.6v-2.5c0-0.3-0.3-0.6-0.6-0.6h-1.3v-4.9l0.4-0.3c0.2-0.2,0.3-0.5,0.1-0.8l-1-1.4c-0.2-0.3-0.5-0.3-0.8-0.2
		l-8.9,5.7h-3.6c-0.3,0-0.6,0.3-0.6,0.6v3.8c0,0.3,0.3,0.6,0.6,0.6h0.7v5.1h-2.6v-9.5c0-0.3-0.3-0.6-0.6-0.6h-1.3v-4.5h1.9
		c0.3,0,0.6-0.3,0.6-0.6c0-0.3-0.3-0.6-0.6-0.6h-1.9v-0.7c0-0.3-0.3-0.6-0.6-0.6c-0.3,0-0.6,0.3-0.6,0.6v0.7h-0.7
		c-0.3,0-0.6,0.3-0.6,0.6c0,0.3,0.3,0.6,0.6,0.6h0.7v4.5H8.7c-0.3,0-0.6,0.3-0.6,0.6v3.8c0,0.3,0.3,0.6,0.6,0.6H10v3.2H7.4
		c-0.2,0-0.4,0.1-0.5,0.2c-0.1,0.2-0.1,0.3-0.1,0.5l2.2,7.2c0,0-0.1,0-0.1-0.1c-0.3-0.2-0.8-0.4-1.5-0.4c-0.3,0-0.6,0.3-0.6,0.6
		c0,0.3,0.3,0.6,0.6,0.6c0.5,0,0.7,0.1,1,0.3c0.3,0.2,0.8,0.4,1.5,0.4c0,0,0,0,0,0c0,0,0,0,0,0c0.8,0,1.2-0.2,1.5-0.4
		c0.3-0.1,0.5-0.3,1-0.3c0.5,0,0.7,0.1,1,0.3c0.3,0.2,0.8,0.4,1.5,0.4c0.8,0,1.2-0.2,1.5-0.4c0.3-0.1,0.5-0.3,1-0.3s0.7,0.1,1,0.3
		c0.3,0.2,0.8,0.4,1.5,0.4c0.8,0,1.2-0.2,1.5-0.4c0.3-0.1,0.5-0.3,1-0.3s0.7,0.1,1,0.3c0.3,0.2,0.8,0.4,1.5,0.4
		c0.8,0,1.2-0.2,1.5-0.4c0.3-0.1,0.5-0.3,1-0.3c0.5,0,0.7,0.1,1,0.3c0.3,0.2,0.8,0.4,1.5,0.4c0.8,0,1.2-0.2,1.5-0.4
		c0.3-0.1,0.5-0.3,1-0.3c0.5,0,0.7,0.1,1,0.3c0.3,0.2,0.8,0.4,1.5,0.4c0.8,0,1.2-0.2,1.5-0.4c0.3-0.1,0.5-0.3,1-0.3
		c0.5,0,0.7,0.1,1,0.3c0.3,0.2,0.8,0.4,1.5,0.4c0.8,0,1.2-0.2,1.5-0.4c0.3-0.1,0.5-0.3,1-0.3c0.3,0,0.6-0.3,0.6-0.6
		C43.2,35.7,42.9,35.4,42.6,35.4L42.6,35.4z M33.2,24.1h-2.6v-1.3h2.6V24.1z M39.5,22.2h-2.6v-1.3h2.6V22.2z M36.9,23.4h2.6v1.3
		h-2.6V23.4z M36.9,18.4h2.6v1.3h-2.6V18.4z M36.9,25.9h2.6v1.3h-2.6V25.9z M31.4,15.3l0.4,0.5l-8.7,7v-2.2L31.4,15.3z M19.3,20.9
		h2.6v2.6h-2.6V20.9z M20.6,24.6h1.3v5.1h-1.3V24.6z M9.3,20.9h6.4v2.6H9.3V20.9z M11.2,24.6h4.5v5.1h-1.1L12.9,28
		c-0.1-0.1-0.3-0.2-0.4-0.2h-1.3V24.6z M36,35.8c-0.3,0.1-0.5,0.3-1,0.3c-0.5,0-0.7-0.1-1-0.3c-0.3-0.2-0.8-0.4-1.5-0.4
		c-0.8,0-1.2,0.2-1.5,0.4c-0.3,0.1-0.5,0.3-1,0.3c-0.5,0-0.7-0.1-1-0.3c-0.3-0.2-0.8-0.4-1.5-0.4c-0.8,0-1.2,0.2-1.5,0.4
		c-0.3,0.1-0.5,0.3-1,0.3c-0.5,0-0.7-0.1-1-0.3c-0.3-0.2-0.8-0.4-1.5-0.4c-0.8,0-1.2,0.2-1.5,0.4c-0.3,0.1-0.5,0.3-1,0.3
		c-0.5,0-0.7-0.1-1-0.3c-0.3-0.2-0.8-0.4-1.5-0.4c-0.8,0-1.2,0.2-1.5,0.4c-0.3,0.1-0.5,0.3-1,0.3c-0.5,0-0.7-0.1-1-0.3
		c-0.3-0.2-0.8-0.4-1.5-0.4c-0.8,0-1.2,0.2-1.5,0.4c-0.2,0.1-0.3,0.2-0.6,0.2L8.2,29h4l1.7,1.7c0.1,0.1,0.3,0.2,0.4,0.2h13.2
		c0.2,0,0.3-0.1,0.4-0.2l2.3-2.3h11.4l-3.3,7.1c-0.2-0.1-0.5-0.1-0.8-0.1C36.8,35.4,36.4,35.6,36,35.8L36,35.8z M36,35.8"/>
	<path class="st0" d="M13.7,22.8h0.6c0.3,0,0.6-0.3,0.6-0.6c0-0.3-0.3-0.6-0.6-0.6h-0.6c-0.3,0-0.6,0.3-0.6,0.6
		C13.1,22.5,13.4,22.8,13.7,22.8L13.7,22.8z M13.7,22.8"/>
	<path class="st0" d="M11.2,22.8c0.3,0,0.6-0.3,0.6-0.6c0-0.3-0.3-0.6-0.6-0.6h-0.6c-0.3,0-0.6,0.3-0.6,0.6c0,0.3,0.3,0.6,0.6,0.6
		H11.2z M11.2,22.8"/>
	<path class="st0" d="M16.2,32.3h-0.6c-0.3,0-0.6,0.3-0.6,0.6c0,0.3,0.3,0.6,0.6,0.6h0.6c0.3,0,0.6-0.3,0.6-0.6
		C16.8,32.5,16.5,32.3,16.2,32.3L16.2,32.3z M16.2,32.3"/>
	<path class="st0" d="M18.7,32.3h-0.6c-0.3,0-0.6,0.3-0.6,0.6c0,0.3,0.3,0.6,0.6,0.6h0.6c0.3,0,0.6-0.3,0.6-0.6
		C19.3,32.5,19.1,32.3,18.7,32.3L18.7,32.3z M18.7,32.3"/>
	<path class="st0" d="M21.2,32.3h-0.6c-0.3,0-0.6,0.3-0.6,0.6c0,0.3,0.3,0.6,0.6,0.6h0.6c0.3,0,0.6-0.3,0.6-0.6
		C21.8,32.5,21.6,32.3,21.2,32.3L21.2,32.3z M21.2,32.3"/>
	<path class="st0" d="M23.7,32.3h-0.6c-0.3,0-0.6,0.3-0.6,0.6c0,0.3,0.3,0.6,0.6,0.6h0.6c0.3,0,0.6-0.3,0.6-0.6
		C24.3,32.5,24.1,32.3,23.7,32.3L23.7,32.3z M23.7,32.3"/>
	<path class="st0" d="M26.3,32.3h-0.6c-0.3,0-0.6,0.3-0.6,0.6c0,0.3,0.3,0.6,0.6,0.6h0.6c0.3,0,0.6-0.3,0.6-0.6
		C26.8,32.5,26.6,32.3,26.3,32.3L26.3,32.3z M26.3,32.3"/>
</g>
</svg>
