<?xml version="1.0" encoding="utf-8"?>
<!-- Generator: Adobe Illustrator 19.2.0, SVG Export Plug-In . SVG Version: 6.00 Build 0)  -->
<svg version="1.1" id="Layer_1" xmlns="http://www.w3.org/2000/svg" xmlns:xlink="http://www.w3.org/1999/xlink" x="0px" y="0px"
	 viewBox="0 0 50 50" style="enable-background:new 0 0 50 50;" xml:space="preserve">
<style type="text/css">
	.st0{fill:#163847;}
</style>
<g>
	<path class="st0" d="M34.9,24.3c-0.4,0-0.7,0.3-0.7,0.7v4c0,5.1-4.2,9.3-9.3,9.3c-5.1,0-9.3-4.2-9.3-9.3v-4c0-0.4-0.3-0.7-0.7-0.7
		c-0.4,0-0.7,0.3-0.7,0.7v4c0,5.6,4.4,10.2,9.9,10.6v3.3H21c-0.4,0-0.7,0.3-0.7,0.7c0,0.4,0.3,0.7,0.7,0.7H29c0.4,0,0.7-0.3,0.7-0.7
		c0-0.4-0.3-0.7-0.7-0.7h-3.3v-3.3c5.5-0.3,9.9-4.9,9.9-10.6v-4C35.6,24.6,35.3,24.3,34.9,24.3L34.9,24.3z M34.9,24.3"/>
	<path class="st0" d="M25,36.3c4,0,7.3-3.3,7.3-7.3V13.1c0-4-3.3-7.3-7.3-7.3c-4,0-7.3,3.3-7.3,7.3V29C17.7,33,21,36.3,25,36.3
		L25,36.3z M20.7,9c0.1,0.1,0.2,0.1,0.4,0.1c0.4,0,0.7-0.3,0.7-0.7c0-0.1,0-0.2-0.1-0.3c1-0.7,2.1-1.1,3.4-1.1
		c1.3,0,2.4,0.4,3.4,1.1c0,0.1-0.1,0.2-0.1,0.3c0,0.4,0.3,0.7,0.7,0.7c0.1,0,0.2,0,0.3-0.1c0.4,0.4,0.7,0.9,1,1.4c0,0,0,0,0,0.1
		c0,0.2,0.1,0.4,0.3,0.5c0.3,0.7,0.4,1.4,0.4,2.1v0.7c-0.4,0-0.7,0.3-0.7,0.7c0,0.4,0.3,0.7,0.7,0.7v2.6c-0.4,0-0.7,0.3-0.7,0.7
		c0,0.4,0.3,0.7,0.7,0.7v2.6c-0.4,0-0.7,0.3-0.7,0.7S30.6,23,31,23v2.6c-0.4,0-0.7,0.3-0.7,0.7c0,0.4,0.3,0.7,0.7,0.7v2
		c0,0.2,0,0.4,0,0.7c-0.3,0-0.6,0.3-0.6,0.7c0,0.2,0.1,0.5,0.3,0.6c-0.5,1.5-1.6,2.7-3,3.4c0,0,0,0,0,0c0-0.4-0.3-0.7-0.7-0.7
		c-0.4,0-0.7,0.3-0.7,0.7c0,0.2,0.1,0.3,0.2,0.5c-0.5,0.1-1,0.2-1.5,0.2c-0.5,0-1-0.1-1.5-0.2c0.1-0.1,0.2-0.3,0.2-0.5
		c0-0.4-0.3-0.7-0.7-0.7c-0.4,0-0.7,0.3-0.7,0.7c0,0,0,0,0,0c-1.4-0.7-2.5-1.9-3-3.4c0.2-0.1,0.3-0.3,0.3-0.6c0-0.4-0.3-0.6-0.6-0.7
		c0-0.2,0-0.4,0-0.7v-2c0.4,0,0.7-0.3,0.7-0.7c0-0.4-0.3-0.7-0.7-0.7V23c0.4,0,0.7-0.3,0.7-0.7s-0.3-0.7-0.7-0.7V19
		c0.4,0,0.7-0.3,0.7-0.7c0-0.4-0.3-0.7-0.7-0.7v-2.6c0.4,0,0.7-0.3,0.7-0.7c0-0.4-0.3-0.7-0.7-0.7v-0.7c0-0.8,0.1-1.5,0.4-2.1
		c0.2-0.1,0.3-0.3,0.3-0.5c0,0,0,0,0-0.1C20,9.9,20.3,9.4,20.7,9L20.7,9z M20.7,9"/>
	<path class="st0" d="M25.7,8.4c0,0.4-0.3,0.7-0.7,0.7c-0.4,0-0.7-0.3-0.7-0.7c0-0.4,0.3-0.7,0.7-0.7C25.4,7.8,25.7,8.1,25.7,8.4
		L25.7,8.4z M25.7,8.4"/>
	<path class="st0" d="M23.7,10.4c0,0.4-0.3,0.7-0.7,0.7c-0.4,0-0.7-0.3-0.7-0.7c0-0.4,0.3-0.7,0.7-0.7C23.4,9.8,23.7,10.1,23.7,10.4
		L23.7,10.4z M23.7,10.4"/>
	<path class="st0" d="M23.7,14.4c0,0.4-0.3,0.7-0.7,0.7c-0.4,0-0.7-0.3-0.7-0.7c0-0.4,0.3-0.7,0.7-0.7C23.4,13.7,23.7,14,23.7,14.4
		L23.7,14.4z M23.7,14.4"/>
	<path class="st0" d="M21.7,12.4c0,0.4-0.3,0.7-0.7,0.7c-0.4,0-0.7-0.3-0.7-0.7c0-0.4,0.3-0.7,0.7-0.7
		C21.4,11.8,21.7,12.1,21.7,12.4L21.7,12.4z M21.7,12.4"/>
	<path class="st0" d="M25.7,12.4c0,0.4-0.3,0.7-0.7,0.7c-0.4,0-0.7-0.3-0.7-0.7c0-0.4,0.3-0.7,0.7-0.7
		C25.4,11.8,25.7,12.1,25.7,12.4L25.7,12.4z M25.7,12.4"/>
	<path class="st0" d="M21.7,16.4c0,0.4-0.3,0.7-0.7,0.7c-0.4,0-0.7-0.3-0.7-0.7c0-0.4,0.3-0.7,0.7-0.7C21.4,15.7,21.7,16,21.7,16.4
		L21.7,16.4z M21.7,16.4"/>
	<path class="st0" d="M25.7,16.4c0,0.4-0.3,0.7-0.7,0.7c-0.4,0-0.7-0.3-0.7-0.7c0-0.4,0.3-0.7,0.7-0.7C25.4,15.7,25.7,16,25.7,16.4
		L25.7,16.4z M25.7,16.4"/>
	<path class="st0" d="M27.6,10.4c0,0.4-0.3,0.7-0.7,0.7c-0.4,0-0.7-0.3-0.7-0.7c0-0.4,0.3-0.7,0.7-0.7C27.4,9.8,27.6,10.1,27.6,10.4
		L27.6,10.4z M27.6,10.4"/>
	<path class="st0" d="M27.6,14.4c0,0.4-0.3,0.7-0.7,0.7c-0.4,0-0.7-0.3-0.7-0.7c0-0.4,0.3-0.7,0.7-0.7C27.4,13.7,27.6,14,27.6,14.4
		L27.6,14.4z M27.6,14.4"/>
	<path class="st0" d="M29.6,12.4c0,0.4-0.3,0.7-0.7,0.7c-0.4,0-0.7-0.3-0.7-0.7c0-0.4,0.3-0.7,0.7-0.7
		C29.3,11.8,29.6,12.1,29.6,12.4L29.6,12.4z M29.6,12.4"/>
	<path class="st0" d="M29.6,16.4c0,0.4-0.3,0.7-0.7,0.7c-0.4,0-0.7-0.3-0.7-0.7c0-0.4,0.3-0.7,0.7-0.7C29.3,15.7,29.6,16,29.6,16.4
		L29.6,16.4z M29.6,16.4"/>
	<path class="st0" d="M23.7,18.4c0,0.4-0.3,0.7-0.7,0.7c-0.4,0-0.7-0.3-0.7-0.7c0-0.4,0.3-0.7,0.7-0.7C23.4,17.7,23.7,18,23.7,18.4
		L23.7,18.4z M23.7,18.4"/>
	<path class="st0" d="M23.7,22.4c0,0.4-0.3,0.7-0.7,0.7c-0.4,0-0.7-0.3-0.7-0.7s0.3-0.7,0.7-0.7C23.4,21.7,23.7,22,23.7,22.4
		L23.7,22.4z M23.7,22.4"/>
	<path class="st0" d="M21.7,20.4c0,0.4-0.3,0.7-0.7,0.7c-0.4,0-0.7-0.3-0.7-0.7c0-0.4,0.3-0.7,0.7-0.7C21.4,19.7,21.7,20,21.7,20.4
		L21.7,20.4z M21.7,20.4"/>
	<path class="st0" d="M25.7,20.4c0,0.4-0.3,0.7-0.7,0.7c-0.4,0-0.7-0.3-0.7-0.7c0-0.4,0.3-0.7,0.7-0.7C25.4,19.7,25.7,20,25.7,20.4
		L25.7,20.4z M25.7,20.4"/>
	<path class="st0" d="M21.7,24.3c0,0.4-0.3,0.7-0.7,0.7c-0.4,0-0.7-0.3-0.7-0.7c0-0.4,0.3-0.7,0.7-0.7C21.4,23.7,21.7,24,21.7,24.3
		L21.7,24.3z M21.7,24.3"/>
	<path class="st0" d="M25.7,24.3c0,0.4-0.3,0.7-0.7,0.7c-0.4,0-0.7-0.3-0.7-0.7c0-0.4,0.3-0.7,0.7-0.7C25.4,23.7,25.7,24,25.7,24.3
		L25.7,24.3z M25.7,24.3"/>
	<path class="st0" d="M27.6,18.4c0,0.4-0.3,0.7-0.7,0.7c-0.4,0-0.7-0.3-0.7-0.7c0-0.4,0.3-0.7,0.7-0.7C27.4,17.7,27.6,18,27.6,18.4
		L27.6,18.4z M27.6,18.4"/>
	<path class="st0" d="M27.6,22.4c0,0.4-0.3,0.7-0.7,0.7c-0.4,0-0.7-0.3-0.7-0.7s0.3-0.7,0.7-0.7C27.4,21.7,27.6,22,27.6,22.4
		L27.6,22.4z M27.6,22.4"/>
	<path class="st0" d="M29.6,20.4c0,0.4-0.3,0.7-0.7,0.7c-0.4,0-0.7-0.3-0.7-0.7c0-0.4,0.3-0.7,0.7-0.7C29.3,19.7,29.6,20,29.6,20.4
		L29.6,20.4z M29.6,20.4"/>
	<path class="st0" d="M29.6,24.3c0,0.4-0.3,0.7-0.7,0.7c-0.4,0-0.7-0.3-0.7-0.7c0-0.4,0.3-0.7,0.7-0.7C29.3,23.7,29.6,24,29.6,24.3
		L29.6,24.3z M29.6,24.3"/>
	<path class="st0" d="M23.7,26.3c0,0.4-0.3,0.7-0.7,0.7c-0.4,0-0.7-0.3-0.7-0.7c0-0.4,0.3-0.7,0.7-0.7C23.4,25.7,23.7,26,23.7,26.3
		L23.7,26.3z M23.7,26.3"/>
	<path class="st0" d="M23.7,30.3c0,0.4-0.3,0.7-0.7,0.7c-0.4,0-0.7-0.3-0.7-0.7c0-0.4,0.3-0.7,0.7-0.7
		C23.4,29.6,23.7,29.9,23.7,30.3L23.7,30.3z M23.7,30.3"/>
	<path class="st0" d="M21.7,28.3c0,0.4-0.3,0.7-0.7,0.7c-0.4,0-0.7-0.3-0.7-0.7c0-0.4,0.3-0.7,0.7-0.7
		C21.4,27.6,21.7,27.9,21.7,28.3L21.7,28.3z M21.7,28.3"/>
	<path class="st0" d="M25.7,28.3c0,0.4-0.3,0.7-0.7,0.7c-0.4,0-0.7-0.3-0.7-0.7c0-0.4,0.3-0.7,0.7-0.7
		C25.4,27.6,25.7,27.9,25.7,28.3L25.7,28.3z M25.7,28.3"/>
	<path class="st0" d="M21.7,32.3c0,0.4-0.3,0.7-0.7,0.7c-0.4,0-0.7-0.3-0.7-0.7c0-0.4,0.3-0.7,0.7-0.7
		C21.4,31.6,21.7,31.9,21.7,32.3L21.7,32.3z M21.7,32.3"/>
	<path class="st0" d="M25.7,32.3c0,0.4-0.3,0.7-0.7,0.7c-0.4,0-0.7-0.3-0.7-0.7c0-0.4,0.3-0.7,0.7-0.7
		C25.4,31.6,25.7,31.9,25.7,32.3L25.7,32.3z M25.7,32.3"/>
	<path class="st0" d="M27.6,26.3c0,0.4-0.3,0.7-0.7,0.7c-0.4,0-0.7-0.3-0.7-0.7c0-0.4,0.3-0.7,0.7-0.7C27.4,25.7,27.6,26,27.6,26.3
		L27.6,26.3z M27.6,26.3"/>
	<path class="st0" d="M27.6,30.3c0,0.4-0.3,0.7-0.7,0.7c-0.4,0-0.7-0.3-0.7-0.7c0-0.4,0.3-0.7,0.7-0.7
		C27.4,29.6,27.6,29.9,27.6,30.3L27.6,30.3z M27.6,30.3"/>
	<path class="st0" d="M29.6,28.3c0,0.4-0.3,0.7-0.7,0.7c-0.4,0-0.7-0.3-0.7-0.7c0-0.4,0.3-0.7,0.7-0.7
		C29.3,27.6,29.6,27.9,29.6,28.3L29.6,28.3z M29.6,28.3"/>
	<path class="st0" d="M29.6,32.3c0,0.4-0.3,0.7-0.7,0.7c-0.4,0-0.7-0.3-0.7-0.7c0-0.4,0.3-0.7,0.7-0.7
		C29.3,31.6,29.6,31.9,29.6,32.3L29.6,32.3z M29.6,32.3"/>
</g>
</svg>
