<?xml version="1.0" encoding="utf-8"?>
<!-- Generator: Adobe Illustrator 16.0.0, SVG Export Plug-In . SVG Version: 6.00 Build 0)  -->
<!DOCTYPE svg PUBLIC "-//W3C//DTD SVG 1.1//EN" "http://www.w3.org/Graphics/SVG/1.1/DTD/svg11.dtd">
<svg version="1.1" id="Layer_1" xmlns="http://www.w3.org/2000/svg" xmlns:xlink="http://www.w3.org/1999/xlink" x="0px" y="0px"
	 width="99.779px" height="99.779px" viewBox="-24.89 -24.89 99.779 99.779" enable-background="new -24.89 -24.89 99.779 99.779"
	 xml:space="preserve">
<g id="Layer_1_1_">
	<rect x="-25" y="-25" fill="none" width="100" height="100"/>
	<g>
		<g>
			<path fill="#FFFFFF" d="M-8.118,18.712h3.162v0.83c1.95-1.897,4.282-2.846,6.998-2.846c2.82,0,5.218,0.987,7.194,2.964
				c0.527,0.527,0.987,1.107,1.384,1.74c0.422-0.606,0.91-1.187,1.462-1.74c1.976-1.977,4.374-2.964,7.194-2.964
				c2.819,0,5.218,0.987,7.196,2.964c1.871,1.924,2.859,4.218,2.963,6.879v26.484h-3.162V26.539h0.041
				c-0.078-1.817-0.765-3.359-2.057-4.625c-1.397-1.37-3.058-2.056-4.981-2.056c-1.95,0-3.618,0.686-5,2.056
				c-1.385,1.37-2.076,3.084-2.076,5.137v25.973H9.076V26.539h0.04C9.01,24.722,8.312,23.18,7.02,21.914
				c-1.396-1.37-3.056-2.056-4.979-2.056s-3.572,0.686-4.942,2.056C-4.114,23.1-4.8,24.55-4.958,26.262v26.766h-3.16V18.712z"/>
		</g>
		<g>
			<path fill="#FFFFFF" d="M32.105-2.868h3.162v23.364c2.635-2.557,5.824-3.834,9.566-3.834c4.033,0,7.32,1.271,9.865,3.813
				c2.541,2.544,3.852,5.739,3.934,9.587v22.965h-3.164V30.379c0-2.926-1.053-5.417-3.164-7.473
				c-2.105-2.057-4.598-3.084-7.469-3.084c-2.9,0-5.391,1.014-7.469,3.044c-0.951,0.922-1.648,1.884-2.098,2.886v27.275h-3.16
				V-2.868H32.105z"/>
		</g>
	</g>
</g>
</svg>
