<?xml version="1.0" encoding="utf-8"?>
<!-- Generator: Adobe Illustrator 16.0.0, SVG Export Plug-In . SVG Version: 6.00 Build 0)  -->
<!DOCTYPE svg PUBLIC "-//W3C//DTD SVG 1.1//EN" "http://www.w3.org/Graphics/SVG/1.1/DTD/svg11.dtd">
<svg version="1.1" xmlns="http://www.w3.org/2000/svg" xmlns:xlink="http://www.w3.org/1999/xlink" x="0px" y="0px" width="50px"
	 height="50px" viewBox="0 0 50 50" enable-background="new 0 0 50 50" xml:space="preserve">
<g id="Guides_For_Artboard">
</g>
<g id="Layer_1">
	<rect y="0" fill-rule="evenodd" clip-rule="evenodd" fill="none" width="50" height="50"/>
	<g>
		<g>
			<path fill="#FFFFFF" d="M8.441,21.856h1.581v0.415c0.975-0.949,2.141-1.423,3.499-1.423c1.41,0,2.609,0.494,3.597,1.482
				c0.264,0.264,0.494,0.554,0.692,0.87c0.211-0.303,0.455-0.593,0.731-0.87c0.988-0.988,2.187-1.482,3.597-1.482
				s2.609,0.494,3.598,1.482c0.936,0.962,1.43,2.109,1.482,3.439v13.243h-1.581V25.77h0.02c-0.039-0.909-0.382-1.68-1.028-2.313
				c-0.699-0.685-1.529-1.028-2.491-1.028c-0.975,0-1.809,0.343-2.5,1.028c-0.692,0.685-1.038,1.542-1.038,2.569v12.986h-1.562
				V25.77h0.02c-0.053-0.909-0.402-1.68-1.048-2.313c-0.698-0.685-1.528-1.028-2.49-1.028s-1.786,0.343-2.471,1.028
				c-0.606,0.593-0.949,1.318-1.028,2.174v13.382H8.441V21.856z"/>
		</g>
		<g>
			<path fill="#FFFFFF" d="M28.553,11.066h1.581v11.682c1.317-1.278,2.912-1.917,4.783-1.917c2.016,0,3.66,0.636,4.932,1.907
				c1.271,1.272,1.927,2.869,1.967,4.793v11.483h-1.581V27.689c0-1.463-0.527-2.708-1.582-3.736
				c-1.054-1.028-2.299-1.542-3.735-1.542c-1.45,0-2.695,0.507-3.735,1.522c-0.475,0.461-0.824,0.942-1.048,1.443v13.638h-1.581
				V11.066z"/>
		</g>
	</g>
</g>
</svg>
