<?xml version="1.0" encoding="utf-8"?>
<!-- Generator: Adobe Illustrator 16.0.0, SVG Export Plug-In . SVG Version: 6.00 Build 0)  -->
<!DOCTYPE svg PUBLIC "-//W3C//DTD SVG 1.1//EN" "http://www.w3.org/Graphics/SVG/1.1/DTD/svg11.dtd">
<svg version="1.1" xmlns="http://www.w3.org/2000/svg" xmlns:xlink="http://www.w3.org/1999/xlink" x="0px" y="0px" width="250px"
	 height="250px" viewBox="0 0 250 250" enable-background="new 0 0 250 250" xml:space="preserve">
<g id="Guides_For_Artboard">
</g>
<g id="Layer_1">
	<rect fill-rule="evenodd" clip-rule="evenodd" fill="none" width="250" height="250"/>
	<g>
		<g>
			<path d="M42.207,109.281h7.906v2.076c4.875-4.744,10.706-7.116,17.492-7.116c7.05,0,13.046,2.471,17.987,7.412
				c1.317,1.319,2.471,2.768,3.459,4.349c1.054-1.515,2.273-2.965,3.657-4.349c4.941-4.941,10.936-7.412,17.986-7.412
				c7.05,0,13.046,2.471,17.987,7.412c4.678,4.811,7.148,10.543,7.412,17.196v66.216h-7.906V128.85h0.099
				c-0.197-4.546-1.911-8.4-5.139-11.563c-3.493-3.426-7.645-5.14-12.453-5.14c-4.876,0-9.043,1.714-12.502,5.14
				c-3.459,3.427-5.188,7.708-5.188,12.848v64.931h-7.808V128.85h0.1c-0.265-4.546-2.011-8.4-5.238-11.563
				c-3.493-3.426-7.644-5.14-12.453-5.14s-8.928,1.714-12.354,5.14c-3.031,2.965-4.743,6.589-5.139,10.871v66.907h-7.906V109.281z"
				/>
		</g>
		<g>
			<path d="M142.763,55.332h7.906v58.408c6.588-6.39,14.561-9.586,23.917-9.586c10.08,0,18.299,3.18,24.658,9.537
				c6.357,6.359,9.636,14.347,9.833,23.966v57.42h-7.906v-56.629c0-7.313-2.636-13.54-7.906-18.679
				c-5.272-5.14-11.498-7.709-18.679-7.709c-7.249,0-13.475,2.537-18.679,7.61c-2.372,2.307-4.119,4.711-5.238,7.214v68.192h-7.906
				V55.332z"/>
		</g>
	</g>
</g>
</svg>
