<?xml version="1.0" encoding="utf-8"?>
<!-- Generator: Adobe Illustrator 16.0.0, SVG Export Plug-In . SVG Version: 6.00 Build 0)  -->
<!DOCTYPE svg PUBLIC "-//W3C//DTD SVG 1.1//EN" "http://www.w3.org/Graphics/SVG/1.1/DTD/svg11.dtd">
<svg version="1.1" id="Layer_1" xmlns="http://www.w3.org/2000/svg" xmlns:xlink="http://www.w3.org/1999/xlink" x="0px" y="0px"
	 width="500.031px" height="500.031px" viewBox="-125.016 -125.016 500.031 500.031"
	 enable-background="new -125.016 -125.016 500.031 500.031" xml:space="preserve">
<g id="Layer_1_1_">
	<rect x="-124.999" y="-124.999" fill="none" width="499.998" height="499.998"/>
	<g>
		<g>
			<path d="M-40.585,93.563h15.812v4.151c9.75-9.488,21.412-14.231,34.984-14.231c14.1,0,26.092,4.941,35.974,14.823
				c2.635,2.639,4.942,5.536,6.918,8.698c2.108-3.03,4.547-5.93,7.314-8.698c9.882-9.882,21.872-14.823,35.971-14.823
				c14.101,0,26.092,4.941,35.976,14.823c9.355,9.622,14.295,21.086,14.822,34.394v132.429h-15.811V132.699h0.197
				c-0.395-9.091-3.822-16.799-10.278-23.125c-6.986-6.853-15.29-10.28-24.906-10.28c-9.752,0-18.086,3.428-25.003,10.28
				c-6.918,6.854-10.376,15.416-10.376,25.695v129.862H45.392V132.699h0.2c-0.53-9.091-4.021-16.799-10.476-23.125
				c-6.986-6.853-15.288-10.28-24.906-10.28s-17.856,3.428-24.708,10.28c-6.061,5.93-9.486,13.178-10.278,21.742v133.812h-15.812
				V93.563H-40.585z"/>
		</g>
		<g>
			<path d="M160.527-14.335h15.811V102.48c13.176-12.78,29.123-19.173,47.833-19.173c20.16,0,36.598,6.36,49.316,19.074
				c12.715,12.718,19.271,28.694,19.666,47.933v114.839h-15.813V151.896c0-14.627-5.271-27.08-15.811-37.358
				c-10.545-10.28-22.996-15.418-37.359-15.418c-14.497,0-26.948,5.074-37.358,15.22c-4.742,4.614-8.236,9.422-10.475,14.428
				v136.384h-15.811V-14.335L160.527-14.335z"/>
		</g>
	</g>
</g>
</svg>
