<?xml version="1.0" encoding="utf-8"?>
<!-- Generator: Adobe Illustrator 21.0.0, SVG Export Plug-In . SVG Version: 6.00 Build 0)  -->
<svg version="1.1" id="Layer_1" xmlns="http://www.w3.org/2000/svg" xmlns:xlink="http://www.w3.org/1999/xlink" x="0px" y="0px"
	 viewBox="0 0 80 80" style="enable-background:new 0 0 80 80;" xml:space="preserve">
<style type="text/css">
	.st0{fill:#FFFFFF;}
	.st1{fill:#996459;}
	.st2{fill:#4BB9EC;}
	.st3{fill:#009BCA;}
	.st4{fill:#3482AC;}
	.st5{fill:#B4B6BC;}
	.st6{fill:#FFDCAD;}
	.st7{fill:#AEEFFF;}
	.st8{fill:#5C546A;}
	.st9{fill:#868491;}
	.st10{fill:#5D647F;}
	.st11{fill:#68748D;}
	.st12{fill:#FFE671;}
	.st13{fill:#FFCD00;}
	.st14{fill:#E3001E;}
	.st15{fill:#FF4F19;}
	.st16{fill:#E6BE94;}
	.st17{fill:#FFEBB7;}
	.st18{fill:#7E5C62;}
	.st19{fill:#60DC4D;}
	.st20{fill:#FF8C62;}
	.st21{fill:#00C37A;}
	.st22{fill:#BA7958;}
	.st23{fill:#FFD788;}
	.st24{fill:#E6BE8A;}
	.st25{fill:#C9A07C;}
</style>
<circle class="st0" cx="40" cy="40" r="40"/>
<g>
	<g>
		<rect x="40" y="53.3" class="st9" width="3.1" height="4.7"/>
	</g>
	<g>
		<rect x="40" y="53.3" class="st8" width="1.6" height="4.7"/>
	</g>
	<g>
		<path class="st22" d="M36.9,61.1v-1.6c0-0.9,0.7-1.6,1.6-1.6h6.3c0.9,0,1.6,0.7,1.6,1.6v1.6"/>
	</g>
	<g>
		<path class="st1" d="M41.6,58h-3.1c-0.9,0-1.6,0.7-1.6,1.6v1.6h4.7V58z"/>
	</g>
	<g>
		<g>
			<path class="st8" d="M41.6,19.7c-0.4,0-0.8-0.3-0.8-0.8v-3.1c0-0.4,0.3-0.8,0.8-0.8s0.8,0.3,0.8,0.8v3.1
				C42.4,19.3,42,19.7,41.6,19.7z"/>
		</g>
	</g>
	<g>
		<g>
			<path class="st8" d="M41.6,54.1c-0.4,0-0.8-0.3-0.8-0.8v-3.1c0-0.4,0.3-0.8,0.8-0.8s0.8,0.3,0.8,0.8v3.1
				C42.4,53.7,42,54.1,41.6,54.1z"/>
		</g>
	</g>
	<g>
		<path class="st1" d="M47,60.3H36.1c-2.2,0-3.9,1.8-3.9,3.9c0,0.4,0.3,0.8,0.8,0.8h17.2c0.4,0,0.8-0.3,0.8-0.8
			C50.9,62.1,49.2,60.3,47,60.3z"/>
	</g>
	<g>
		<circle class="st23" cx="41.6" cy="34.5" r="16.4"/>
	</g>
	<g>
		<path class="st24" d="M41.6,50.9c4.5,0,8.6-1.8,11.6-4.8L30,22.9c-3,3-4.8,7.1-4.8,11.6C25.1,43.6,32.5,50.9,41.6,50.9z"/>
	</g>
	<g>
		<g>
			<path class="st24" d="M57.8,32.6c-0.9-7.4-6.6-13.2-14-14.3l-0.9,1.5c0,0.1-0.1,0.1-0.2,0.1c-0.1,0-0.1,0-0.2,0l-2.4-1.4
				c-0.1-0.1-0.2,0-0.3,0l-3.4,2.8c-0.6,0.5-0.9,1.2-0.9,1.9V24c0,0.1,0,0.2,0.1,0.2c0.1,0.1,0.1,0.1,0.2,0.1l2.4-0.5l-0.4,0.7
				c-0.1,0.2-0.2,0.3-0.4,0.4l-2.2,1.6c-0.1,0.1-0.1,0.1-0.1,0.2V28L34.5,28c-0.7,0.1-1.3,0.7-1.2,1.4l0,0.7c0,0.6,0.4,1.1,1,1.2
				l0.7,0.2c-0.8,0.2-1.4,1-1.3,1.9l0,0.6l-0.8,1.6c-0.7,1.3-0.6,2.9,0.2,4.2l0.4,0.6c0.5,0.8,1.5,1.2,2.5,1.1l3.6-0.6l0.8,1
				c0.6,0.7,1.3,1.3,2.2,1.6l0.4,0.1v2.3c0,0.2,0.1,0.7,0.3,1.4c0.2,0.8,0.8,1.5,1.6,2c0.5,0.3,1,0.4,1.6,0.4c0.3,0,0.6,0,0.9-0.1
				c0.1,0,0.1-0.1,0.2-0.2l2.4-6.1l3.2-3c0,0,0.1-0.1,0.1-0.2l0.3-1.8c0-0.1,0-0.2-0.1-0.2c-0.1-0.1-0.1-0.1-0.2-0.1l-0.8,0.1
				c-0.5,0-1-0.1-1.4-0.4l-4.7-5.9l5.2,5.1l2.2-1.2c0.5-0.4,0.8-0.9,0.8-1.5v-1.5c0-0.1,0-0.2-0.1-0.2c-0.1-0.1-0.2-0.1-0.2,0
				l-0.6,0.2c-0.2,0.1-0.5,0.1-0.7-0.1c-0.2-0.1-0.3-0.3-0.4-0.5l-0.2-1.1l5.3,1.7C57.8,32.6,57.8,32.6,57.8,32.6z M46.2,31.3
				l-0.4,0.4l-2.5,0.8c-0.3,0.1-0.7,0.1-1-0.1l-1.4-0.9c-0.5-0.3-1.1-0.5-1.7-0.5c-0.2,0-0.4,0-0.5,0l-2.5,0.4l0.8-0.6
				c0.2-0.1,0.3-0.3,0.4-0.5l0.5-1.2c0.4-0.4,1.1-0.5,1.6-0.2l1.5,1.3c0.1,0.1,0.2,0.1,0.3,0c0.1-0.1,0.2-0.2,0.1-0.3l-0.2-1.2
				c0-0.2,0.1-0.2,0.2-0.2c0,0,0.2-0.1,0.3,0.1l1.8,1.6c0.1,0.1,0.2,0.1,0.3,0.1l2.7-0.8c0.2,0.2,0.3,0.5,0.3,0.8
				C46.6,30.7,46.5,31.1,46.2,31.3z M47.3,27.8l-0.9,0.6c-0.1,0.1-0.2,0.1-0.3,0.1h-1.5c-0.3,0-0.5-0.2-0.5-0.5s0.2-0.5,0.5-0.5h1.3
				l0.7-0.5c0.2-0.2,0.6-0.1,0.8,0.1C47.6,27.2,47.5,27.6,47.3,27.8z M49.7,27.8c-0.1,0.1-0.2,0.1-0.3,0.1c-0.2,0-0.3-0.1-0.4-0.2
				l-1.4-1.9c-0.2-0.2-0.1-0.6,0.1-0.8c0.2-0.2,0.6-0.1,0.8,0.1l1.4,1.9C50,27.2,50,27.6,49.7,27.8z"/>
		</g>
	</g>
	<g>
		<g>
			<g>
				<path class="st24" d="M34,26.7c0,0-0.1,0-0.1,0c-0.3-0.1-0.5-0.4-0.4-0.7l0.3-1.4l-0.5-0.3c-0.3-0.2-0.3-0.5-0.2-0.8
					c0.2-0.3,0.5-0.3,0.8-0.2l0.9,0.5c0.2,0.1,0.3,0.4,0.2,0.6l-0.4,1.7C34.5,26.5,34.2,26.7,34,26.7z"/>
			</g>
		</g>
	</g>
	<g>
		<path class="st25" d="M38.1,31.1l-2,0.3l0.8-0.6c0.2-0.1,0.3-0.3,0.4-0.5l0-0.1L35,28L34.5,28c-0.7,0.1-1.3,0.7-1.2,1.4l0,0.7
			c0,0.6,0.4,1.1,1,1.2l0.7,0.2c-0.8,0.2-1.4,1-1.3,1.9l0,0.6l-0.8,1.6c-0.7,1.3-0.6,2.9,0.2,4.2l0.4,0.6c0.5,0.8,1.5,1.2,2.5,1.1
			l3.6-0.6l0.8,1c0.6,0.7,1.3,1.3,2.2,1.6l0.4,0.1v2.3c0,0.2,0.1,0.7,0.3,1.4c0.2,0.8,0.8,1.5,1.6,2c0.5,0.3,1,0.4,1.6,0.4
			c0.3,0,0.6,0,0.9-0.1c0.1,0,0.1-0.1,0.2-0.2l2.4-6.1l0.2-0.2L38.1,31.1z"/>
	</g>
	<g>
		<g>
			<path class="st1" d="M44.7,54.1h-3.1C30.8,54.1,22,45.3,22,34.5S30.8,15,41.6,15h3.1c0.4,0,0.8,0.3,0.8,0.8
				c0,0.4-0.3,0.8-0.8,0.8h-3.1c-9.9,0-18,8.1-18,18s8.1,18,18,18h3.1c0.4,0,0.8,0.3,0.8,0.8S45.1,54.1,44.7,54.1z"/>
		</g>
	</g>
	<g>
		<path class="st18" d="M41.6,60.3h-5.4c-2.2,0-3.9,1.8-3.9,3.9c0,0.4,0.3,0.8,0.8,0.8h8.6V60.3z"/>
	</g>
</g>
</svg>
