<?xml version="1.0" encoding="utf-8"?>
<!-- Generator: Adobe Illustrator 21.0.0, SVG Export Plug-In . SVG Version: 6.00 Build 0)  -->
<svg version="1.1" id="Layer_1" xmlns="http://www.w3.org/2000/svg" xmlns:xlink="http://www.w3.org/1999/xlink" x="0px" y="0px"
	 viewBox="0 0 80 80" style="enable-background:new 0 0 80 80;" xml:space="preserve">
<style type="text/css">
	.st0{fill:#FFFFFF;}
	.st1{fill:#996459;}
	.st2{fill:#4BB9EC;}
	.st3{fill:#009BCA;}
	.st4{fill:#3482AC;}
	.st5{fill:#B4B6BC;}
	.st6{fill:#FFDCAD;}
	.st7{fill:#AEEFFF;}
	.st8{fill:#5C546A;}
	.st9{fill:#868491;}
	.st10{fill:#5D647F;}
	.st11{fill:#68748D;}
	.st12{fill:#FFE671;}
	.st13{fill:#FFCD00;}
	.st14{fill:#E3001E;}
	.st15{fill:#FF4F19;}
	.st16{fill:#E6BE94;}
	.st17{fill:#FFEBB7;}
	.st18{fill:#7E5C62;}
	.st19{fill:#60DC4D;}
	.st20{fill:#FF8C62;}
	.st21{fill:#00C37A;}
	.st22{fill:#BA7958;}
	.st23{fill:#FFD788;}
	.st24{fill:#E6BE8A;}
	.st25{fill:#C9A07C;}
</style>
<circle class="st0" cx="40" cy="40" r="40"/>
<g>
	<g>
		<path class="st8" d="M48.1,38.3l-1.7-1.7c-0.3-0.3-0.8-0.3-1.1,0l-3.1,3.1c-0.3,0.3-0.3,0.8,0,1.1l1.7,1.7
			c0.3,0.3,0.7,0.5,1.1,0.5c0.4,0,0.8-0.2,1.1-0.5l2-2c0.3-0.3,0.5-0.7,0.5-1.1C48.6,39,48.4,38.6,48.1,38.3z"/>
	</g>
	<g>
		<g>
			<path class="st9" d="M44.9,32.8c-0.3-0.1-0.5,0-0.7,0.2l-5.6,5.6c-0.2,0.2-0.3,0.5-0.2,0.7c0.1,0.3,0.3,0.5,0.5,0.6l3.8,1.5
				l4.3-4.3l-1.5-3.8C45.4,33.1,45.2,32.9,44.9,32.8z"/>
		</g>
		<g>
			<path class="st8" d="M38.9,39.9l3.8,1.5l2.1-2.1l-3.5-3.5l-2.7,2.7c-0.2,0.2-0.3,0.5-0.2,0.7C38.5,39.6,38.7,39.8,38.9,39.9z"/>
		</g>
	</g>
	<g>
		<path class="st8" d="M30.4,22.7l-2.2,2.2c0,0-0.1,0-0.1,0l-5.4-5.4c0,0,0-0.1,0-0.1l2.2-2.2c0,0,0.1,0,0.1,0l5.4,5.4
			C30.5,22.6,30.5,22.6,30.4,22.7z"/>
	</g>
	<g>
		<g>
			<path class="st8" d="M48.8,55.6h-3.4c-0.4,0-0.8-0.4-0.8-0.8S45,54,45.4,54h3.4c0.4,0,0.8-0.2,1.1-0.5l1.8-1.8
				c0.3-0.3,0.8-0.3,1.1,0s0.3,0.8,0,1.1l-1.8,1.8C50.5,55.2,49.7,55.6,48.8,55.6z"/>
		</g>
	</g>
	<g>
		<path class="st9" d="M33.2,35.9c-0.2,0.9-0.3,1.7-0.3,2.6c0,4.9,3.2,9.1,7.7,10.5l-1.4,4.5c-6.4-2-11-8-11-15
			c0-1.4,0.2-2.9,0.6-4.2L33.2,35.9z"/>
	</g>
	<g>
		<path class="st8" d="M57.6,39.3l-2.2-2.2c-0.3-0.3-0.8-0.3-1.1,0L43.4,48c-0.2,0.2-0.3,0.6-0.1,0.9l1.5,2.9
			c0.1,0.2,0.3,0.4,0.6,0.4c0,0,0.1,0,0.1,0c0.2,0,0.4-0.1,0.6-0.2l11.7-11.7C57.9,40.1,57.9,39.6,57.6,39.3z"/>
	</g>
	<g>
		<path class="st9" d="M59.2,47.1L57,44.9c-0.3-0.3-0.8-0.3-1.1,0l-5.4,5.4c-0.3,0.3-0.3,0.8,0,1.1l2.2,2.2c0.2,0.2,0.4,0.2,0.6,0.2
			c0.2,0,0.4-0.1,0.6-0.2l5.4-5.4C59.5,47.9,59.5,47.4,59.2,47.1z"/>
	</g>
	<g>
		<path class="st5" d="M42.3,47.7c-2.2,0-3.9,1.8-3.9,3.9v8.7c0,0.4,0.4,0.8,0.8,0.8s0.8-0.4,0.8-0.8h4.7c0,0.4,0.4,0.8,0.8,0.8
			s0.8-0.4,0.8-0.8v-8.7C46.2,49.5,44.4,47.7,42.3,47.7z"/>
	</g>
	<g>
		<path class="st5" d="M45.3,33L33.8,21.5c-0.9-0.9-2.4-0.9-3.3,0l-3.3,3.3c-0.4,0.4-0.7,1-0.7,1.7c0,0.6,0.2,1.2,0.7,1.7l1.2,1.2
			c0.3,0.3,0.8,0.3,1.1,0l5.1,5.1c0,0,0,0,0,0c-0.3,0.3-0.3,0.8,0,1.1l4.1,4c0.2,0.2,0.4,0.2,0.6,0.2c0.2,0,0.4-0.1,0.6-0.2l5.6-5.6
			c0.1-0.1,0.2-0.3,0.2-0.6S45.5,33.2,45.3,33z"/>
	</g>
	<g>
		<path class="st9" d="M34.6,35.7l4.1,4c0.2,0.2,0.4,0.2,0.6,0.2c0.2,0,0.4-0.1,0.6-0.2l2.7-2.7L28.8,23.2l-1.7,1.7
			c-0.4,0.4-0.7,1-0.7,1.7c0,0.6,0.2,1.2,0.7,1.7l1.2,1.2c0.3,0.3,0.8,0.3,1.1,0l5.1,5.1c0,0,0,0,0,0C34.3,34.9,34.3,35.4,34.6,35.7
			z"/>
	</g>
	<g>
		<path class="st9" d="M47.8,59.5h-11c-1.7,0-3.1,1.4-3.1,3.1v1.6c0,0.4,0.4,0.8,0.8,0.8h15.7c0.4,0,0.8-0.4,0.8-0.8v-1.6
			C50.9,60.9,49.5,59.5,47.8,59.5z"/>
	</g>
	<g>
		<circle class="st8" cx="32" cy="32" r="4.7"/>
	</g>
	<g>
		<circle class="st9" cx="32" cy="32" r="2.4"/>
	</g>
	<g>
		<circle class="st8" cx="42.2" cy="51.6" r="1.6"/>
	</g>
	<g>
		<path class="st9" d="M26.3,17.5L23,20.8c-0.3,0.3-0.8,0.3-1.1,0l-1.1-1.1c-0.3-0.3-0.3-0.8,0-1.1l3.3-3.3c0.3-0.3,0.8-0.3,1.1,0
			l1.1,1.1C26.7,16.6,26.7,17.1,26.3,17.5z"/>
	</g>
	<g>
		<path class="st8" d="M22.5,16.9l-1.7,1.7c-0.3,0.3-0.3,0.8,0,1.1l1.1,1.1c0.3,0.3,0.8,0.3,1.1,0l1.7-1.7L22.5,16.9z"/>
	</g>
</g>
</svg>
