<?xml version="1.0" encoding="utf-8"?>
<!-- Generator: Adobe Illustrator 21.0.0, SVG Export Plug-In . SVG Version: 6.00 Build 0)  -->
<svg version="1.1" id="Layer_1" xmlns="http://www.w3.org/2000/svg" xmlns:xlink="http://www.w3.org/1999/xlink" x="0px" y="0px"
	 viewBox="0 0 80 80" style="enable-background:new 0 0 80 80;" xml:space="preserve">
<style type="text/css">
	.st0{fill:#FFFFFF;}
	.st1{fill:#996459;}
	.st2{fill:#4BB9EC;}
	.st3{fill:#009BCA;}
	.st4{fill:#3482AC;}
	.st5{fill:#B4B6BC;}
	.st6{fill:#FFDCAD;}
	.st7{fill:#AEEFFF;}
	.st8{fill:#5C546A;}
	.st9{fill:#868491;}
	.st10{fill:#5D647F;}
	.st11{fill:#68748D;}
	.st12{fill:#FFE671;}
	.st13{fill:#FFCD00;}
	.st14{fill:#E3001E;}
	.st15{fill:#FF4F19;}
	.st16{fill:#E6BE94;}
	.st17{fill:#FFEBB7;}
	.st18{fill:#7E5C62;}
	.st19{fill:#60DC4D;}
	.st20{fill:#FF8C62;}
	.st21{fill:#00C37A;}
	.st22{fill:#BA7958;}
	.st23{fill:#FFD788;}
	.st24{fill:#E6BE8A;}
	.st25{fill:#C9A07C;}
</style>
<circle class="st0" cx="40" cy="40" r="40"/>
<g>
	<g>
		<polygon class="st16" points="64.6,64.2 15.4,64.2 15.4,41.3 25.6,41.3 40,26.9 54.4,41.3 64.6,41.3 		"/>
	</g>
	<g>
		<rect x="34.9" y="54" class="st1" width="10.2" height="10.2"/>
	</g>
	<g>
		<path class="st2" d="M44.8,50.6h-9.7c-0.1,0-0.2,0.1-0.2,0.2V54h10.2v-3.2C45.1,50.7,45,50.6,44.8,50.6z"/>
	</g>
	<g>
		<path class="st15" d="M47.8,20.1l1.4-2.1c0.2-0.3,0.2-0.6,0-0.9c-0.1-0.3-0.4-0.4-0.7-0.4H40c-0.5,0-0.8,0.4-0.8,0.8v5.1
			c0,0.5,0.4,0.8,0.8,0.8h8.5c0.3,0,0.6-0.2,0.7-0.4c0.1-0.3,0.1-0.6,0-0.9L47.8,20.1z"/>
	</g>
	<g>
		<g>
			<path class="st8" d="M40,27.7c-0.5,0-0.8-0.4-0.8-0.8v-11c0-0.5,0.4-0.8,0.8-0.8c0.5,0,0.8,0.4,0.8,0.8v11
				C40.8,27.3,40.5,27.7,40,27.7z"/>
		</g>
	</g>
	<g>
		<path class="st15" d="M43.4,30.8c0.1-0.3,0.4-0.5,0.8-0.5h16.1c0.3,0,0.6,0.1,0.7,0.4L67,40c0.2,0.3,0.2,0.6,0,0.9
			c-0.1,0.3-0.4,0.4-0.7,0.4H53.5c-0.2,0-0.4-0.1-0.6-0.2l-9.3-9.3C43.4,31.5,43.3,31.1,43.4,30.8z"/>
	</g>
	<g>
		<path class="st15" d="M36.5,30.8c-0.1-0.3-0.4-0.5-0.8-0.5H19.7c-0.3,0-0.6,0.1-0.7,0.4L13,40c-0.2,0.3-0.2,0.6,0,0.9
			c0.1,0.3,0.4,0.4,0.7,0.4h12.7c0.2,0,0.4-0.1,0.6-0.2l9.3-9.3C36.6,31.5,36.7,31.1,36.5,30.8z"/>
	</g>
	<g>
		<g>
			<path class="st14" d="M54.4,42.1c-0.2,0-0.4-0.1-0.6-0.2L40,28.1L26.2,41.9c-0.3,0.3-0.9,0.3-1.2,0c-0.3-0.3-0.3-0.9,0-1.2
				l14.4-14.4c0.3-0.3,0.9-0.3,1.2,0L55,40.7c0.3,0.3,0.3,0.9,0,1.2C54.8,42,54.6,42.1,54.4,42.1z"/>
		</g>
	</g>
	<g>
		<circle class="st17" cx="40" cy="41.3" r="5.1"/>
	</g>
	<g>
		<path class="st8" d="M40,37.9c-0.5,0-0.8,0.4-0.8,0.8v1.7h-1.7c-0.5,0-0.8,0.4-0.8,0.8s0.4,0.8,0.8,0.8H40c0.5,0,0.8-0.4,0.8-0.8
			v-2.5C40.8,38.3,40.5,37.9,40,37.9z"/>
	</g>
	<g>
		<g>
			<path class="st2" d="M52.7,46.8c0-1.2-0.9-2.1-2.1-2.1c-1.2,0-2.1,0.9-2.1,2.1c0,0.1,0,0.3,0,0.4h0v3.4h4.2v-3.4h0
				C52.7,47.1,52.7,46.9,52.7,46.8z"/>
		</g>
		<g>
			<path class="st18" d="M50.6,43.8c-1.6,0-3,1.3-3,3v3.8c0,0.5,0.4,0.8,0.8,0.8h4.2c0.5,0,0.8-0.4,0.8-0.8v-3.8
				C53.6,45.1,52.2,43.8,50.6,43.8z M50.6,45.5c0.7,0,1.3,0.6,1.3,1.3v0.4h-2.5v-0.4C49.3,46.1,49.9,45.5,50.6,45.5z M49.3,49.7
				v-0.8h2.5v0.8H49.3z"/>
		</g>
	</g>
	<g>
		<g>
			<rect x="27.3" y="54.8" class="st2" width="4.2" height="5.1"/>
		</g>
		<g>
			<path class="st18" d="M31.5,54h-4.2c-0.5,0-0.8,0.4-0.8,0.8v5.1c0,0.5,0.4,0.8,0.8,0.8h4.2c0.5,0,0.8-0.4,0.8-0.8v-5.1
				C32.4,54.4,32,54,31.5,54z M30.7,55.7v0.8h-2.5v-0.8H30.7z M28.1,59.1v-0.8h2.5v0.8H28.1z"/>
		</g>
	</g>
	<g>
		<g>
			<rect x="19.6" y="54.8" class="st2" width="4.2" height="5.1"/>
		</g>
		<g>
			<path class="st18" d="M23.9,54h-4.2c-0.5,0-0.8,0.4-0.8,0.8v5.1c0,0.5,0.4,0.8,0.8,0.8h4.2c0.5,0,0.8-0.4,0.8-0.8v-5.1
				C24.7,54.4,24.3,54,23.9,54z M23,55.7v0.8h-2.5v-0.8H23z M20.5,59.1v-0.8H23v0.8H20.5z"/>
		</g>
	</g>
	<g>
		<g>
			<rect x="56.1" y="54.8" class="st2" width="4.2" height="5.1"/>
		</g>
		<g>
			<path class="st18" d="M60.3,54h-4.2c-0.5,0-0.8,0.4-0.8,0.8v5.1c0,0.5,0.4,0.8,0.8,0.8h4.2c0.5,0,0.8-0.4,0.8-0.8v-5.1
				C61.2,54.4,60.8,54,60.3,54z M59.5,55.7v0.8h-2.5v-0.8H59.5z M56.9,59.1v-0.8h2.5v0.8H56.9z"/>
		</g>
	</g>
	<g>
		<g>
			<rect x="48.5" y="54.8" class="st2" width="4.2" height="5.1"/>
		</g>
		<g>
			<path class="st18" d="M52.7,54h-4.2c-0.5,0-0.8,0.4-0.8,0.8v5.1c0,0.5,0.4,0.8,0.8,0.8h4.2c0.5,0,0.8-0.4,0.8-0.8v-5.1
				C53.5,54.4,53.2,54,52.7,54z M51.8,55.7v0.8h-2.5v-0.8H51.8z M49.3,59.1v-0.8h2.5v0.8H49.3z"/>
		</g>
	</g>
	<g>
		<g>
			<path class="st2" d="M60.3,46.8c0-1.2-0.9-2.1-2.1-2.1c-1.2,0-2.1,0.9-2.1,2.1c0,0.1,0,0.3,0,0.4h0v3.4h4.2v-3.4h0
				C60.3,47.1,60.3,46.9,60.3,46.8z"/>
		</g>
		<g>
			<path class="st18" d="M58.2,43.8c-1.6,0-3,1.3-3,3v3.8c0,0.5,0.4,0.8,0.8,0.8h4.2c0.5,0,0.8-0.4,0.8-0.8v-3.8
				C61.2,45.1,59.8,43.8,58.2,43.8z M58.2,45.5c0.7,0,1.3,0.6,1.3,1.3v0.4h-2.5v-0.4C56.9,46.1,57.5,45.5,58.2,45.5z M56.9,49.7
				v-0.8h2.5v0.8H56.9z"/>
		</g>
	</g>
	<g>
		<g>
			<path class="st2" d="M23.9,46.8c0-1.2-0.9-2.1-2.1-2.1c-1.2,0-2.1,0.9-2.1,2.1c0,0.1,0,0.3,0,0.4h0v3.4h4.2v-3.4h0
				C23.8,47.1,23.9,46.9,23.9,46.8z"/>
		</g>
		<g>
			<path class="st18" d="M21.8,43.8c-1.6,0-3,1.3-3,3v3.8c0,0.5,0.4,0.8,0.8,0.8h4.2c0.5,0,0.8-0.4,0.8-0.8v-3.8
				C24.7,45.1,23.4,43.8,21.8,43.8z M21.8,45.5c0.7,0,1.3,0.6,1.3,1.3v0.4h-2.5v-0.4C20.5,46.1,21.1,45.5,21.8,45.5z M20.5,49.7
				v-0.8H23v0.8H20.5z"/>
		</g>
	</g>
	<g>
		<g>
			<path class="st2" d="M31.5,46.8c0-1.2-0.9-2.1-2.1-2.1s-2.1,0.9-2.1,2.1c0,0.1,0,0.3,0,0.4h0v3.4h4.2v-3.4h0
				C31.4,47.1,31.5,46.9,31.5,46.8z"/>
		</g>
		<g>
			<path class="st18" d="M29.4,43.8c-1.6,0-3,1.3-3,3v3.8c0,0.5,0.4,0.8,0.8,0.8h4.2c0.5,0,0.8-0.4,0.8-0.8v-3.8
				C32.3,45.1,31,43.8,29.4,43.8z M29.4,45.5c0.7,0,1.3,0.6,1.3,1.3v0.4h-2.5v-0.4C28.1,46.1,28.7,45.5,29.4,45.5z M28.1,49.7v-0.8
				h2.5v0.8H28.1z"/>
		</g>
	</g>
	<g>
		<path class="st18" d="M40,47.2c-3.3,0-5.9-2.7-5.9-5.9s2.7-5.9,5.9-5.9s5.9,2.7,5.9,5.9S43.3,47.2,40,47.2z M40,37
			c-2.3,0-4.2,1.9-4.2,4.2s1.9,4.2,4.2,4.2s4.2-1.9,4.2-4.2S42.3,37,40,37z"/>
	</g>
	<g>
		<path class="st18" d="M43.4,49.7h-6.8c-1.4,0-2.5,1.1-2.5,2.5v11.9c0,0.5,0.4,0.8,0.8,0.8c0.5,0,0.8-0.4,0.8-0.8v-9.3h3.4v9.3h1.7
			v-9.3h3.4v9.3c0,0.5,0.4,0.8,0.8,0.8c0.5,0,0.8-0.4,0.8-0.8V52.3C45.9,50.9,44.8,49.7,43.4,49.7z M44.2,53.1h-8.5v-0.8
			c0-0.5,0.4-0.8,0.8-0.8h6.8c0.5,0,0.8,0.4,0.8,0.8V53.1z"/>
	</g>
	<g>
		<g>
			<path class="st8" d="M66.3,65H13.7c-0.5,0-0.8-0.4-0.8-0.8c0-0.5,0.4-0.8,0.8-0.8h52.5c0.5,0,0.8,0.4,0.8,0.8
				C67.1,64.6,66.7,65,66.3,65z"/>
		</g>
	</g>
</g>
</svg>
