<?xml version="1.0" encoding="utf-8"?>
<!-- Generator: Adobe Illustrator 21.0.0, SVG Export Plug-In . SVG Version: 6.00 Build 0)  -->
<svg version="1.1" id="Layer_1" xmlns="http://www.w3.org/2000/svg" xmlns:xlink="http://www.w3.org/1999/xlink" x="0px" y="0px"
	 viewBox="0 0 80 80" style="enable-background:new 0 0 80 80;" xml:space="preserve">
<style type="text/css">
	.st0{fill:#FFFFFF;}
	.st1{fill:#996459;}
	.st2{fill:#4BB9EC;}
	.st3{fill:#009BCA;}
	.st4{fill:#3482AC;}
	.st5{fill:#B4B6BC;}
	.st6{fill:#FFDCAD;}
	.st7{fill:#AEEFFF;}
	.st8{fill:#5C546A;}
	.st9{fill:#868491;}
	.st10{fill:#5D647F;}
	.st11{fill:#68748D;}
	.st12{fill:#FFE671;}
	.st13{fill:#FFCD00;}
	.st14{fill:#E3001E;}
	.st15{fill:#FF4F19;}
	.st16{fill:#E6BE94;}
	.st17{fill:#FFEBB7;}
	.st18{fill:#7E5C62;}
	.st19{fill:#60DC4D;}
	.st20{fill:#FF8C62;}
	.st21{fill:#00C37A;}
	.st22{fill:#BA7958;}
	.st23{fill:#FFD788;}
	.st24{fill:#E6BE8A;}
	.st25{fill:#C9A07C;}
</style>
<circle class="st0" cx="40" cy="40" r="40"/>
<g>
	<g>
		<path class="st14" d="M50.9,18.9h3.9c0.9,0,1.6,0.7,1.6,1.6v9c0,0.3-0.2,0.6-0.5,0.7c-0.1,0-0.2,0-0.3,0c-0.2,0-0.5-0.1-0.6-0.3
			l-5.5-6.6c-0.1-0.1-0.2-0.3-0.2-0.5v-2.3C49.4,19.6,50.1,18.9,50.9,18.9z"/>
	</g>
	<g>
		<path class="st14" d="M29.1,18.9h-3.9c-0.9,0-1.6,0.7-1.6,1.6v9c0,0.3,0.2,0.6,0.5,0.7c0.1,0,0.2,0,0.3,0c0.2,0,0.5-0.1,0.6-0.3
			l5.5-6.6c0.1-0.1,0.2-0.3,0.2-0.5v-2.3C30.7,19.6,30,18.9,29.1,18.9z"/>
	</g>
	<g>
		<g>
			<path class="st8" d="M46.3,21.3c-0.4,0-0.8-0.3-0.8-0.8v-2.3c0-0.4-0.3-0.8-0.8-0.8h-9.4c-0.4,0-0.8,0.3-0.8,0.8v2.3
				c0,0.4-0.3,0.8-0.8,0.8S33,20.9,33,20.5v-2.3c0-1.7,1.4-3.1,3.1-3.1h7.8c1.7,0,3.1,1.4,3.1,3.1v2.3
				C47.1,20.9,46.7,21.3,46.3,21.3z"/>
		</g>
	</g>
	<g>
		<path class="st15" d="M22.8,41.6h-1.6c-1.3,0-2.3,1.1-2.3,2.3V58c0,1.3,1.1,2.3,2.3,2.3h1.6c0.4,0,0.8-0.3,0.8-0.8V42.3
			C23.6,41.9,23.3,41.6,22.8,41.6z"/>
	</g>
	<g>
		<rect x="18.9" y="46.3" class="st14" width="3.9" height="1.6"/>
	</g>
	<g>
		<path class="st15" d="M57.2,41.6h1.5c1.3,0,2.3,1.1,2.3,2.3V58c0,1.3-1,2.3-2.3,2.3h-1.5c-0.4,0-0.8-0.3-0.8-0.8V42.3
			C56.4,41.9,56.8,41.6,57.2,41.6z"/>
	</g>
	<g>
		<rect x="57.2" y="46.3" class="st14" width="3.9" height="1.6"/>
	</g>
	<g>
		<path class="st13" d="M40,18.9c-9.9,0-18,8.1-18,18V58c0,3.9,3.2,7,7,7H51c3.9,0,7-3.2,7-7V36.9C58,27,49.9,18.9,40,18.9z"/>
	</g>
	<g>
		<path class="st15" d="M51,41.6H29.1c-1.3,0-2.3,1.1-2.3,2.3V58c0,1.3,1.1,2.3,2.3,2.3H51c1.3,0,2.3-1.1,2.3-2.3V43.9
			C53.3,42.6,52.3,41.6,51,41.6z"/>
	</g>
	<g>
		<path class="st15" d="M46.5,27.1c-1.9-1.3-4.1-1.9-6.4-1.9s-4.5,0.7-6.4,1.9c-0.9,0.6-1.4,1.5-1.4,2.6v7.2c0,0.4,0.3,0.8,0.8,0.8
			h14.1c0.4,0,0.8-0.3,0.8-0.8v-7.2C47.8,28.6,47.3,27.7,46.5,27.1z"/>
	</g>
	<g>
		<g>
			<path class="st14" d="M41.6,30.6h-3.1c-0.9,0-1.6-0.7-1.6-1.6s0.7-1.6,1.6-1.6h3.1c0.9,0,1.6,0.7,1.6,1.6S42.4,30.6,41.6,30.6z"
				/>
		</g>
	</g>
	<g>
		<rect x="26.7" y="46.3" class="st14" width="26.6" height="1.6"/>
	</g>
	<g>
		<g>
			<path class="st8" d="M32.2,50.9c-0.4,0-0.8-0.3-0.8-0.8V47c0-0.4,0.3-0.8,0.8-0.8c0.4,0,0.8,0.3,0.8,0.8v3.1
				C33,50.6,32.7,50.9,32.2,50.9z"/>
		</g>
	</g>
	<g>
		<path class="st12" d="M33,54.1h-1.6c-0.4,0-0.8-0.3-0.8-0.8v-2.3c0-0.9,0.7-1.6,1.6-1.6l0,0c0.9,0,1.6,0.7,1.6,1.6v2.3
			C33.8,53.7,33.4,54.1,33,54.1z"/>
	</g>
	<g>
		<path class="st15" d="M55.6,36.1c-0.4,0-0.7-0.3-0.8-0.7C54,27.8,47.7,22,40,22s-14,5.7-14.8,13.3c0,0.4-0.4,0.7-0.8,0.7h-2.4
			c0,0.3,0,0.5,0,0.8v0.8h2.4c1.2,0,2.2-0.9,2.3-2.1c0.7-6.8,6.4-11.9,13.2-11.9s12.5,5.1,13.2,11.9c0.1,1.2,1.1,2.1,2.3,2.1H58
			c0,0,0,0,0,0v-0.8c0-0.3,0-0.5,0-0.8c0,0,0,0,0,0H55.6z"/>
	</g>
</g>
</svg>
