<?xml version="1.0" encoding="utf-8"?>
<!-- Generator: Adobe Illustrator 21.0.0, SVG Export Plug-In . SVG Version: 6.00 Build 0)  -->
<svg version="1.1" id="Layer_1" xmlns="http://www.w3.org/2000/svg" xmlns:xlink="http://www.w3.org/1999/xlink" x="0px" y="0px"
	 viewBox="0 0 80 80" style="enable-background:new 0 0 80 80;" xml:space="preserve">
<style type="text/css">
	.st0{fill:#FFFFFF;}
	.st1{fill:#996459;}
	.st2{fill:#4BB9EC;}
	.st3{fill:#009BCA;}
	.st4{fill:#3482AC;}
	.st5{fill:#B4B6BC;}
	.st6{fill:#FFDCAD;}
	.st7{fill:#AEEFFF;}
	.st8{fill:#5C546A;}
	.st9{fill:#868491;}
	.st10{fill:#5D647F;}
	.st11{fill:#68748D;}
	.st12{fill:#FFE671;}
	.st13{fill:#FFCD00;}
	.st14{fill:#E3001E;}
	.st15{fill:#FF4F19;}
	.st16{fill:#E6BE94;}
	.st17{fill:#FFEBB7;}
	.st18{fill:#7E5C62;}
	.st19{fill:#60DC4D;}
	.st20{fill:#FF8C62;}
	.st21{fill:#00C37A;}
	.st22{fill:#BA7958;}
	.st23{fill:#FFD788;}
	.st24{fill:#E6BE8A;}
	.st25{fill:#C9A07C;}
</style>
<circle class="st0" cx="40" cy="40" r="40"/>
<g>
	<g>
		<g>
			<path class="st18" d="M40,30.6c-0.4,0-0.8-0.3-0.8-0.8c0-4.9-0.8-11.4-2.9-13.5c-0.3-0.3-0.3-0.8,0-1.1c0.3-0.3,0.8-0.3,1.1,0
				c3.1,3,3.4,12,3.4,14.6C40.8,30.3,40.4,30.6,40,30.6z"/>
		</g>
	</g>
	<g>
		<path class="st15" d="M51,27.5c-2.8-0.4-5,0.2-6.9,0.8c-1.4,0.4-2.7,0.8-4.1,0.8s-2.7-0.4-4.1-0.8c-1.9-0.6-4.1-1.2-6.9-0.8
			c-4.6,0.7-10.2,3.4-10.2,12.2c0,8.3,2.8,19.7,10.6,24.4c2.1,1.2,4.4,0.9,6.9,0.5c1.2-0.2,2.5-0.4,3.7-0.4c1.2,0,2.5,0.2,3.7,0.4
			c1.2,0.2,2.4,0.4,3.5,0.4c1.2,0,2.4-0.2,3.4-0.9c7.8-4.7,10.6-16.1,10.6-24.4C61.1,30.9,55.6,28.2,51,27.5z"/>
	</g>
	<g>
		<path class="st14" d="M40,29.1L40,29.1c-1.4,0-2.7-0.4-4.1-0.8c-1.9-0.6-4.1-1.2-6.9-0.8c-4.6,0.7-10.2,3.4-10.2,12.2
			c0,8.3,2.8,19.7,10.6,24.4c2.1,1.2,4.4,0.9,6.9,0.5c1.2-0.2,2.5-0.4,3.7-0.4h0L40,29.1L40,29.1z"/>
	</g>
	<g>
		<path class="st19" d="M50.9,17.1c0.1-0.7,0.1-1.4,0-2.1c-0.6-0.1-1.3-0.1-2.1,0c-4.7,0.6-9,4.9-9.6,9.6c-0.1,0.7-0.1,1.4,0,2.1
			c0.6,0.1,1.3,0.1,2.1,0C46,26.1,50.3,21.8,50.9,17.1z"/>
	</g>
	<g>
		<circle class="st20" cx="52.5" cy="36.1" r="3.9"/>
	</g>
	<g>
		<path class="st21" d="M50.8,15.1c-0.6-0.1-1.3-0.1-2,0c-4.7,0.6-9,4.9-9.6,9.6c-0.1,0.7-0.1,1.4,0,2L50.8,15.1z"/>
	</g>
</g>
</svg>
