<?xml version="1.0" encoding="utf-8"?>
<!-- Generator: Adobe Illustrator 21.0.0, SVG Export Plug-In . SVG Version: 6.00 Build 0)  -->
<svg version="1.1" id="Layer_1" xmlns="http://www.w3.org/2000/svg" xmlns:xlink="http://www.w3.org/1999/xlink" x="0px" y="0px"
	 viewBox="0 0 80 80" style="enable-background:new 0 0 80 80;" xml:space="preserve">
<style type="text/css">
	.st0{fill:#FFFFFF;}
	.st1{fill:#996459;}
	.st2{fill:#4BB9EC;}
	.st3{fill:#009BCA;}
	.st4{fill:#3482AC;}
	.st5{fill:#B4B6BC;}
	.st6{fill:#FFDCAD;}
	.st7{fill:#AEEFFF;}
	.st8{fill:#5C546A;}
	.st9{fill:#868491;}
	.st10{fill:#5D647F;}
	.st11{fill:#68748D;}
	.st12{fill:#FFE671;}
	.st13{fill:#FFCD00;}
	.st14{fill:#E3001E;}
	.st15{fill:#FF4F19;}
	.st16{fill:#E6BE94;}
	.st17{fill:#FFEBB7;}
	.st18{fill:#7E5C62;}
	.st19{fill:#60DC4D;}
	.st20{fill:#FF8C62;}
	.st21{fill:#00C37A;}
	.st22{fill:#BA7958;}
	.st23{fill:#FFD788;}
	.st24{fill:#E6BE8A;}
	.st25{fill:#C9A07C;}
</style>
<circle class="st0" cx="40" cy="40" r="40"/>
<g>
	<g>
		<path class="st1" d="M57.6,50l-7.3-1.4c0,0-0.1,0-0.1,0H29.8c0,0-0.1,0-0.1,0L22.3,50c-3.8,1.1-5.7,4.8-5.7,7.9v4.3
			c0,1.6,1.4,2.8,3.1,2.8h40.6c1.7,0,3.1-1.3,3.1-2.8v-4.3C63.4,54.8,61.5,51,57.6,50z"/>
	</g>
	<g>
		<path class="st2" d="M43.8,65l-1.5-8.7c-0.1-0.4-0.4-0.7-0.8-0.7h-3.1c-0.4,0-0.7,0.3-0.8,0.7L36.2,65H43.8L43.8,65z"/>
	</g>
	<g>
		<path class="st3" d="M38.4,55.6c-0.2,0-0.4,0.1-0.5,0.2l5.2,5.2l-0.4-2.7l-2.8-2.8H38.4z"/>
	</g>
	<g>
		<path class="st4" d="M43.1,51.7c0-0.4-0.4-0.8-0.8-0.8h-3.9c-0.3,0-0.6,0.2-0.7,0.4L37,52.9c-0.1,0.1-0.1,0.2-0.1,0.4l0,1.5
			c0,1.3,1.1,2.3,2.3,2.3h1.6c1.3,0,2.3-1.1,2.3-2.3L43.1,51.7z"/>
	</g>
	<g>
		<path class="st5" d="M40.4,48.7l-7-3.9c-0.3-0.2-0.8-0.1-1,0.2l-2.9,3.9c-0.2,0.3-0.2,0.6,0,0.9l4.8,7c0.3,0.4,0.7,0.6,1.1,0.7
			c0.1,0,0.1,0,0.2,0c0.4,0,0.8-0.2,1.1-0.5c0,0,0,0,0.1-0.1l3.2-4c0,0,0.1-0.1,0.1-0.1l0.8-1.5c0.1-0.1,0.1-0.2,0.1-0.4v-1.6
			C40.8,49.1,40.6,48.8,40.4,48.7z"/>
	</g>
	<g>
		<path class="st5" d="M39.6,48.7l7-3.9c0.3-0.2,0.8-0.1,1,0.2l2.9,3.9c0.2,0.3,0.2,0.6,0,0.9l-4.8,7c-0.3,0.4-0.7,0.6-1.1,0.7
			c-0.1,0-0.1,0-0.2,0c-0.4,0-0.8-0.2-1.1-0.5c0,0,0,0-0.1-0.1l-3.2-4c0,0-0.1-0.1-0.1-0.1l-0.8-1.5c-0.1-0.1-0.1-0.2-0.1-0.4v-1.6
			C39.2,49.1,39.4,48.8,39.6,48.7z"/>
	</g>
	<g>
		<path class="st6" d="M50.9,29.9l-1.5-1.6c0,0-5.3-1.4-16.4,0l-4.7,1.6c0,1.1,0,1.7,0,5.5c0,7.8,5.2,14.1,11.7,14.1
			s11.7-6.3,11.7-14.1c0-1.3,0-3.7,0-5.5C51.5,30.1,50.9,29.9,50.9,29.9z"/>
	</g>
	<g>
		<circle class="st7" cx="35.3" cy="35.3" r="3.1"/>
	</g>
	<g>
		<path class="st0" d="M35.3,32.2c-0.9,0-1.6,0.3-2.2,0.9l4.4,4.4c0.6-0.6,0.9-1.3,0.9-2.2C38.4,33.6,37,32.2,35.3,32.2z"/>
	</g>
	<g>
		<circle class="st7" cx="44.7" cy="35.3" r="3.1"/>
	</g>
	<g>
		<path class="st0" d="M44.7,32.2c-0.9,0-1.6,0.3-2.2,0.9l4.4,4.4c0.6-0.6,0.9-1.3,0.9-2.2C47.8,33.6,46.4,32.2,44.7,32.2z"/>
	</g>
	<g>
		<g>
			<path class="st8" d="M41.6,36.1c-0.4,0-0.8-0.3-0.8-0.8c0-0.4-0.4-0.8-0.8-0.8c-0.4,0-0.8,0.4-0.8,0.8c0,0.4-0.3,0.8-0.8,0.8
				s-0.8-0.3-0.8-0.8c0-1.3,1.1-2.3,2.3-2.3c1.3,0,2.3,1.1,2.3,2.3C42.4,35.8,42,36.1,41.6,36.1z"/>
		</g>
	</g>
	<g>
		<g>
			<path class="st8" d="M32.2,35.3h-3.9c-0.4,0-0.8-0.3-0.8-0.8c0-0.4,0.3-0.8,0.8-0.8h3.9c0.4,0,0.8,0.3,0.8,0.8
				C33,35,32.6,35.3,32.2,35.3z"/>
		</g>
	</g>
	<g>
		<g>
			<path class="st8" d="M51.7,35.3h-3.9c-0.4,0-0.8-0.3-0.8-0.8c0-0.4,0.3-0.8,0.8-0.8h3.9c0.4,0,0.8,0.3,0.8,0.8
				C52.5,35,52.1,35.3,51.7,35.3z"/>
		</g>
	</g>
	<g>
		<g>
			<path class="st9" d="M35.3,39.2c-2.2,0-3.9-1.8-3.9-3.9c0-2.2,1.8-3.9,3.9-3.9s3.9,1.8,3.9,3.9C39.2,37.5,37.5,39.2,35.3,39.2z
				 M35.3,33C34,33,33,34,33,35.3c0,1.3,1.1,2.3,2.3,2.3s2.3-1.1,2.3-2.3C37.7,34,36.6,33,35.3,33z"/>
		</g>
	</g>
	<g>
		<g>
			<path class="st9" d="M44.7,39.2c-2.2,0-3.9-1.8-3.9-3.9c0-2.2,1.8-3.9,3.9-3.9s3.9,1.8,3.9,3.9C48.6,37.5,46.9,39.2,44.7,39.2z
				 M44.7,33c-1.3,0-2.3,1.1-2.3,2.3c0,1.3,1.1,2.3,2.3,2.3s2.3-1.1,2.3-2.3C47,34,46,33,44.7,33z"/>
		</g>
	</g>
	<g>
		<g>
			<path class="st0" d="M36.7,42.6c-0.4,0-0.8-0.1-1.2-0.6c-0.3-0.3-0.2-0.8,0.1-1.1c0.3-0.3,0.8-0.2,1.1,0.1c0.1,0,0.5-0.1,0.8-0.2
				c0.8-0.3,1.9-0.7,3,0.1c0.4,0.3,0.4,0.7,0.2,1.1c-0.3,0.4-0.7,0.4-1.1,0.2c-0.4-0.3-0.8-0.1-1.6,0.1
				C37.6,42.4,37.1,42.6,36.7,42.6z"/>
		</g>
	</g>
	<g>
		<g>
			<path class="st0" d="M43.3,42.6c-0.5,0-0.9-0.2-1.3-0.3c-0.7-0.2-1.2-0.4-1.6-0.1c-0.4,0.3-0.8,0.2-1.1-0.2
				c-0.3-0.4-0.2-0.8,0.2-1.1c1-0.7,2.2-0.4,3-0.1c0.3,0.1,0.7,0.2,0.8,0.2c0.3-0.3,0.7-0.4,1.1-0.1c0.3,0.3,0.4,0.8,0.1,1.1
				C44.2,42.5,43.8,42.6,43.3,42.6z"/>
		</g>
	</g>
	<g>
		<path class="st0" d="M43.1,44.6c0-0.4-0.4-0.7-0.8-0.7h-4.7c-0.4,0-0.8,0.3-0.8,0.7c0,0.2-0.3,5.8,2.5,9.1
			c0.1,0.2,0.4,0.3,0.6,0.3s0.4-0.1,0.6-0.3C43.4,50.4,43.1,44.9,43.1,44.6z"/>
	</g>
	<g>
		<g>
			<path class="st8" d="M55.6,35.3c-0.4,0-0.8-0.3-0.8-0.8v-9.3c0-0.4,0.3-0.8,0.8-0.8c0.4,0,0.8,0.3,0.8,0.8v9.3
				C56.4,35,56.1,35.3,55.6,35.3z"/>
		</g>
	</g>
	<g>
		<path class="st8" d="M58.2,20.9l-15.9-5.4c-1.7-0.6-3.6-0.6-5.3,0L21,20.9c-0.8,0.3-1.4,1-1.4,1.9c0,0.9,0.5,1.6,1.4,1.9l7.8,2.7
			c0.1,0,0.2,0,0.3,0c0,0,0,0,0,0L51,27.2c0.1,0,0.2,0,0.2,0l7-2.4c0.8-0.3,1.4-1,1.4-1.9C59.5,21.9,59,21.2,58.2,20.9z"/>
	</g>
	<g>
		<g>
			<path class="st10" d="M37.3,28.8c0.8-0.1,1.7-0.1,2.7-0.1c1,0,1.9,0,2.7,0.1c3.2,0.2,7,0.7,9,1.8v-6.3c0-2.7-6.1-3.9-11.7-3.9
				s-11.7,1.2-11.7,3.9v6.3C30.4,29.5,34.1,29,37.3,28.8z"/>
		</g>
		<g>
			<path class="st8" d="M40,24.8c-3.4,0-9,0.4-11.7,1.9v2c0-0.7,4.1-2.3,11.7-2.3s11.7,1.7,11.7,2.3v-2C49,25.2,43.4,24.8,40,24.8z"
				/>
		</g>
		<g>
			<path class="st11" d="M40,20.5C40,20.5,40,20.5,40,20.5l0,8.2c0,0,0,0,0,0c1,0,1.9,0,2.7,0.1c3.2,0.2,7,0.7,9,1.8v-6.3
				C51.7,21.7,45.6,20.5,40,20.5z"/>
		</g>
		<g>
			<path class="st10" d="M40,24.8v1.6c0,0,0,0,0,0c7.6,0,11.7,1.7,11.7,2.3v-2C49,25.2,43.4,24.8,40,24.8C40,24.8,40,24.8,40,24.8z"
				/>
		</g>
	</g>
	<g>
		<path class="st12" d="M56.4,40h-1.6c-0.4,0-0.8-0.3-0.8-0.8v-3.1c0-0.9,0.7-1.6,1.6-1.6l0,0c0.9,0,1.6,0.7,1.6,1.6v3.1
			C57.2,39.7,56.8,40,56.4,40z"/>
	</g>
	<g>
		<path class="st13" d="M54.1,36.1v3.1c0,0.4,0.3,0.8,0.8,0.8h0.8v-5.5C54.8,34.5,54.1,35.2,54.1,36.1z"/>
	</g>
	<g>
		<path class="st5" d="M24.4,59.8c0-1.7-0.7-3.2-1.8-4.4l-3.5-3.5c-1.7,1.6-2.5,3.9-2.5,6v4.3c0,1.6,1.4,2.8,3.1,2.8h4.7L24.4,59.8
			L24.4,59.8L24.4,59.8z"/>
	</g>
	<g>
		<path class="st5" d="M60.9,51.9l-3.5,3.5c-1.2,1.2-1.8,2.8-1.8,4.4V65h4.7c1.7,0,3.1-1.3,3.1-2.8v-4.3
			C63.4,55.8,62.6,53.5,60.9,51.9z"/>
	</g>
	<g>
		<polygon class="st3" points="37.4,58 37.1,59.9 42.2,65 43.8,65 43.7,64.2 		"/>
	</g>
	<g>
		<polygon class="st3" points="36.4,64 37.3,65 39.5,65 36.7,62.2 		"/>
	</g>
</g>
</svg>
