<?xml version="1.0" standalone="no"?>
<!DOCTYPE svg PUBLIC "-//W3C//DTD SVG 20010904//EN"
 "http://www.w3.org/TR/2001/REC-SVG-20010904/DTD/svg10.dtd">
<svg version="1.0" xmlns="http://www.w3.org/2000/svg"
 width="370.000000pt" height="370.000000pt" viewBox="0 0 370.000000 370.000000"
 preserveAspectRatio="xMidYMid meet">
<metadata>
Created by potrace 1.11, written by Peter Selinger 2001-2013
</metadata>
<g transform="translate(0.000000,370.000000) scale(0.100000,-0.100000)"
fill="#000000" stroke="none">
<path d="M2100 1850 l0 -1040 60 0 60 0 0 513 0 514 28 39 c178 246 551 216
684 -54 l33 -67 3 -472 3 -473 59 0 60 0 0 448 c0 494 -4 531 -61 643 -41 82
-129 169 -211 207 -186 88 -418 65 -559 -56 l-39 -34 0 436 0 436 -60 0 -60 0
0 -1040z"/>
<path d="M888 2146 c-26 -7 -72 -29 -103 -49 -30 -21 -55 -33 -55 -27 0 6 -26
10 -60 10 l-60 0 0 -635 0 -635 60 0 60 0 0 518 c0 584 -2 561 80 641 57 55
113 75 198 69 77 -6 111 -21 166 -74 78 -76 76 -55 76 -636 l0 -518 60 0 60 0
0 513 c1 552 1 550 55 621 45 59 105 88 191 94 65 4 80 2 128 -22 64 -31 118
-89 134 -145 9 -27 12 -191 12 -550 l0 -511 60 0 61 0 -3 533 -3 532 -27 57
c-37 80 -107 152 -187 191 -60 29 -74 32 -161 32 -85 0 -101 -3 -154 -29 -33
-16 -85 -53 -115 -82 l-54 -53 -40 45 c-91 103 -241 147 -379 110z"/>
</g>
</svg>
