<?xml version="1.0" encoding="utf-8"?>
<!-- Generator: Adobe Illustrator 19.2.0, SVG Export Plug-In . SVG Version: 6.00 Build 0)  -->
<svg version="1.1" id="Layer_1" xmlns="http://www.w3.org/2000/svg" xmlns:xlink="http://www.w3.org/1999/xlink" x="0px" y="0px"
	 viewBox="0 0 50 50" style="enable-background:new 0 0 50 50;" xml:space="preserve">
<style type="text/css">
	.st0{fill:#FFFFFF;}
</style>
<g>
	<path class="st0" d="M45.5,10.2h-9.9V8.6c0-3.3-2.7-5.9-5.9-5.9h-9.3c-3.3,0-5.9,2.7-5.9,5.9v1.7H4.5c-2.1,0-3.8,1.7-3.8,3.8v29.6
		c0,2.1,1.7,3.8,3.8,3.8h41c2.1,0,3.8-1.7,3.8-3.8V14C49.3,11.9,47.6,10.2,45.5,10.2L45.5,10.2z M15.8,8.6c0-2.5,2-4.5,4.5-4.5h9.3
		c2.5,0,4.5,2,4.5,4.5v1.7h-1.6V8.6c0-1.6-1.3-2.9-2.9-2.9h-9.3c-1.6,0-2.9,1.3-2.9,2.9v1.7h-1.6V8.6z M31.1,10.2H18.9V8.6
		c0-0.8,0.7-1.5,1.5-1.5h9.3c0.8,0,1.5,0.7,1.5,1.5V10.2z M45.5,45.9h-41c-1.3,0-2.3-1-2.3-2.3v-10c0.6,0.5,1.4,0.8,2.3,0.8h3.8v3.1
		c0,1.2,1,2.2,2.2,2.2c1.2,0,2.2-1,2.2-2.2v-7.6c0-1.2-1-2.2-2.2-2.2c-1.2,0-2.2,1-2.2,2.2V33H4.5c-1.3,0-2.3-1-2.3-2.3V14
		c0-1.3,1-2.3,2.3-2.3h41c1.3,0,2.3,1,2.3,2.3v16.7c0,1.3-1,2.3-2.3,2.3h-2.3c-0.4,0-0.7,0.3-0.7,0.7c0,0.4,0.3,0.7,0.7,0.7h2.3
		c0.9,0,1.7-0.3,2.3-0.8v10C47.8,44.9,46.8,45.9,45.5,45.9L45.5,45.9z M9.8,35.8c0.3,0.1,0.5,0.2,0.8,0.2c0.3,0,0.6-0.1,0.8-0.2v1.7
		c0,0.4-0.4,0.8-0.8,0.8c-0.4,0-0.8-0.4-0.8-0.8V35.8z M11.4,33.7c0,0.4-0.4,0.8-0.8,0.8c-0.4,0-0.8-0.4-0.8-0.8v-3.8
		c0-0.4,0.4-0.8,0.8-0.8c0.4,0,0.8,0.4,0.8,0.8V33.7z M11.4,33.7"/>
	<path class="st0" d="M38.7,27.7c-1.2,0-2.2,1-2.2,2.2V33H15.1c-0.4,0-0.7,0.3-0.7,0.7c0,0.4,0.3,0.7,0.7,0.7h21.3v3.1
		c0,1.2,1,2.2,2.2,2.2c1.2,0,2.2-1,2.2-2.2v-7.6C40.9,28.7,39.9,27.7,38.7,27.7L38.7,27.7z M37.9,29.9c0-0.4,0.4-0.8,0.8-0.8
		c0.4,0,0.8,0.4,0.8,0.8v3.8c0,0.4-0.4,0.8-0.8,0.8c-0.4,0-0.8-0.4-0.8-0.8V29.9z M38.7,38.3c-0.4,0-0.8-0.4-0.8-0.8v-1.7
		c0.3,0.1,0.5,0.2,0.8,0.2c0.3,0,0.6-0.1,0.8-0.2v1.7C39.5,38,39.1,38.3,38.7,38.3L38.7,38.3z M38.7,38.3"/>
	<path class="st0" d="M20.4,31.4h9.1c0.4,0,0.7-0.3,0.7-0.7c0-0.4-0.3-0.7-0.7-0.7h-9.1c-0.4,0-0.7,0.3-0.7,0.7
		C19.7,31.1,20,31.4,20.4,31.4L20.4,31.4z M20.4,31.4"/>
</g>
</svg>
