<?xml version="1.0" encoding="utf-8"?>
<!-- Generator: Adobe Illustrator 19.2.0, SVG Export Plug-In . SVG Version: 6.00 Build 0)  -->
<svg version="1.1" id="Layer_1" xmlns="http://www.w3.org/2000/svg" xmlns:xlink="http://www.w3.org/1999/xlink" x="0px" y="0px"
	 viewBox="0 0 50 50" style="enable-background:new 0 0 50 50;" xml:space="preserve">
<style type="text/css">
	.st0{fill:#FFFFFF;}
</style>
<path class="st0" d="M25,28.9c-0.2,0-0.4-0.1-0.6-0.2L6.3,15.3C5.8,15,5.8,14.4,6.1,14c0.3-0.4,0.9-0.5,1.3-0.2l17.6,13l17.6-13
	c0.4-0.3,1-0.2,1.3,0.2c0.3,0.4,0.2,1-0.2,1.3L25.6,28.7C25.4,28.8,25.2,28.9,25,28.9L25,28.9z M25,28.9"/>
<path class="st0" d="M47.4,40.7H2.6c-0.5,0-1-0.4-1-1V10.2c0-0.5,0.4-1,1-1h44.8c0.5,0,1,0.4,1,1v29.6C48.4,40.3,48,40.7,47.4,40.7
	L47.4,40.7z M3.5,38.8h42.9V11.1H3.5V38.8z M3.5,38.8"/>
</svg>
