<?xml version="1.0" encoding="utf-8"?>
<!-- Generator: Adobe Illustrator 19.2.0, SVG Export Plug-In . SVG Version: 6.00 Build 0)  -->
<svg version="1.1" id="Layer_1" xmlns="http://www.w3.org/2000/svg" xmlns:xlink="http://www.w3.org/1999/xlink" x="0px" y="0px"
	 viewBox="0 0 50 50" style="enable-background:new 0 0 50 50;" xml:space="preserve">
<style type="text/css">
	.st0{fill:#FFFFFF;}
</style>
<g>
	<path class="st0" d="M25.7,17.4v-0.9c0-0.7-0.5-1.2-1.2-1.2c-0.7,0-1.2,0.5-1.2,1.2v0.9c-2.2,0.6-3.8,2.6-3.8,4.9
		c0,2.4,1.6,4.4,3.8,4.9v5.1c-1.1-0.5-2.1-1.5-2.4-1.9c-0.4-0.5-1.2-0.6-1.7-0.1c-0.5,0.4-0.6,1.2-0.1,1.7c0.2,0.3,2,2.4,4.3,3v0.9
		c0,0.7,0.5,1.2,1.2,1.2c0.7,0,1.2-0.5,1.2-1.2V35c2.2-0.5,3.9-2.5,3.9-4.9s-1.6-4.4-3.9-4.9V20c1.1,0.4,2.1,1.3,2.5,1.6
		c0.5,0.5,1.2,0.5,1.7,0c0.5-0.5,0.5-1.2,0-1.7C29.7,19.7,27.9,17.9,25.7,17.4L25.7,17.4z M21.9,22.4c0-1,0.5-1.9,1.3-2.3v4.6
		C22.5,24.2,21.9,23.4,21.9,22.4L21.9,22.4z M27.1,30.1c0,1-0.6,1.9-1.4,2.4v-4.7C26.5,28.2,27.1,29.1,27.1,30.1L27.1,30.1z
		 M27.1,30.1"/>
	<path class="st0" d="M44,34.2c-1.3,0-2.5,0.5-3.4,1.3l-3.5-2.3c1.1-2.1,1.8-4.4,1.8-6.9c0-3-0.9-5.8-2.5-8.1l2.3-1.9
		c0.8,0.5,1.8,0.8,2.8,0.8c2.9,0,5.2-2.4,5.2-5.2s-2.4-5.2-5.2-5.2c-2.9,0-5.2,2.4-5.2,5.2c0,1,0.3,1.9,0.7,2.6l-2.2,1.8
		c-2.6-2.7-6.3-4.4-10.3-4.4c-3.5,0-6.8,1.3-9.3,3.4l-4.7-4.6C11,9.8,11.3,8.9,11.3,8c0-2.9-2.4-5.2-5.2-5.2C3.1,2.7,0.8,5.1,0.8,8
		c0,2.9,2.4,5.2,5.2,5.2c1,0,2-0.3,2.8-0.8l4.6,4.6c-2.1,2.5-3.4,5.7-3.4,9.3c0,3.1,1,5.9,2.6,8.2l-4.4,3.7
		c-0.5-0.3-1.1-0.4-1.8-0.4c-2.1,0-3.9,1.7-3.9,3.8c0,2.1,1.7,3.9,3.9,3.9c2.1,0,3.8-1.7,3.8-3.9c0-0.6-0.1-1.2-0.4-1.7l4.2-3.5
		c2.6,2.6,6.2,4.3,10.2,4.3c1.9,0,3.7-0.4,5.3-1l1.1,2.2c-0.6,0.6-1,1.4-1,2.3c0,1.8,1.4,3.2,3.2,3.2c1.8,0,3.2-1.5,3.2-3.2
		c0-1.8-1.4-3.2-3.2-3.2c0,0,0,0,0,0L32,38.5c1.4-0.9,2.7-2,3.8-3.3l3.4,2.3c-0.3,0.6-0.4,1.3-0.4,2c0,2.9,2.4,5.2,5.2,5.2
		c2.9,0,5.2-2.4,5.2-5.2C49.2,36.6,46.9,34.2,44,34.2L44,34.2z M41.5,9c1.6,0,2.8,1.3,2.8,2.8c0,1.6-1.3,2.8-2.8,2.8
		s-2.8-1.3-2.8-2.8C38.7,10.3,40,9,41.5,9L41.5,9z M6.5,43c-0.8,0-1.4-0.6-1.4-1.4c0-0.8,0.6-1.4,1.4-1.4c0.8,0,1.4,0.6,1.4,1.4
		C7.9,42.4,7.3,43,6.5,43L6.5,43z M34,44.1c0,0.4-0.4,0.8-0.8,0.8c-0.4,0-0.8-0.4-0.8-0.8s0.4-0.8,0.8-0.8
		C33.6,43.3,34,43.6,34,44.1L34,44.1z M6,10.8c-1.6,0-2.8-1.3-2.8-2.8c0-1.6,1.3-2.8,2.8-2.8c1.6,0,2.8,1.3,2.8,2.8
		C8.8,9.5,7.6,10.8,6,10.8L6,10.8z M24.5,38.2c-6.6,0-12-5.4-12-12c0-6.6,5.4-12,12-12c6.6,0,12,5.4,12,12
		C36.4,32.8,31.1,38.2,24.5,38.2L24.5,38.2z M44,42.3c-1.6,0-2.8-1.3-2.8-2.8s1.3-2.8,2.8-2.8c1.6,0,2.8,1.3,2.8,2.8
		S45.5,42.3,44,42.3L44,42.3z M44,42.3"/>
</g>
</svg>
