<?xml version="1.0" encoding="utf-8"?>
<!-- Generator: Adobe Illustrator 19.2.0, SVG Export Plug-In . SVG Version: 6.00 Build 0)  -->
<svg version="1.1" id="Layer_1" xmlns="http://www.w3.org/2000/svg" xmlns:xlink="http://www.w3.org/1999/xlink" x="0px" y="0px"
	 viewBox="0 0 50 50" style="enable-background:new 0 0 50 50;" xml:space="preserve">
<style type="text/css">
	.st0{fill:#163847;}
</style>
<g>
	<path class="st0" d="M42.4,22.2c-0.7-0.9-1.8-1.2-2.9-0.9l0,0l-1.7-8.8c0-0.1-0.1-0.2-0.2-0.3l-2.7-2.4c-0.2-0.1-0.4-0.2-0.6-0.1
		c-0.2,0.1-0.3,0.3-0.4,0.5l-0.2,2.6l-13.4,7.3c-0.2,0.1-0.3,0.3-0.3,0.5v4.1h-2.5c-0.3,0-0.5,0.2-0.6,0.5l-0.6,4H8.2
		c-0.3,0-0.5,0.2-0.6,0.5l-0.6,4.2c0,0.2,0,0.3,0.1,0.5c0.1,0.1,0.3,0.2,0.4,0.2H14V35h-2.9c-1.5,0-2.7,1.2-2.7,2.7s1.2,2.7,2.7,2.7
		h17.2c1.5,0,2.7-1.2,2.7-2.7S29.8,35,28.3,35h-7.7v-0.4h5.1c0.2,0,0.3-0.1,0.4-0.2c0.1-0.1,0.2-0.3,0.1-0.5l-1.2-8.7
		c0-0.3-0.3-0.5-0.6-0.5h-0.6l0.4-2.3l10.3-6.6l4.9,11.6L39,28.2c-0.2,0.3-0.1,0.6,0.1,0.8c0.1,0.1,0.2,0.1,0.3,0.1
		c0.2,0,0.4-0.1,0.5-0.2l2.5-3.7C43.1,24.3,43,23.1,42.4,22.2L42.4,22.2z M28.3,36.1c0.8,0,1.5,0.7,1.5,1.5c0,0.8-0.7,1.5-1.5,1.5
		H11.1c-0.8,0-1.5-0.7-1.5-1.5c0-0.8,0.7-1.5,1.5-1.5H28.3z M15.2,35v-0.4h4.3V35H15.2z M25,33.1l0,0.3H8.3l0.4-3H17
		c0.3,0,0.5-0.2,0.6-0.5l0.6-4h0.5v3.3c0,1.4,1,2.6,2.3,3L25,33.1z M24,25.9l0.8,6L21.2,31c-0.9-0.2-1.5-1-1.5-1.8v-3.3H24z
		 M23.5,21.7c-0.1,0.1-0.2,0.2-0.3,0.4l-0.5,2.7h-1.6V21l12.8-7l0.3,0.8L23.5,21.7z M38,21.8l-2.6-6.9l-0.6-1.8l0.1-1.6l1.7,1.5
		l1.7,8.7L38,21.8z M41.5,24.5l-1.3,1.9l-1.7-3.6l1.4-0.5c0.6-0.2,1.2,0,1.6,0.5C41.8,23.4,41.8,24,41.5,24.5L41.5,24.5z M41.5,24.5
		"/>
	<path class="st0" d="M10.8,37.8c0.1,0.2,0.3,0.4,0.5,0.4c0.2,0,0.4-0.1,0.5-0.3c0.1-0.2,0-0.5-0.1-0.7c-0.2-0.2-0.5-0.2-0.7,0
		C10.8,37.3,10.7,37.5,10.8,37.8L10.8,37.8z M10.8,37.8"/>
	<path class="st0" d="M11,37.1C11,37.1,10.9,37.2,11,37.1L11,37.1z M11,37.1"/>
	<path class="st0" d="M27.6,37.8C27.6,37.8,27.6,37.8,27.6,37.8c0.2,0.4,0.6,0.5,0.9,0.2c0.3-0.3,0.1-0.9-0.3-1
		C27.8,37,27.5,37.4,27.6,37.8C27.6,37.8,27.6,37.8,27.6,37.8L27.6,37.8z M27.6,37.8"/>
	<path class="st0" d="M13,38.2h13.4c0.3,0,0.6-0.3,0.6-0.6c0-0.3-0.3-0.6-0.6-0.6H13c-0.3,0-0.6,0.3-0.6,0.6
		C12.4,37.9,12.7,38.2,13,38.2L13,38.2z M13,38.2"/>
	<path class="st0" d="M12.1,31.4H9.8c-0.3,0-0.6,0.3-0.6,0.6c0,0.3,0.3,0.6,0.6,0.6h2.3c0.3,0,0.6-0.3,0.6-0.6
		C12.6,31.6,12.4,31.4,12.1,31.4L12.1,31.4z M12.1,31.4"/>
</g>
</svg>
