<?xml version="1.0" encoding="utf-8"?>
<!-- Generator: Adobe Illustrator 19.2.0, SVG Export Plug-In . SVG Version: 6.00 Build 0)  -->
<svg version="1.1" id="Layer_1" xmlns="http://www.w3.org/2000/svg" xmlns:xlink="http://www.w3.org/1999/xlink" x="0px" y="0px"
	 viewBox="0 0 50 50" style="enable-background:new 0 0 50 50;" xml:space="preserve">
<style type="text/css">
	.st0{fill:#163847;}
</style>
<g>
	<path class="st0" d="M23.9,17h-0.1v-1.5c0-0.4-0.3-0.8-0.8-0.8h-4.7c-0.4,0-0.8,0.3-0.8,0.8V17h-0.1c-0.4,0-0.8,0.3-0.8,0.8v23.6
		c0,1.4,1.2,2.6,2.6,2.6H22c1.4,0,2.6-1.2,2.6-2.6V17.8C24.6,17.3,24.3,17,23.9,17L23.9,17z M19.1,16.3h3.1V17h-3.1V16.3z
		 M23.1,41.4c0,0.6-0.5,1-1,1h-2.8c-0.6,0-1-0.5-1-1V18.5h4.9V41.4z M23.1,41.4"/>
	<path class="st0" d="M32.6,29.6h-0.1v-1.8c0-0.4-0.3-0.8-0.8-0.8h-0.9V19h0c0.4,0,0.8-0.3,0.8-0.8c0-0.4-0.3-0.8-0.8-0.8h0v-0.2H31
		c0.4,0,0.8-0.3,0.8-0.8c0-0.4-0.3-0.8-0.8-0.8h-0.2v-0.2h0.5c0.4,0,0.8-0.3,0.8-0.8c0-0.4-0.3-0.8-0.8-0.8h-0.5v-0.2h0.9
		c0.4,0,0.8-0.3,0.8-0.8c0-0.4-0.3-0.8-0.8-0.8h-0.9V12h0.5c0.4,0,0.8-0.3,0.8-0.8c0-0.4-0.3-0.8-0.8-0.8h-0.5v-0.2H31
		c0.4,0,0.8-0.3,0.8-0.8c0-0.4-0.3-0.8-0.8-0.8h-0.2V8.5h0c0.4,0,0.8-0.3,0.8-0.8c0-0.4-0.3-0.8-0.8-0.8h0V6.8
		c0-0.4-0.3-0.8-0.8-0.8c-0.4,0-0.8,0.3-0.8,0.8v0.1h0c-0.4,0-0.8,0.3-0.8,0.8c0,0.4,0.3,0.8,0.8,0.8h0v0.2h-0.2
		c-0.4,0-0.8,0.3-0.8,0.8c0,0.4,0.3,0.8,0.8,0.8h0.2v0.2h-0.5c-0.4,0-0.8,0.3-0.8,0.8c0,0.4,0.3,0.8,0.8,0.8h0.5v0.2h-0.9
		c-0.4,0-0.8,0.3-0.8,0.8c0,0.4,0.3,0.8,0.8,0.8h0.9V14h-0.5c-0.4,0-0.8,0.3-0.8,0.8c0,0.4,0.3,0.8,0.8,0.8h0.5v0.2h-0.2
		c-0.4,0-0.8,0.3-0.8,0.8c0,0.4,0.3,0.8,0.8,0.8h0.2v0.2h0c-0.4,0-0.8,0.3-0.8,0.8c0,0.4,0.3,0.8,0.8,0.8h0V27h-0.9
		c-0.4,0-0.8,0.3-0.8,0.8v1.8h-0.1c-0.4,0-0.8,0.3-0.8,0.8v11.1c0,1.4,1.2,2.6,2.6,2.6h1.4c1.4,0,2.6-1.2,2.6-2.6V30.3
		C33.4,29.9,33,29.6,32.6,29.6L32.6,29.6z M29.2,28.5h1.7v1h-1.7V28.5z M31.8,41.4c0,0.6-0.5,1-1,1h-1.4c-0.6,0-1-0.5-1-1V31.1h3.5
		V41.4z M31.8,41.4"/>
</g>
</svg>
