<?xml version="1.0" encoding="utf-8"?>
<!-- Generator: Adobe Illustrator 19.2.0, SVG Export Plug-In . SVG Version: 6.00 Build 0)  -->
<svg version="1.1" id="Layer_1" xmlns="http://www.w3.org/2000/svg" xmlns:xlink="http://www.w3.org/1999/xlink" x="0px" y="0px"
	 viewBox="0 0 50 50" style="enable-background:new 0 0 50 50;" xml:space="preserve">
<style type="text/css">
	.st0{fill:#163847;}
</style>
<g>
	<path class="st0" d="M45.6,40.8c-1.7,0-3.4-1.3-5.3-2.7c-0.2-0.2-0.4-0.3-0.6-0.5v-2c2.1-0.3,3.7-1.8,3.7-3.6
		c0-0.9-0.4-3.2-1.1-5.3c-1-2.9-2-4.3-3.3-4.3c-0.5,0-1.1,0.3-1.5,0.8c-0.3-5.3-5-14.7-5.2-15.1c-0.1-0.2-0.4-0.4-0.6-0.4
		c-0.3,0-0.5,0.1-0.6,0.4c0,0-1.3,2.6-2.6,5.9c-1.7,4.4-2.6,7.7-2.6,9.9c0,3,2.3,5.4,5.1,5.8v4.6c-2.6,0.2-4.8,1.5-6.7,2.9
		c-1.4-0.7-3.5-1.5-5.6-1.5c-0.3,0-0.7,0-1,0v-1.6c2.1-0.3,3.7-1.8,3.7-3.6c0-0.9-0.4-3.2-1.1-5.3c-1-2.9-2-4.3-3.3-4.3
		c-1.2,0-2.3,1.4-3.3,4.3c-0.3,1-0.6,2.1-0.8,3c-0.7-1.9-1.6-2.9-2.6-2.9c-1,0-1.9,1.1-2.7,3.3c-0.6,1.6-0.9,3.3-0.9,4
		c0,1.4,1.3,2.6,2.9,2.9v3.5c-1.6,1-3,1.7-4.5,1.7H4.4c-0.4,0-0.7,0.3-0.7,0.7s0.3,0.7,0.7,0.7h7.3c2,0,3.9-0.5,5.9-1
		c2.4-0.6,4.9-1.2,8.1-1.2c3.2,0,5.7,0.6,8.1,1.2c2,0.5,3.9,1,5.9,1h5.9c0.4,0,0.7-0.3,0.7-0.7S46,40.8,45.6,40.8L45.6,40.8z
		 M32.3,34.3v-4.6c1.1-0.1,2.1-0.6,2.9-1.2c-0.4,1.5-0.6,2.9-0.6,3.6c0,1.8,1.6,3.3,3.7,3.6v1C36.5,35.5,34.6,34.4,32.3,34.3
		L32.3,34.3z M39,23.9c0.2,0,0.5,0.2,0.8,0.8c0.4,0.6,0.8,1.5,1.1,2.5c0.7,2,1,4.2,1,4.8c0,1.1-1,2-2.3,2.2v-1.5
		c0-0.4-0.3-0.7-0.7-0.7c-0.4,0-0.7,0.3-0.7,0.7v1.5C37,34,36,33.1,36,32c0-0.7,0.4-2.8,1-4.8C37.9,24.5,38.7,23.9,39,23.9L39,23.9z
		 M27.2,23.9c0-3.8,3.1-10.9,4.5-13.8c1.4,2.9,4.5,10,4.5,13.8c0,2.2-1.6,4.1-3.8,4.4v-4.1l2-2c0.3-0.3,0.3-0.7,0-1
		c-0.3-0.3-0.7-0.3-1,0l-1,1V21c0-0.4-0.3-0.7-0.7-0.7c-0.4,0-0.7,0.3-0.7,0.7v3.5l-1-1c-0.3-0.3-0.7-0.3-1,0c-0.3,0.3-0.3,0.7,0,1
		l2,2v1.9C28.8,28,27.2,26.1,27.2,23.9L27.2,23.9z M11,38.3v-2.7c1.5-0.2,2.7-1.2,2.9-2.4c0.6,0.5,1.4,0.9,2.3,1V36
		C14.3,36.4,12.6,37.4,11,38.3L11,38.3z M15,25.7c0.9-2.8,1.7-3.4,1.9-3.4c0.2,0,0.5,0.2,0.8,0.8c0.4,0.6,0.8,1.5,1.1,2.5
		c0.7,2,1,4.2,1,4.8c0,1.1-1,2-2.3,2.2v-1.5c0-0.4-0.3-0.7-0.7-0.7c-0.4,0-0.7,0.3-0.7,0.7v1.5c-1.3-0.2-2.3-1.1-2.3-2.2
		C13.9,29.9,14.3,27.8,15,25.7L15,25.7z M8.1,32.8c0-0.5,0.3-2.1,0.8-3.6c0.7-2,1.3-2.4,1.4-2.4c0.1,0,0.7,0.4,1.4,2.4
		c0.5,1.5,0.8,3.1,0.8,3.6c0,0.7-0.7,1.3-1.6,1.5v-1.5c0-0.4-0.3-0.7-0.7-0.7c-0.4,0-0.7,0.3-0.7,0.7v1.5C8.7,34,8.1,33.5,8.1,32.8
		L8.1,32.8z M17.3,39.9c-2,0.5-3.7,0.9-5.5,0.9H9.4c0.5-0.3,1.1-0.6,1.6-0.9c2.3-1.4,4.6-2.8,7.6-2.8c1.5,0,3.1,0.5,4.3,1
		c-0.4,0.3-0.7,0.5-1.1,0.8C20.2,39.2,18.7,39.6,17.3,39.9L17.3,39.9z M39.7,40.8c-1.8,0-3.6-0.4-5.5-0.9c-2.4-0.6-5-1.3-8.4-1.3
		c-0.4,0-0.8,0-1.2,0c2.1-1.6,4.4-3.1,7.1-3.1c3.1,0,5.5,1.8,7.8,3.6c0.8,0.6,1.5,1.1,2.3,1.6H39.7z M39.7,40.8"/>
</g>
</svg>
