<?xml version="1.0" encoding="utf-8"?>
<!-- Generator: Adobe Illustrator 19.2.0, SVG Export Plug-In . SVG Version: 6.00 Build 0)  -->
<svg version="1.1" id="Layer_1" xmlns="http://www.w3.org/2000/svg" xmlns:xlink="http://www.w3.org/1999/xlink" x="0px" y="0px"
	 viewBox="0 0 50 50" style="enable-background:new 0 0 50 50;" xml:space="preserve">
<style type="text/css">
	.st0{fill:#163847;}
</style>
<g>
	<path class="st0" d="M41.6,35.3c0.8,0,1.5-0.7,1.5-1.5c0-0.8-0.7-1.5-1.5-1.5c-0.6,0-1,0.3-1.3,0.8h-1.8v1.2h-1.1
		c-1.1,0-1.9,0.9-1.9,1.9v3.7c0,0.9-0.8,1.7-1.7,1.7h-1.4v-1.4h2V29.9l2.3,2.3c0.5,0.5,1.2,0.8,2,0.8c0.7,0,1.4-0.3,2-0.8
		c0.5-0.5,0.8-1.2,0.8-2c0-0.7-0.3-1.4-0.8-2l-2.7-2.7l-0.2,0.2c0,0-5.1-5.2-5.2-5.3c1.2-1.2,1.9-2.9,1.9-4.8V9.5
		c0-2.5-2-4.5-4.5-4.5h-4.9c-2.5,0-4.4,2-4.4,4.5v6.2c0,1.9,0.7,3.6,1.9,4.8c-0.2,0.2-5,5-5,5l-0.2-0.2l-1.8,1.8l-0.8-0.8
		c-0.3-0.3-0.7-0.5-1.1-0.5c-0.3,0-0.6,0.1-0.8,0.2l-3.2-3.2c-0.5-0.5-1.4-0.5-2,0l-0.7,0.7l0.6,0.6l0.7-0.7c0.2-0.2,0.6-0.2,0.9,0
		l3.2,3.2c-0.1,0.2-0.2,0.5-0.2,0.8c0,0.4,0.2,0.8,0.5,1.1l1.3,1.3c0,0.1,0,0.1,0,0.2c0,0.7,0.3,1.4,0.8,2c0.5,0.5,1.2,0.8,2,0.8
		c0.1,0,0.1,0,0.2,0l0.6,0.6c0.3,0.3,0.7,0.5,1.1,0.5c0.1,0,0.1,0,0.2,0v6.2c0,1.4,1.1,2.5,2.5,2.5h1.4l0,2.6h9.9v-2.6h1.4
		c1.4,0,2.5-1.1,2.5-2.5v-3.7c0-0.6,0.5-1.2,1.1-1.2h1.1v0.4c-1.1,0.4-1.8,1.5-1.8,2.8V45h5.9v-6.7c0-1.2-0.8-2.3-1.9-2.8V35
		C41,35.2,41.3,35.3,41.6,35.3L41.6,35.3z M41.6,33.1c0.4,0,0.7,0.3,0.7,0.7c0,0.4-0.3,0.7-0.7,0.7c-0.4,0-0.7-0.3-0.7-0.7
		C40.9,33.4,41.2,33.1,41.6,33.1L41.6,33.1z M37.7,26.6l2.2,2.2c0.4,0.4,0.6,0.9,0.6,1.4c0,0.5-0.2,1-0.6,1.4
		c-0.4,0.4-0.9,0.6-1.4,0.6c-0.5,0-1-0.2-1.4-0.6l-2.2-2.2L37.7,26.6z M37,26.3l-2.7,2.6l0-3.7c0-0.7-0.1-1.4-0.3-2L37,26.3z
		 M33.5,25.2v0.8h-2.1v-4.8c0.1-0.1,0.2-0.2,0.4-0.3C32.9,22.1,33.5,23.6,33.5,25.2L33.5,25.2z M21.3,15.7V9.5c0-2,1.6-3.7,3.6-3.7
		h4.9c2,0,3.7,1.6,3.7,3.7v6.2c0,3.4-2.7,6.1-6.1,6.1C24,21.8,21.3,19.1,21.3,15.7L21.3,15.7z M30.6,21.8v4.3h-6.3v-4.2
		c0.9,0.5,2,0.7,3,0.7C28.5,22.6,29.6,22.3,30.6,21.8L30.6,21.8z M21.3,25.2c0-1.6,0.6-3.1,1.7-4.2c0.2,0.1,0.4,0.3,0.6,0.4v4.7
		h-2.3V25.2z M20.7,23.3c-0.2,0.6-0.3,1.3-0.3,2v3.1L18,26L20.7,23.3z M13,28c-0.1-0.1-0.2-0.3-0.2-0.5c0-0.2,0.1-0.4,0.2-0.5
		c0.1-0.1,0.3-0.2,0.5-0.2c0.2,0,0.4,0.1,0.5,0.2l0.8,0.8L14.5,28c-0.3,0.3-0.5,0.6-0.6,0.9L13,28z M18.9,32.8
		c-0.3,0.3-0.8,0.3-1.1,0l-0.2-0.2c0.3-0.1,0.6-0.3,0.9-0.6l0.3-0.3l0.1,0.1c0.1,0.1,0.2,0.3,0.2,0.5C19.1,32.4,19,32.6,18.9,32.8
		L18.9,32.8z M17.9,31.4C17.5,31.8,17,32,16.5,32c-0.5,0-1-0.2-1.4-0.6c-0.4-0.4-0.6-0.9-0.6-1.4c0-0.5,0.2-1,0.6-1.4l2.2-2.2
		l2.9,2.7L17.9,31.4z M22.4,41.6H21c-0.9,0-1.7-0.8-1.7-1.7v-6.5c0,0,0.1-0.1,0.1-0.1c0.3-0.3,0.5-0.7,0.5-1.1
		c0-0.4-0.2-0.8-0.5-1.1L19.4,31l1.1-1.1v10.3h2V41.6z M23.3,44.2c0.2-0.8,0.9-1.5,1.8-1.5c0.9,0,1.6,0.7,1.8,1.5H23.3z M27,42.7
		c-0.5-0.5-1.1-0.8-1.9-0.8c-0.7,0-1.4,0.3-1.9,0.8v-2.4H27V42.7z M27.8,44.2c0.2-0.8,0.9-1.5,1.8-1.5c0.9,0,1.6,0.7,1.8,1.5H27.8z
		 M31.5,42.7c-0.5-0.5-1.1-0.8-1.9-0.8c-0.7,0-1.4,0.3-1.9,0.8v-2.4h3.7V42.7z M21.3,39.5V26.9h12.2v12.6H21.3z M39.3,33.9H40v1.4
		h-0.7V33.9z M41.8,38.2v5.9h-4.3v-5.9c0-1.2,1-2.2,2.2-2.2C40.9,36,41.8,37,41.8,38.2L41.8,38.2z M41.8,38.2"/>
	<path class="st0" d="M24.4,34.1h5.9V28h-5.9V34.1z M25.2,28.7h4.3v1h-4.3V28.7z M25.2,30.5h4.3v2.8h-4.3V30.5z M25.2,30.5"/>
	<path class="st0" d="M31.9,12.9h-9.2v3.3h9.2V12.9z M23.4,15.5v-1.8h2.3l-1.8,1.8H23.4z M25,15.5l1.8-1.8h1.1L26,15.5H25z
		 M27.1,15.5l1.8-1.8h1.7l-1.8,1.8H27.1z M31.1,15.5h-1.2l1.2-1.1V15.5z M31.1,15.5"/>
	<path class="st0" d="M24.5,8.4c0,0.3-0.3,0.6-0.6,0.6c-0.3,0-0.6-0.3-0.6-0.6c0-0.3,0.3-0.6,0.6-0.6C24.2,7.8,24.5,8,24.5,8.4
		L24.5,8.4z M24.5,8.4"/>
	<path class="st0" d="M27.9,8.4c0,0.3-0.3,0.6-0.6,0.6c-0.3,0-0.6-0.3-0.6-0.6c0-0.3,0.3-0.6,0.6-0.6C27.7,7.8,27.9,8,27.9,8.4
		L27.9,8.4z M27.9,8.4"/>
	<path class="st0" d="M31.3,8.4C31.3,8.7,31,9,30.7,9c-0.3,0-0.6-0.3-0.6-0.6c0-0.3,0.3-0.6,0.6-0.6C31,7.8,31.3,8,31.3,8.4
		L31.3,8.4z M31.3,8.4"/>
</g>
</svg>
