<?xml version="1.0" encoding="utf-8"?>
<!-- Generator: Adobe Illustrator 19.2.0, SVG Export Plug-In . SVG Version: 6.00 Build 0)  -->
<svg version="1.1" id="Layer_1" xmlns="http://www.w3.org/2000/svg" xmlns:xlink="http://www.w3.org/1999/xlink" x="0px" y="0px"
	 viewBox="0 0 50 50" style="enable-background:new 0 0 50 50;" xml:space="preserve">
<style type="text/css">
	.st0{fill:#163847;}
</style>
<g>
	<path class="st0" d="M45.2,42.7h-1.5V39c0-0.4-0.3-0.7-0.7-0.7h-0.8v-8.1c0.8-0.3,1.4-1.1,1.4-2c0-0.9-0.6-1.7-1.4-2v-7.4l0.9-0.4
		c0.3-0.1,0.4-0.4,0.4-0.7l-0.8-7.5c0-0.1,0-0.2-0.1-0.3l-2.3-3.7C40.2,6,39.9,5.9,39.6,6l-4,1.7c-0.3,0.1-0.5,0.5-0.4,0.8l0.5,2.3
		l-9.3,3.8c-0.4-0.2-0.9-0.4-1.4-0.4c-1.2,0-2.2,0.7-2.7,1.8l-0.1,0.3L7.4,22.5c-0.2,0.1-0.3,0.2-0.4,0.4C7,23,7,23.2,7,23.3
		l0.7,1.8c0,0.1,0,0.1,0,0.2v12.3H5.5c-0.4,0-0.7,0.3-0.7,0.7v4.4h0c-0.4,0-0.7,0.3-0.7,0.7c0,0.4,0.3,0.7,0.7,0.7h40.4
		c0.4,0,0.7-0.3,0.7-0.7C45.9,43,45.6,42.7,45.2,42.7L45.2,42.7z M40.1,38.4c-0.4,0-0.7,0.3-0.7,0.7v3.7h-1.7l-9.2-24.4l9.1-3.7
		l3.3,4.1v7.6c-0.8,0.3-1.4,1.1-1.4,2c0,0.9,0.6,1.7,1.4,2v8.1H40.1z M37.9,11.3c0.2-0.1,0.4-0.1,0.6,0c0.2,0.1,0.3,0.2,0.4,0.4v0
		c0.1,0.2,0.1,0.4,0,0.6c-0.1,0.2-0.2,0.3-0.4,0.4L28,17l-0.4-1c-0.1-0.1-0.1-0.3-0.2-0.4L37.9,11.3z M39.6,13.5l1.2,2.8L38.9,14
		l0.1,0C39.2,13.9,39.4,13.7,39.6,13.5L39.6,13.5z M41.6,29c-0.4,0-0.8-0.3-0.8-0.8c0-0.4,0.3-0.8,0.8-0.8c0.4,0,0.8,0.3,0.8,0.8
		C42.4,28.6,42,29,41.6,29L41.6,29z M41.5,10.6l0.5,5.3l-1.9-4.6c0,0,0,0,0,0v0l-1.4-3.4l0.8-0.4L41.5,10.6z M36.6,8.7l0.8-0.3
		l0.6,1.5c-0.3,0-0.5,0.1-0.8,0.2L37,10.2L36.6,8.7z M25,15.5c0.5,0,1.1,0.3,1.4,1l9.9,26.2h-1.7l-9-20.5c-0.1-0.2-0.4-0.4-0.6-0.4
		c-0.3,0-0.5,0.2-0.6,0.4l-9,20.5h-1.7l9.9-26.2C23.9,15.8,24.5,15.5,25,15.5L25,15.5z M27.6,35.4L25,37l-2.6-1.6H27.6z M21.7,34
		l3.3-3.7l3.3,3.7H21.7z M30,35.5l2.7,6.1l-6.4-3.9L30,35.5z M25.9,29.4l0.9-1l1.7,4L25.9,29.4z M25,28.3L23.8,27l1.2-2.8l1.2,2.8
		L25,28.3z M23.2,28.3l0.9,1l-2.7,3L23.2,28.3z M20,35.5l3.7,2.3l-6.4,3.9L20,35.5z M25,38.6l6.8,4.1H18.2L25,38.6z M21.6,18l-0.7,2
		L9.1,24.9l-0.6-1.4L21.6,18z M9.1,26.3l11.1-4.6l-7.9,20.9H12v-4.4c0-0.4-0.3-0.7-0.7-0.7H9.1V26.3z M6.2,39h4.4v3.7H6.2V39z
		 M40.8,42.7v-3h1.5v3H40.8z M40.8,42.7"/>
	<path class="st0" d="M25,18.3c0.5,0,0.9-0.4,0.9-0.9c0-0.5-0.4-0.9-0.9-0.9c-0.5,0-0.9,0.4-0.9,0.9C24.1,17.9,24.5,18.3,25,18.3
		L25,18.3z M25,18.3"/>
</g>
</svg>
