<?xml version="1.0" encoding="utf-8"?>
<!-- Generator: Adobe Illustrator 19.2.0, SVG Export Plug-In . SVG Version: 6.00 Build 0)  -->
<svg version="1.1" id="Layer_1" xmlns="http://www.w3.org/2000/svg" xmlns:xlink="http://www.w3.org/1999/xlink" x="0px" y="0px"
	 viewBox="0 0 50 50" style="enable-background:new 0 0 50 50;" xml:space="preserve">
<style type="text/css">
	.st0{fill:#163847;}
</style>
<g>
	<path class="st0" d="M43.1,6.2H6.9c-0.4,0-0.6,0.3-0.6,0.6v36.2c0,0.4,0.3,0.6,0.6,0.6h36.2c0.4,0,0.6-0.3,0.6-0.6V6.9
		C43.8,6.5,43.5,6.2,43.1,6.2L43.1,6.2z M42.5,42.5h-35v-35h35V42.5z M42.5,42.5"/>
	<path class="st0" d="M20.6,17.5h1.3v5h1.3v-5.6c0-0.4-0.3-0.6-0.6-0.6h-1.9c-1.4,0-2.5-1.1-2.5-2.5c0-1.4,1.1-2.5,2.5-2.5h2.5
		c0.5,0,1.1,0.2,1.5,0.5c0.3,0.2,0.5,0.2,0.7,0c0.4-0.3,1-0.5,1.5-0.5h2.5c1.4,0,2.5,1.1,2.5,2.5c0,1.4-1.1,2.5-2.5,2.5h-1.9
		c-0.4,0-0.6,0.3-0.6,0.6v5.6h1.3v-5h1.3c2.1,0,3.7-1.6,3.7-3.7c0-2.1-1.6-3.8-3.7-3.8h-2.5c-0.6,0-1.3,0.2-1.9,0.5
		c-0.6-0.3-1.3-0.5-1.9-0.5h-2.5c-2.1,0-3.7,1.6-3.7,3.8C16.9,15.9,18.5,17.5,20.6,17.5L20.6,17.5z M20.6,17.5"/>
	<path class="st0" d="M20.6,40h2.5c0.6,0,1.3-0.2,1.9-0.5c0.6,0.3,1.3,0.5,1.9,0.5h2.5c2.1,0,3.7-1.6,3.7-3.8c0-2.1-1.6-3.7-3.7-3.7
		h-1.3v-5h-1.3v5.6c0,0.4,0.3,0.6,0.6,0.6h1.9c1.4,0,2.5,1.1,2.5,2.5c0,1.4-1.1,2.5-2.5,2.5h-2.5c-0.5,0-1.1-0.2-1.5-0.5
		c-0.3-0.2-0.5-0.2-0.7,0c-0.4,0.3-1,0.5-1.5,0.5h-2.5c-1.4,0-2.5-1.1-2.5-2.5c0-1.4,1.1-2.5,2.5-2.5h1.9c0.4,0,0.6-0.2,0.6-0.6
		v-5.6h-1.3v5h-1.3c-2.1,0-3.7,1.6-3.7,3.7C16.9,38.4,18.5,40,20.6,40L20.6,40z M20.6,40"/>
	<rect x="8.7" y="8.7" class="st0" width="1.3" height="1.3"/>
	<rect x="11.2" y="8.7" class="st0" width="1.3" height="1.3"/>
	<rect x="8.7" y="40" class="st0" width="1.3" height="1.3"/>
	<rect x="11.2" y="40" class="st0" width="1.3" height="1.3"/>
	<rect x="37.5" y="40" class="st0" width="1.3" height="1.3"/>
	<rect x="40" y="40" class="st0" width="1.3" height="1.3"/>
	<rect x="37.5" y="8.7" class="st0" width="1.3" height="1.3"/>
	<rect x="40" y="8.7" class="st0" width="1.3" height="1.3"/>
	<rect x="24.4" y="24.4" class="st0" width="1.3" height="1.3"/>
	<rect x="26.9" y="24.4" class="st0" width="1.3" height="1.3"/>
	<rect x="21.9" y="24.4" class="st0" width="1.3" height="1.3"/>
	<rect x="19.4" y="24.4" class="st0" width="1.2" height="1.3"/>
	<rect x="16.9" y="24.4" class="st0" width="1.2" height="1.3"/>
	<rect x="14.4" y="24.4" class="st0" width="1.3" height="1.3"/>
	<rect x="11.9" y="24.4" class="st0" width="1.3" height="1.3"/>
	<rect x="36.9" y="24.4" class="st0" width="1.3" height="1.3"/>
	<rect x="34.4" y="24.4" class="st0" width="1.3" height="1.3"/>
	<rect x="31.9" y="24.4" class="st0" width="1.2" height="1.3"/>
	<rect x="29.4" y="24.4" class="st0" width="1.2" height="1.3"/>
</g>
</svg>
