<?xml version="1.0" encoding="utf-8"?>
<!-- Generator: Adobe Illustrator 19.2.0, SVG Export Plug-In . SVG Version: 6.00 Build 0)  -->
<svg version="1.1" id="Layer_1" xmlns="http://www.w3.org/2000/svg" xmlns:xlink="http://www.w3.org/1999/xlink" x="0px" y="0px"
	 viewBox="0 0 50 50" style="enable-background:new 0 0 50 50;" xml:space="preserve">
<style type="text/css">
	.st0{fill:#163847;}
</style>
<g>
	<path class="st0" d="M37.8,38.4L37.8,38.4c-0.3,0-0.6,0.3-0.6,0.6c0,0.3,0.3,0.6,0.6,0.6c0.3,0,0.6-0.3,0.6-0.6
		C38.4,38.6,38.1,38.4,37.8,38.4L37.8,38.4z M37.8,38.4"/>
	<path class="st0" d="M28.6,21.4c-0.3,0-0.6,0.3-0.6,0.6c0,0.3,0.3,0.6,0.6,0.6c0.7,0,1.7,0.2,2,0.4c0.3,0.3,0.4,1.3,0.4,2
		c0,0.3,0.3,0.6,0.6,0.6c0.3,0,0.6-0.3,0.6-0.6c0-0.3,0-2.1-0.8-2.9C30.8,21.4,29,21.4,28.6,21.4L28.6,21.4z M28.6,21.4"/>
	<path class="st0" d="M31.8,18.3c-0.1,0-2.6-0.6-9.3-0.6c-6.7,0-9.2,0.6-9.2,0.6c-1.8,0.4-3,1.6-3.5,3.5c0,0.1-0.6,2.6-0.6,7.4
		c0,4.9,0.6,7.3,0.6,7.4c0.5,1.8,1.6,3,3.5,3.5c0.1,0,2.6,0.6,9.3,0.6c6.7,0,9.2-0.6,9.2-0.6c1.7-0.4,2.9-1.5,3.5-3.5
		c0-0.1,0.6-2.6,0.6-7.4c0-4.9-0.6-7.3-0.6-7.4C34.9,20,33.7,18.8,31.8,18.3L31.8,18.3z M34.1,36.4c-0.4,1.5-1.3,2.3-2.6,2.6
		c0,0-2.5,0.6-9,0.6c-6.5,0-8.9-0.6-9-0.6c-1.4-0.4-2.2-1.2-2.6-2.6c0,0-0.6-2.4-0.6-7.1s0.6-7.1,0.6-7.1c0.4-1.4,1.2-2.3,2.6-2.6
		c0,0,2.5-0.6,9-0.6c6.5,0,8.9,0.6,9,0.6c1.5,0.4,2.3,1.2,2.6,2.6c0,0,0.6,2.4,0.6,7.1C34.7,34,34.1,36.4,34.1,36.4L34.1,36.4z
		 M34.1,36.4"/>
	<path class="st0" d="M31.7,26.8c-0.3,0-0.6,0.3-0.6,0.6V28c0,0.3,0.3,0.6,0.6,0.6c0.3,0,0.6-0.3,0.6-0.6v-0.6
		C32.3,27.1,32,26.8,31.7,26.8L31.7,26.8z M31.7,26.8"/>
	<path class="st0" d="M21,12.2c-0.3,0.3-0.5,0.6-0.7,1c-0.2,0.3-0.1,0.7,0.2,0.8c0.3,0.2,0.7,0.1,0.8-0.2c0.8-1.3,2.2-2.1,3.7-2.1
		s2.9,0.8,3.7,2.1c0.1,0.2,0.3,0.3,0.5,0.3c0.1,0,0.2,0,0.3-0.1c0.3-0.2,0.4-0.5,0.2-0.8c-0.2-0.4-0.5-0.7-0.7-1l4.3-4.3
		c0.2-0.2,0.2-0.6,0-0.9c-0.2-0.2-0.6-0.2-0.9,0L28,11.4c-0.9-0.6-1.9-0.9-3-0.9c-1.1,0-2.2,0.3-3,0.9L17.5,7
		c-0.2-0.2-0.6-0.2-0.9,0c-0.2,0.2-0.2,0.6,0,0.9L21,12.2z M21,12.2"/>
	<path class="st0" d="M39,22.6c1,0,1.8-0.8,1.8-1.8c0-1-0.8-1.8-1.8-1.8c-1,0-1.8,0.8-1.8,1.8C37.1,21.8,38,22.6,39,22.6L39,22.6z
		 M39,20.1c0.3,0,0.6,0.3,0.6,0.6s-0.3,0.6-0.6,0.6c-0.3,0-0.6-0.3-0.6-0.6S38.6,20.1,39,20.1L39,20.1z M39,20.1"/>
	<path class="st0" d="M40.2,31.1L40.2,31.1c-0.3,0-0.6,0.3-0.6,0.6c0,0.3,0.3,0.6,0.6,0.6c0.3,0,0.6-0.3,0.6-0.6
		C40.8,31.3,40.5,31.1,40.2,31.1L40.2,31.1z M40.2,31.1"/>
	<path class="st0" d="M40.2,33.5L40.2,33.5c-0.3,0-0.6,0.3-0.6,0.6c0,0.3,0.3,0.6,0.6,0.6c0.3,0,0.6-0.3,0.6-0.6
		C40.8,33.8,40.5,33.5,40.2,33.5L40.2,33.5z M40.2,33.5"/>
	<path class="st0" d="M40.2,35.9L40.2,35.9c-0.3,0-0.6,0.3-0.6,0.6c0,0.3,0.3,0.6,0.6,0.6c0.3,0,0.6-0.3,0.6-0.6
		C40.8,36.2,40.5,35.9,40.2,35.9L40.2,35.9z M40.2,35.9"/>
	<path class="st0" d="M39.6,15.3H10.4c-2,0-3.6,1.6-3.6,3.6v20.6c0,2,1.6,3.6,3.6,3.6h29.2c2,0,3.6-1.6,3.6-3.6V18.9
		C43.2,16.9,41.6,15.3,39.6,15.3L39.6,15.3z M42,39.6c0,1.3-1.1,2.4-2.4,2.4H10.4C9.1,42,8,40.9,8,39.6V18.9c0-1.3,1.1-2.4,2.4-2.4
		h29.2c1.3,0,2.4,1.1,2.4,2.4V39.6z M42,39.6"/>
	<path class="st0" d="M40.2,38.4L40.2,38.4c-0.3,0-0.6,0.3-0.6,0.6c0,0.3,0.3,0.6,0.6,0.6c0.3,0,0.6-0.3,0.6-0.6
		C40.8,38.6,40.5,38.4,40.2,38.4L40.2,38.4z M40.2,38.4"/>
	<path class="st0" d="M37.8,35.9L37.8,35.9c-0.3,0-0.6,0.3-0.6,0.6c0,0.3,0.3,0.6,0.6,0.6c0.3,0,0.6-0.3,0.6-0.6
		C38.4,36.2,38.1,35.9,37.8,35.9L37.8,35.9z M37.8,35.9"/>
	<path class="st0" d="M37.8,33.5L37.8,33.5c-0.3,0-0.6,0.3-0.6,0.6c0,0.3,0.3,0.6,0.6,0.6c0.3,0,0.6-0.3,0.6-0.6
		C38.4,33.8,38.1,33.5,37.8,33.5L37.8,33.5z M37.8,33.5"/>
	<path class="st0" d="M40.8,25.6c0-1-0.8-1.8-1.8-1.8c-1,0-1.8,0.8-1.8,1.8c0,1,0.8,1.8,1.8,1.8C40,27.4,40.8,26.6,40.8,25.6
		L40.8,25.6z M39,26.2c-0.3,0-0.6-0.3-0.6-0.6c0-0.3,0.3-0.6,0.6-0.6c0.3,0,0.6,0.3,0.6,0.6C39.6,25.9,39.3,26.2,39,26.2L39,26.2z
		 M39,26.2"/>
	<path class="st0" d="M37.8,31.1L37.8,31.1c-0.3,0-0.6,0.3-0.6,0.6c0,0.3,0.3,0.6,0.6,0.6c0.3,0,0.6-0.3,0.6-0.6
		C38.4,31.3,38.1,31.1,37.8,31.1L37.8,31.1z M37.8,31.1"/>
</g>
</svg>
