<?xml version="1.0" encoding="utf-8"?>
<!-- Generator: Adobe Illustrator 19.2.0, SVG Export Plug-In . SVG Version: 6.00 Build 0)  -->
<svg version="1.1" id="Layer_1" xmlns="http://www.w3.org/2000/svg" xmlns:xlink="http://www.w3.org/1999/xlink" x="0px" y="0px"
	 viewBox="0 0 50 50" style="enable-background:new 0 0 50 50;" xml:space="preserve">
<style type="text/css">
	.st0{fill:#163847;}
</style>
<g>
	<path class="st0" d="M42.5,14.7h-3V9.3c0-0.3-0.3-0.6-0.6-0.6h-3.6V7.5c0-0.3-0.3-0.6-0.6-0.6h-3c-0.3,0-0.6,0.3-0.6,0.6v1.2h-1.2
		V7.5c0-0.3-0.3-0.6-0.6-0.6h-3c-0.3,0-0.6,0.3-0.6,0.6v1.2H9.3C9,8.7,8.7,9,8.7,9.3V22c0,0.3,0.3,0.6,0.6,0.6h4.2v4.8h-0.3
		c-0.8,0-1.5,0.7-1.5,1.5c0,0.8,0.7,1.5,1.5,1.5h1.5v1.2c0,0.3,0.3,0.6,0.6,0.6c0.3,0,0.6-0.3,0.6-0.6v-1.2h1.5
		c0.8,0,1.5-0.7,1.5-1.5c0-0.8-0.7-1.5-1.5-1.5h-0.3v-4.8h3.6c0.3,0,0.6-0.3,0.6-0.6v-2.4h4.8v13.9H10.3c-1.9,0-3.4,1.5-3.4,3.4v2.8
		c0,1.9,1.5,3.4,3.4,3.4h28.5c0.3,0,0.6-0.3,0.6-0.6V23.2h3c0.3,0,0.6-0.3,0.6-0.6v-7.2C43.1,15,42.8,14.7,42.5,14.7L42.5,14.7z
		 M32.2,8.1H34v0.6h-1.8V8.1z M26.8,8.1h1.8v0.6h-1.8V8.1z M9.9,9.9h2.4v7.8H9.9V9.9z M17.8,28.9c0,0.2-0.1,0.3-0.3,0.3h-4.2
		c-0.2,0-0.3-0.1-0.3-0.3c0-0.2,0.1-0.3,0.3-0.3h4.2C17.6,28.6,17.8,28.8,17.8,28.9L17.8,28.9z M16,27.4h-1.2v-4.8H16V27.4z
		 M20.8,18.4c-0.3,0-0.6,0.3-0.6,0.6v2.4H9.9V19h3c0.3,0,0.6-0.3,0.6-0.6V9.9h24.7v8.4H20.8z M19,34.7v1.2h-7.2v-1.2H19z M38.3,41.9
		H10.3c-1.2,0-2.2-1-2.2-2.2v-2.8c0-1.2,1-2.2,2.2-2.2h0.2v1.8c0,0.3,0.3,0.6,0.6,0.6h8.4c0.3,0,0.6-0.3,0.6-0.6v-1.8h6.6
		c0.3,0,0.6-0.3,0.6-0.6V19.6h10.9V41.9z M39.5,22v-6h2.4v0.6h-1.2c-0.3,0-0.6,0.3-0.6,0.6c0,0.3,0.3,0.6,0.6,0.6h1.2v0.6h-1.2
		c-0.3,0-0.6,0.3-0.6,0.6c0,0.3,0.3,0.6,0.6,0.6h1.2v0.6h-1.2c-0.3,0-0.6,0.3-0.6,0.6c0,0.3,0.3,0.6,0.6,0.6h1.2V22H39.5z M39.5,22"
		/>
	<path class="st0" d="M35.8,22C35.8,22,35.8,22,35.8,22c-0.8-0.8-1.8-1.2-3-1.2c-1.2,0-2.2,0.5-3,1.2c0,0,0,0,0,0c0,0,0,0,0,0
		c-0.8,0.8-1.2,1.8-1.2,3c0,1.2,0.5,2.2,1.2,3c0,0,0,0,0,0c0,0,0,0,0,0c0.8,0.8,1.8,1.2,3,1.2c1.2,0,2.2-0.5,3-1.2c0,0,0,0,0,0
		c0,0,0,0,0,0c0.8-0.8,1.2-1.8,1.2-3C37.1,23.8,36.6,22.8,35.8,22C35.8,22,35.8,22,35.8,22L35.8,22z M35.3,25.6h0.5
		c-0.1,0.4-0.2,0.7-0.4,1.1L35,26.3c-0.2-0.2-0.6-0.2-0.9,0c-0.2,0.2-0.2,0.6,0,0.9l0.4,0.4c-0.3,0.2-0.7,0.4-1.1,0.4v-0.5
		c0-0.3-0.3-0.6-0.6-0.6c-0.3,0-0.6,0.3-0.6,0.6V28c-0.4-0.1-0.7-0.2-1.1-0.4l0.4-0.4c0.2-0.2,0.2-0.6,0-0.9c-0.2-0.2-0.6-0.2-0.9,0
		l-0.4,0.4c-0.2-0.3-0.4-0.7-0.4-1.1h0.5c0.3,0,0.6-0.3,0.6-0.6c0-0.3-0.3-0.6-0.6-0.6h-0.5c0.1-0.4,0.2-0.7,0.4-1.1l0.4,0.4
		c0.1,0.1,0.3,0.2,0.4,0.2c0.2,0,0.3-0.1,0.4-0.2c0.2-0.2,0.2-0.6,0-0.9l-0.4-0.4c0.3-0.2,0.7-0.4,1.1-0.4v0.5
		c0,0.3,0.3,0.6,0.6,0.6c0.3,0,0.6-0.3,0.6-0.6V22c0.4,0.1,0.7,0.2,1.1,0.4l-0.4,0.4c-0.2,0.2-0.2,0.6,0,0.9
		c0.1,0.1,0.3,0.2,0.4,0.2c0.2,0,0.3-0.1,0.4-0.2l0.4-0.4c0.2,0.3,0.4,0.7,0.4,1.1h-0.5c-0.3,0-0.6,0.3-0.6,0.6
		C34.7,25.3,34.9,25.6,35.3,25.6L35.3,25.6z M35.3,25.6"/>
	<path class="st0" d="M30.4,31h-1.2c-0.3,0-0.6,0.3-0.6,0.6c0,0.3,0.3,0.6,0.6,0.6h1.2c0.3,0,0.6-0.3,0.6-0.6
		C31,31.3,30.8,31,30.4,31L30.4,31z M30.4,31"/>
	<path class="st0" d="M30.4,32.8h-1.2c-0.3,0-0.6,0.3-0.6,0.6c0,0.3,0.3,0.6,0.6,0.6h1.2c0.3,0,0.6-0.3,0.6-0.6
		C31,33.1,30.8,32.8,30.4,32.8L30.4,32.8z M30.4,32.8"/>
	<path class="st0" d="M36.5,31h-1.2c-0.3,0-0.6,0.3-0.6,0.6c0,0.3,0.3,0.6,0.6,0.6h1.2c0.3,0,0.6-0.3,0.6-0.6
		C37.1,31.3,36.8,31,36.5,31L36.5,31z M36.5,31"/>
	<path class="st0" d="M36.5,32.8h-1.2c-0.3,0-0.6,0.3-0.6,0.6c0,0.3,0.3,0.6,0.6,0.6h1.2c0.3,0,0.6-0.3,0.6-0.6
		C37.1,33.1,36.8,32.8,36.5,32.8L36.5,32.8z M36.5,32.8"/>
	<path class="st0" d="M33.4,31h-1.2c-0.3,0-0.6,0.3-0.6,0.6c0,0.3,0.3,0.6,0.6,0.6h1.2c0.3,0,0.6-0.3,0.6-0.6
		C34,31.3,33.8,31,33.4,31L33.4,31z M33.4,31"/>
	<path class="st0" d="M33.4,32.8h-1.2c-0.3,0-0.6,0.3-0.6,0.6c0,0.3,0.3,0.6,0.6,0.6h1.2c0.3,0,0.6-0.3,0.6-0.6
		C34,33.1,33.8,32.8,33.4,32.8L33.4,32.8z M33.4,32.8"/>
</g>
</svg>
