<?xml version="1.0" encoding="utf-8"?>
<!-- Generator: Adobe Illustrator 19.2.0, SVG Export Plug-In . SVG Version: 6.00 Build 0)  -->
<svg version="1.1" id="Layer_1" xmlns="http://www.w3.org/2000/svg" xmlns:xlink="http://www.w3.org/1999/xlink" x="0px" y="0px"
	 viewBox="0 0 50 50" style="enable-background:new 0 0 50 50;" xml:space="preserve">
<style type="text/css">
	.st0{fill:#163847;}
</style>
<g>
	<path class="st0" d="M18.6,19.9c0.1,0.1,0.2,0.2,0.4,0.2c0.1,0,0.3-0.1,0.4-0.2c0.2-0.2,0.2-0.6,0-0.8c-0.6-0.6-0.6-1.5,0-2
		c0.5-0.5,0.7-1.1,0.7-1.8c0-0.7-0.3-1.3-0.7-1.8c-0.2-0.2-0.6-0.2-0.8,0c-0.2,0.2-0.2,0.6,0,0.8c0.3,0.3,0.4,0.6,0.4,1
		c0,0.4-0.2,0.7-0.4,1C17.6,17.3,17.6,18.9,18.6,19.9L18.6,19.9z M18.6,19.9"/>
	<path class="st0" d="M30.7,19.9c0.1,0.1,0.2,0.2,0.4,0.2c0.1,0,0.3-0.1,0.4-0.2c0.2-0.2,0.2-0.6,0-0.8c-0.6-0.6-0.6-1.5,0-2
		c0.5-0.5,0.7-1.1,0.7-1.8c0-0.7-0.3-1.3-0.7-1.8c-0.2-0.2-0.6-0.2-0.8,0c-0.2,0.2-0.2,0.6,0,0.8c0.3,0.3,0.4,0.6,0.4,1
		c0,0.4-0.1,0.7-0.4,1C29.7,17.3,29.7,18.9,30.7,19.9L30.7,19.9z M30.7,19.9"/>
	<path class="st0" d="M24.6,16.6c0.1,0.1,0.2,0.2,0.4,0.2c0.1,0,0.3-0.1,0.4-0.2c0.2-0.2,0.2-0.6,0-0.8c-0.6-0.6-0.6-1.5,0-2
		c0.5-0.5,0.7-1.1,0.7-1.8c0-0.7-0.3-1.3-0.7-1.8c-0.2-0.2-0.6-0.2-0.8,0c-0.2,0.2-0.2,0.6,0,0.8c0.3,0.3,0.4,0.6,0.4,1
		c0,0.4-0.1,0.7-0.4,1C23.6,14,23.6,15.6,24.6,16.6L24.6,16.6z M24.6,16.6"/>
	<path class="st0" d="M22.4,24.2c0,0,0.1,0,0.1,0c0.8-0.2,1.6-0.3,2.4-0.3h0c0.3,0,0.6-0.2,0.6-0.6c0-0.3-0.2-0.6-0.6-0.6h0
		c-0.9,0-1.8,0.1-2.7,0.3c-0.3,0.1-0.5,0.4-0.4,0.7C21.9,24.1,22.2,24.2,22.4,24.2L22.4,24.2z M22.4,24.2"/>
	<path class="st0" d="M13.8,33.3c0,0,0.1,0,0.1,0c0.3,0,0.5-0.2,0.5-0.5c0.6-3.2,2.5-6,5.1-7.5c0.3-0.2,0.3-0.5,0.2-0.8
		c-0.2-0.3-0.5-0.3-0.8-0.2c-2.9,1.7-5,4.8-5.6,8.3C13.3,33,13.5,33.3,13.8,33.3L13.8,33.3z M13.8,33.3"/>
	<path class="st0" d="M39.2,32.6c-1-5.9-5.6-10.6-11.4-11.7c0-0.1,0-0.2,0-0.3c0-1.5-1.2-2.8-2.8-2.8c-1.5,0-2.8,1.2-2.8,2.8
		c0,0.1,0,0.2,0,0.3c-5.8,1.1-10.4,5.8-11.4,11.7c-1.2,0.7-2.4,1.6-2.4,2.7C8.4,38.1,17,40,25,40c8,0,16.6-1.9,16.6-4.7
		C41.6,34.2,40.3,33.3,39.2,32.6L39.2,32.6z M23.3,20.7C23.3,20.7,23.3,20.7,23.3,20.7c0-1,0.7-1.8,1.7-1.8c0.9,0,1.7,0.7,1.7,1.7
		c0,0,0,0.1,0,0.1c0,0-0.1,0-0.1,0c-0.2,0-0.4,0-0.6,0c-0.1,0-0.1,0-0.2,0c-0.3,0-0.5,0-0.8,0c-0.3,0-0.5,0-0.8,0
		c-0.1,0-0.1,0-0.2,0C23.8,20.7,23.6,20.7,23.3,20.7C23.4,20.7,23.4,20.7,23.3,20.7L23.3,20.7z M23,21.9c0.3,0,0.6-0.1,0.9-0.1
		c0.1,0,0.1,0,0.2,0c0.6,0,1.2,0,1.8,0c0.1,0,0.1,0,0.2,0c0.3,0,0.6,0.1,0.9,0.1c5.8,0.9,10.3,5.5,11.2,11.2c0,0.2,0,0.4,0.1,0.5
		c0,0.1,0,0.1,0,0.2c0,0.2,0,0.5,0,0.7c-8.7,2-17.9,2-26.6,0c0-0.2,0-0.5,0-0.7c0-0.1,0-0.1,0-0.2c0-0.2,0-0.4,0.1-0.5
		C12.7,27.3,17.2,22.8,23,21.9L23,21.9z M25,38.9c-9.5,0-15.5-2.4-15.5-3.6c0-0.2,0.3-0.7,1.1-1.3c0,0,0,0.1,0,0.1
		c0,0.3,0,0.6,0,0.9v0.4l0.4,0.1c4.6,1.1,9.3,1.6,14,1.6c4.7,0,9.4-0.5,14-1.6l0.4-0.1V35c0-0.3,0-0.6,0-0.9c0,0,0-0.1,0-0.1
		c0.9,0.6,1.1,1.1,1.1,1.3C40.5,36.5,34.5,38.9,25,38.9L25,38.9z M25,38.9"/>
</g>
</svg>
