<?xml version="1.0" encoding="utf-8"?>
<!-- Generator: Adobe Illustrator 19.2.0, SVG Export Plug-In . SVG Version: 6.00 Build 0)  -->
<svg version="1.1" id="Layer_1" xmlns="http://www.w3.org/2000/svg" xmlns:xlink="http://www.w3.org/1999/xlink" x="0px" y="0px"
	 viewBox="0 0 50 50" style="enable-background:new 0 0 50 50;" xml:space="preserve">
<style type="text/css">
	.st0{fill:#163847;}
</style>
<g>
	<path class="st0" d="M22.9,14.3L22.9,14.3c0.3,0.9,1.2,1.6,2.1,1.6c1,0,1.8-0.7,2-1.6h0.1c0.3,0,0.5-0.2,0.5-0.5
		c0-0.3-0.2-0.5-0.5-0.5H27c-0.2-0.9-1.1-1.6-2-1.6c-1,0-1.8,0.7-2,1.6h-0.1c-0.3,0-0.5,0.2-0.5,0.5C22.4,14.1,22.6,14.3,22.9,14.3
		L22.9,14.3z M25,14.9c-0.4,0-0.8-0.2-1-0.6h2C25.8,14.6,25.4,14.9,25,14.9L25,14.9z M25,12.7c0.4,0,0.8,0.2,1,0.6h-2
		C24.2,12.9,24.6,12.7,25,12.7L25,12.7z M25,12.7"/>
	<path class="st0" d="M30.1,14.9c-0.2,0.2-0.2,0.5,0,0.7c0.1,0.1,0.2,0.1,0.4,0.1c0.1,0,0.3,0,0.4-0.1l0.1-0.1
		c0.3,0.2,0.7,0.3,1.1,0.3c0.5,0,1.1-0.2,1.5-0.6c0.7-0.7,0.8-1.8,0.3-2.6l0.1-0.1c0.2-0.2,0.2-0.5,0-0.7c-0.2-0.2-0.5-0.2-0.7,0
		L33,12c-0.8-0.5-1.9-0.4-2.6,0.3C29.8,13,29.7,14.1,30.1,14.9L30.1,14.9z M32.7,14.6c-0.3,0.3-0.7,0.4-1.1,0.3l1.4-1.4
		C33.1,13.8,33,14.3,32.7,14.6L32.7,14.6z M31.2,13c0.2-0.2,0.5-0.3,0.8-0.3c0.1,0,0.2,0,0.3,0.1l-1.4,1.4
		C30.8,13.7,30.9,13.3,31.2,13L31.2,13z M31.2,13"/>
	<path class="st0" d="M16.6,15.3c0.4,0.4,0.9,0.6,1.5,0.6c0.4,0,0.8-0.1,1.1-0.3l0.1,0.1c0.1,0.1,0.2,0.1,0.4,0.1
		c0.1,0,0.3,0,0.4-0.1c0.2-0.2,0.2-0.5,0-0.7l-0.1-0.1c0.5-0.8,0.4-1.9-0.3-2.6c-0.7-0.7-1.8-0.8-2.6-0.3l-0.1-0.1
		c-0.2-0.2-0.5-0.2-0.7,0c-0.2,0.2-0.2,0.5,0,0.7l0.1,0.1C15.8,13.5,15.9,14.6,16.6,15.3L16.6,15.3z M17.3,14.6
		c-0.3-0.3-0.4-0.7-0.3-1.1l1.4,1.4C18,14.9,17.6,14.9,17.3,14.6L17.3,14.6z M18.1,12.7c0.3,0,0.6,0.1,0.8,0.3
		c0.3,0.3,0.4,0.7,0.3,1.1l-1.4-1.4C17.8,12.7,17.9,12.7,18.1,12.7L18.1,12.7z M18.1,12.7"/>
	<path class="st0" d="M34.1,20.2H15.9c-0.9,0-1.6,0.7-1.6,1.6v11.8c0,0.9,0.7,1.6,1.6,1.6h18.2c0.9,0,1.6-0.7,1.6-1.6V21.8
		C35.7,20.9,35,20.2,34.1,20.2L34.1,20.2z M34.7,33.6c0,0.3-0.3,0.6-0.6,0.6H15.9c-0.3,0-0.6-0.3-0.6-0.6V21.8
		c0-0.3,0.3-0.6,0.6-0.6h18.2c0.3,0,0.6,0.3,0.6,0.6V33.6z M34.7,33.6"/>
	<path class="st0" d="M29.3,22.4h-8.6c-0.3,0-0.5,0.2-0.5,0.5v0.5c0,0.9,0.7,1.6,1.6,1.6h6.4c0.9,0,1.6-0.7,1.6-1.6v-0.5
		C29.8,22.6,29.6,22.4,29.3,22.4L29.3,22.4z M28.8,23.4c0,0.3-0.3,0.6-0.6,0.6h-6.4c-0.3,0-0.6-0.3-0.6-0.6v0L28.8,23.4L28.8,23.4z
		 M28.8,23.4"/>
	<path class="st0" d="M36.8,9.5H13.2c-1.2,0-2.1,0.9-2.1,2.1v24.6c0,1.2,0.9,2.1,2.1,2.1h0v1.1c0,0.6,0.5,1,1,1h1.1c0.6,0,1-0.5,1-1
		v-1.1h17.2v1.1c0,0.6,0.5,1,1,1h1.1c0.6,0,1-0.5,1-1v-1.1h0c1.2,0,2.1-0.9,2.1-2.1V11.6C38.9,10.5,37.9,9.5,36.8,9.5L36.8,9.5z
		 M13.2,10.5h23.5c0.6,0,1.1,0.5,1.1,1.1V17H12.1v-5.4C12.1,11,12.6,10.5,13.2,10.5L13.2,10.5z M15.4,39.4
		C15.4,39.5,15.4,39.5,15.4,39.4l-1.1,0c0,0,0,0,0,0v-1.1h1.1V39.4z M35.7,39.4C35.7,39.5,35.7,39.5,35.7,39.4l-1.1,0c0,0,0,0,0,0
		v-1.1h1.1V39.4z M36.8,37.3H13.2c-0.6,0-1.1-0.5-1.1-1.1V18h25.7v18.2C37.9,36.8,37.4,37.3,36.8,37.3L36.8,37.3z M36.8,37.3"/>
</g>
</svg>
