<?xml version="1.0" encoding="utf-8"?>
<!-- Generator: Adobe Illustrator 19.2.0, SVG Export Plug-In . SVG Version: 6.00 Build 0)  -->
<svg version="1.1" id="Layer_1" xmlns="http://www.w3.org/2000/svg" xmlns:xlink="http://www.w3.org/1999/xlink" x="0px" y="0px"
	 viewBox="0 0 50 50" style="enable-background:new 0 0 50 50;" xml:space="preserve">
<style type="text/css">
	.st0{fill:#163847;}
</style>
<path class="st0" d="M42.8,32.3C42.8,32.3,42.8,32.3,42.8,32.3C42.8,32.3,42.8,32.3,42.8,32.3c0-0.6-0.3-1.1-0.6-1.5
	c-0.8-0.7-2-0.6-3.3-0.5c-0.4,0-3.7,0.1-4.6,0c-4-0.4-7.1-2.9-9.4-7.3c-1.7-3.3-2.2-6.6-2.2-6.6c0-0.1-0.1-0.2-0.2-0.3
	C22.4,16,22.3,16,22.2,16c0,0-0.3,0.1-2,0.4c-0.6,0.1-1.1,0.4-1.4,0.9c-0.1,0.1-0.1,0.2-0.2,0.3h-5.4c-0.1-0.2-0.2-0.4-0.4-0.5
	c-0.5-0.5-1.1-0.5-1.2-0.5h-1.2V16c0.6-0.2,1.1-0.8,1.1-1.5v-1.1c0-0.9-0.7-1.5-1.5-1.5c-0.2,0-0.4,0.2-0.4,0.4v4.3H9.5
	c-0.1,0-0.2,0-0.3,0.1C9.1,16.8,9,16.9,9,17c0,0,0,3.6,0,6.1c0,1.5-0.2,1.9-0.5,3c-0.2,0.7-0.5,1.6-0.9,3.2c-0.6,2.5-0.4,3.8,0,4.5
	c-0.1,0-0.1,0.1-0.2,0.1c-0.1,0.1-0.1,0.2-0.1,0.3v3.1c0,0.2,0.2,0.4,0.4,0.4h9.6c0.2,0,0.4-0.2,0.4-0.4v-0.8c0.8,0,2.5,0.2,4.6,0.7
	c2.4,0.6,4.5,0.9,6.8,0.9c1.2,0,2.5-0.1,3.9-0.3c3.7-0.6,7.7-2.3,9-2.9C42.8,34.5,42.8,32.8,42.8,32.3L42.8,32.3z M10.5,12.9
	c0.2,0.1,0.3,0.3,0.3,0.6v1.1c0,0.2-0.1,0.4-0.3,0.6V12.9z M18.6,18.5c0,0.1,2,11.6,2,11.6c0,0.5-0.4,0.8-0.9,0.8h-5.3
	c-0.5,0-0.9-0.4-0.9-0.9V19c0-0.2,0-0.4,0-0.5H18.6z M8.4,29.5C8.8,28,9.1,27,9.3,26.4c0.4-1.1,0.5-1.6,0.6-3.3c0-2,0-4.7,0-5.7h1.8
	c0,0,0.3,0,0.6,0.3c0.3,0.3,0.4,0.7,0.4,1.3v11c0,1,0.8,1.7,1.7,1.7h5.3c1,0,1.7-0.8,1.7-1.7c0-0.3-2-11.5-2-11.5
	c0,0-0.1-0.5,0.1-0.8c0.1-0.2,0.4-0.4,0.8-0.5c0.8-0.2,1.3-0.3,1.6-0.3c0.2,1,0.8,3.7,2.2,6.4c1,2,2.3,3.7,3.7,5
	c1.8,1.6,3.9,2.6,6.3,2.8c0.6,0.1,4,0,4.7,0c1.1-0.1,2.2-0.2,2.7,0.3c0.2,0.1,0.3,0.3,0.3,0.6c-1.3,0.6-7.1,3.3-12.1,3.4
	c-2.5,0-4.3-0.3-6.1-0.7c-2-0.4-4.2-0.9-7.5-0.9c-2.4,0-5.9,0-7.6,0C8.4,33.6,7.6,32.6,8.4,29.5L8.4,29.5z M41.7,34.1
	c-1.3,0.6-5.3,2.2-8.8,2.8c-1.3,0.2-2.5,0.3-3.7,0.3c-2.2,0-4.2-0.4-6.6-0.9c-2.9-0.7-5.1-0.7-5.2-0.7h0c-0.1,0-0.2,0-0.3,0.1
	c-0.1,0.1-0.1,0.2-0.1,0.3v0.8H8.2v-2.3c1.3,0,5.4,0,8.1,0c3.2,0,5.3,0.4,7.3,0.9c1.9,0.4,3.7,0.8,6.3,0.7
	c4.8-0.1,10.3-2.4,12.1-3.3C41.9,33.6,41.8,34,41.7,34.1L41.7,34.1z M41.7,34.1"/>
</svg>
