<?xml version="1.0" encoding="utf-8"?>
<!-- Generator: Adobe Illustrator 19.2.0, SVG Export Plug-In . SVG Version: 6.00 Build 0)  -->
<svg version="1.1" id="Layer_1" xmlns="http://www.w3.org/2000/svg" xmlns:xlink="http://www.w3.org/1999/xlink" x="0px" y="0px"
	 viewBox="0 0 50 50" style="enable-background:new 0 0 50 50;" xml:space="preserve">
<style type="text/css">
	.st0{fill:#163847;}
</style>
<g>
	<path class="st0" d="M28.8,9.9c-0.4-0.5-0.8-1-1.2-1.6c0.3-0.2,0.6-0.5,0.6-0.9V6.2c0-0.8-0.6-1.4-1.4-1.4h-3.6
		c-0.8,0-1.4,0.6-1.4,1.4v1.3c0,0.4,0.2,0.7,0.6,0.9c-0.4,0.6-0.8,1.1-1.2,1.6c-1.9,2.2-2.9,5-2.9,7.9v20.8c0,1.9,0.6,3.7,1.6,5.2
		c0.6,0.8,1.5,1.4,2.6,1.4h0.1c0.7,0,1.3-0.4,1.5-1.1c0.3,0.2,0.6,0.4,1,0.4h0.2c0.3,0,0.7-0.1,0.9-0.3c0.2,0.6,0.8,1,1.4,1h0.1
		c1,0,2-0.5,2.6-1.4c1.1-1.6,1.6-3.4,1.6-5.2V17.9C31.8,15,30.7,12.1,28.8,9.9L28.8,9.9z M19.2,15.5c0.4,0,0.9,0.2,1.2,0.5
		c0.5,0.4,1.1,0.7,1.7,0.7c0.6,0,1.2-0.2,1.7-0.7c0.3-0.3,0.7-0.5,1.2-0.5c0.4,0,0.9,0.2,1.2,0.5c0.5,0.4,1.1,0.7,1.7,0.7
		c0.6,0,1.2-0.2,1.7-0.7c0.3-0.3,0.7-0.5,1.2-0.5c0.1,0.5,0.2,1.1,0.2,1.6c-0.1,0-0.1,0-0.2,0c-0.6,0-1.2,0.2-1.7,0.7
		c-0.3,0.3-0.7,0.5-1.2,0.5s-0.9-0.2-1.2-0.5c-0.5-0.4-1.1-0.7-1.7-0.7c-0.6,0-1.2,0.2-1.7,0.7c-0.3,0.3-0.7,0.5-1.2,0.5
		c-0.4,0-0.9-0.2-1.2-0.5c-0.5-0.4-1.1-0.7-1.7-0.7c-0.1,0-0.1,0-0.2,0C19.1,16.6,19.1,16.1,19.2,15.5L19.2,15.5z M19,34.5
		c0.1,0,0.2,0,0.2,0c0.4,0,0.9,0.2,1.2,0.5c0.5,0.4,1.1,0.7,1.7,0.7c0.6,0,1.2-0.2,1.7-0.7c0.3-0.3,0.7-0.5,1.2-0.5
		c0.4,0,0.9,0.2,1.2,0.5c0.5,0.4,1.1,0.7,1.7,0.7c0.6,0,1.2-0.2,1.7-0.7c0.3-0.3,0.7-0.5,1.2-0.5c0.1,0,0.2,0,0.2,0v1.6
		c-0.1,0-0.2,0-0.2,0c-0.6,0-1.2,0.2-1.7,0.7c-0.3,0.3-0.7,0.5-1.2,0.5s-0.9-0.2-1.2-0.5c-0.5-0.4-1.1-0.7-1.7-0.7
		c-0.6,0-1.2,0.2-1.7,0.7c-0.3,0.3-0.7,0.5-1.2,0.5c-0.4,0-0.9-0.2-1.2-0.5c-0.5-0.4-1.1-0.7-1.7-0.7c-0.1,0-0.2,0-0.2,0V34.5z
		 M30.8,33.7c-0.6,0-1.2,0.2-1.7,0.7c-0.3,0.3-0.7,0.5-1.2,0.5s-0.9-0.2-1.2-0.5c-0.5-0.4-1.1-0.7-1.7-0.7c-0.6,0-1.2,0.2-1.7,0.7
		c-0.3,0.3-0.7,0.5-1.2,0.5c-0.4,0-0.9-0.2-1.2-0.5c-0.5-0.4-1.1-0.7-1.7-0.7c-0.1,0-0.2,0-0.2,0v-1.6c0.1,0,0.2,0,0.2,0
		c0.4,0,0.9,0.2,1.2,0.5c0.5,0.4,1.1,0.7,1.7,0.7c0.6,0,1.2-0.2,1.7-0.7c0.3-0.3,0.7-0.5,1.2-0.5c0.4,0,0.9,0.2,1.2,0.5
		c0.5,0.4,1.1,0.7,1.7,0.7c0.6,0,1.2-0.2,1.7-0.7c0.3-0.3,0.7-0.5,1.2-0.5c0.1,0,0.2,0,0.2,0v1.6C30.9,33.7,30.8,33.7,30.8,33.7
		L30.8,33.7z M30.8,31.3c-0.6,0-1.2,0.2-1.7,0.7c-0.3,0.3-0.7,0.5-1.2,0.5S27,32.3,26.7,32c-0.5-0.4-1.1-0.7-1.7-0.7
		c-0.6,0-1.2,0.2-1.7,0.7c-0.3,0.3-0.7,0.5-1.2,0.5c-0.4,0-0.9-0.2-1.2-0.5c-0.5-0.4-1.1-0.7-1.7-0.7c-0.1,0-0.2,0-0.2,0v-1.6
		c0.1,0,0.2,0,0.2,0c0.4,0,0.9,0.2,1.2,0.5c0.5,0.4,1.1,0.7,1.7,0.7c0.6,0,1.2-0.2,1.7-0.7c0.3-0.3,0.7-0.5,1.2-0.5
		c0.4,0,0.9,0.2,1.2,0.5c0.5,0.4,1.1,0.7,1.7,0.7c0.6,0,1.2-0.2,1.7-0.7c0.3-0.3,0.7-0.5,1.2-0.5c0.1,0,0.2,0,0.2,0v1.6
		C30.9,31.3,30.8,31.3,30.8,31.3L30.8,31.3z M30.8,28.9c-0.6,0-1.2,0.2-1.7,0.7c-0.3,0.3-0.7,0.5-1.2,0.5s-0.9-0.2-1.2-0.5
		c-0.5-0.4-1.1-0.7-1.7-0.7c-0.6,0-1.2,0.2-1.7,0.7c-0.3,0.3-0.7,0.5-1.2,0.5c-0.4,0-0.9-0.2-1.2-0.5c-0.5-0.4-1.1-0.7-1.7-0.7
		c-0.1,0-0.2,0-0.2,0v-1.6c0.1,0,0.2,0,0.2,0c0.4,0,0.9,0.2,1.2,0.5c0.5,0.4,1.1,0.7,1.7,0.7c0.6,0,1.2-0.2,1.7-0.7
		c0.3-0.3,0.7-0.5,1.2-0.5c0.4,0,0.9,0.2,1.2,0.5c0.5,0.4,1.1,0.7,1.7,0.7c0.6,0,1.2-0.2,1.7-0.7c0.3-0.3,0.7-0.5,1.2-0.5
		c0.1,0,0.2,0,0.2,0V29C30.9,28.9,30.8,28.9,30.8,28.9L30.8,28.9z M30.8,26.5c-0.6,0-1.2,0.2-1.7,0.7c-0.3,0.3-0.7,0.5-1.2,0.5
		s-0.9-0.2-1.2-0.5c-0.5-0.4-1.1-0.7-1.7-0.7c-0.6,0-1.2,0.2-1.7,0.7c-0.3,0.3-0.7,0.5-1.2,0.5c-0.4,0-0.9-0.2-1.2-0.5
		c-0.5-0.4-1.1-0.7-1.7-0.7c-0.1,0-0.2,0-0.2,0V18c0.1,0,0.2,0,0.2,0c0.4,0,0.9,0.2,1.2,0.5c0.5,0.4,1.1,0.7,1.7,0.7
		c0.6,0,1.2-0.2,1.7-0.7c0.3-0.3,0.7-0.5,1.2-0.5s0.9,0.2,1.2,0.5c0.5,0.4,1.1,0.7,1.7,0.7c0.6,0,1.2-0.2,1.7-0.7
		c0.3-0.3,0.7-0.5,1.2-0.5c0.1,0,0.2,0,0.2,0v8.6C30.9,26.5,30.8,26.5,30.8,26.5L30.8,26.5z M22.6,6.2c0-0.3,0.3-0.6,0.6-0.6h3.6
		c0.3,0,0.6,0.3,0.6,0.6v1.3c0,0.1-0.1,0.2-0.2,0.2h-4.4c-0.1,0-0.2-0.1-0.2-0.2V6.2z M21.7,10.4c0.5-0.6,1-1.3,1.5-2h3.4
		c0.5,0.8,1,1.4,1.5,2c1.1,1.3,1.9,2.8,2.3,4.4c-0.6,0-1.1,0.3-1.5,0.7c-0.3,0.3-0.7,0.5-1.2,0.5c-0.4,0-0.9-0.2-1.2-0.5
		c-0.5-0.4-1.1-0.7-1.7-0.7c-0.6,0-1.2,0.2-1.7,0.7c-0.3,0.3-0.7,0.5-1.2,0.5s-0.9-0.2-1.2-0.5c-0.4-0.4-0.9-0.6-1.5-0.7
		C19.9,13.2,20.7,11.7,21.7,10.4L21.7,10.4z M25.2,43.7h-0.2c-0.3,0-0.6-0.2-0.8-0.5c0.1-0.2,0.4-0.3,0.6-0.3h0.5
		c0.3,0,0.5,0.2,0.7,0.4C25.8,43.6,25.5,43.7,25.2,43.7L25.2,43.7z M29.5,43.4c-0.4,0.6-1.2,1-1.9,1h-0.1c-0.4,0-0.8-0.3-0.8-0.8
		c0-0.8-0.7-1.5-1.5-1.5h-0.5c-0.8,0-1.5,0.7-1.5,1.5c0,0.4-0.3,0.8-0.8,0.8h-0.1c-0.8,0-1.5-0.4-1.9-1c-1-1.4-1.5-3.1-1.5-4.8v-1.7
		c0.1,0,0.2,0,0.2,0c0.4,0,0.9,0.2,1.2,0.5c0.5,0.4,1.1,0.7,1.7,0.7c0.6,0,1.2-0.2,1.7-0.7c0.3-0.3,0.7-0.5,1.2-0.5s0.9,0.2,1.2,0.5
		c0.5,0.4,1.1,0.7,1.7,0.7c0.6,0,1.2-0.2,1.7-0.7c0.3-0.3,0.7-0.5,1.2-0.5c0.1,0,0.2,0,0.2,0v1.7C31,40.3,30.5,42,29.5,43.4
		L29.5,43.4z M29.5,43.4"/>
	<path class="st0" d="M28.9,14.3c0.1,0.1,0.2,0.2,0.4,0.2c0,0,0.1,0,0.1,0c0.2-0.1,0.3-0.3,0.2-0.5c-0.4-1.1-1-2.1-1.7-3
		c-0.1-0.2-0.4-0.2-0.5-0.1c-0.2,0.1-0.2,0.4-0.1,0.5C28,12.3,28.5,13.3,28.9,14.3L28.9,14.3z M28.9,14.3"/>
	<path class="st0" d="M30.1,19.5c-0.2,0-0.4,0.2-0.4,0.4v5.3c0,0.2,0.2,0.4,0.4,0.4c0.2,0,0.4-0.2,0.4-0.4v-5.3
		C30.5,19.7,30.3,19.5,30.1,19.5L30.1,19.5z M30.1,19.5"/>
	<path class="st0" d="M30.2,39.8c-0.2,0-0.4,0.1-0.4,0.3c-0.2,0.9-0.6,1.8-1.1,2.5c-0.1,0.2-0.1,0.4,0.1,0.5
		c0.1,0.1,0.2,0.1,0.2,0.1c0.1,0,0.2,0,0.3-0.1c0.6-0.8,1.1-1.8,1.3-2.8C30.5,40.1,30.4,39.9,30.2,39.8L30.2,39.8z M30.2,39.8"/>
</g>
</svg>
