<?xml version="1.0" encoding="utf-8"?>
<!-- Generator: Adobe Illustrator 19.2.0, SVG Export Plug-In . SVG Version: 6.00 Build 0)  -->
<svg version="1.1" id="Layer_1" xmlns="http://www.w3.org/2000/svg" xmlns:xlink="http://www.w3.org/1999/xlink" x="0px" y="0px"
	 viewBox="0 0 50 50" style="enable-background:new 0 0 50 50;" xml:space="preserve">
<style type="text/css">
	.st0{fill:#163847;}
</style>
<g>
	<path class="st0" d="M39.1,37.9l-9.9-19.7c-0.3-0.6-0.5-1.3-0.5-2V8.5c0-0.4,0.3-0.7,0.7-0.7c0,0,0,0,0,0c0,0,0,0,0,0
		c0.3,0,0.6-0.3,0.6-0.6c0-0.3-0.3-0.6-0.6-0.6h-8.9c-0.3,0-0.6,0.3-0.6,0.6c0,0.3,0.3,0.6,0.6,0.6c0.4,0,0.7,0.3,0.7,0.7v7.7
		c0,0.7-0.2,1.4-0.5,2l-9.8,19.7c-0.6,1.2-0.5,2.5,0.2,3.7c0.7,1.1,1.9,1.8,3.2,1.8h21.4c1.3,0,2.5-0.7,3.2-1.8
		C39.6,40.4,39.7,39.1,39.1,37.9L39.1,37.9z M37.9,40.9c-0.5,0.8-1.3,1.2-2.2,1.2H14.3c-0.9,0-1.7-0.5-2.2-1.2
		c-0.5-0.8-0.5-1.7-0.1-2.5l9.9-19.7c0.4-0.8,0.6-1.7,0.6-2.5V8.5c0-0.2,0-0.5-0.1-0.7h5.4c-0.1,0.2-0.1,0.4-0.1,0.7v7.7
		c0,0.9,0.2,1.8,0.6,2.5L38,38.4C38.4,39.2,38.4,40.2,37.9,40.9L37.9,40.9z M37.9,40.9"/>
	<path class="st0" d="M32.8,31.1c-0.1-0.2-0.3-0.3-0.5-0.3H17.7c-0.2,0-0.4,0.1-0.5,0.3l-4,8c-0.2,0.4-0.2,0.8,0.1,1.2
		c0.2,0.4,0.6,0.6,1,0.6h21.4c0.4,0,0.8-0.2,1-0.6c0.2-0.4,0.2-0.8,0.1-1.2L32.8,31.1z M35.8,39.6C35.7,39.6,35.7,39.6,35.8,39.6
		C35.7,39.6,35.7,39.6,35.8,39.6l-21.5,0c0,0,0,0,0,0c0,0,0,0,0,0c0,0,0,0,0,0c0,0,0,0,0,0c0,0,0,0,0,0l3.8-7.6h13.9L35.8,39.6
		C35.8,39.6,35.8,39.6,35.8,39.6C35.8,39.6,35.8,39.6,35.8,39.6L35.8,39.6z M35.8,39.6"/>
	<path class="st0" d="M21.2,34.5c-0.2,0-0.3,0.1-0.4,0.2c-0.1,0.1-0.2,0.3-0.2,0.4c0,0.2,0.1,0.3,0.2,0.4c0.1,0.1,0.3,0.2,0.4,0.2
		c0.2,0,0.3-0.1,0.4-0.2c0.1-0.1,0.2-0.3,0.2-0.4c0-0.2-0.1-0.3-0.2-0.4C21.5,34.6,21.4,34.5,21.2,34.5L21.2,34.5z M21.2,34.5"/>
	<path class="st0" d="M25,36.5c-0.2,0-0.3,0.1-0.4,0.2c-0.1,0.1-0.2,0.3-0.2,0.4c0,0.2,0.1,0.3,0.2,0.4c0.1,0.1,0.3,0.2,0.4,0.2
		c0.2,0,0.3-0.1,0.4-0.2c0.1-0.1,0.2-0.3,0.2-0.4c0-0.2-0.1-0.3-0.2-0.4C25.3,36.5,25.2,36.5,25,36.5L25,36.5z M25,36.5"/>
	<path class="st0" d="M25.8,27.7c-0.1,0.1-0.2,0.3-0.2,0.4c0,0.2,0.1,0.3,0.2,0.4c0.1,0.1,0.3,0.2,0.4,0.2c0.2,0,0.3-0.1,0.4-0.2
		c0.1-0.1,0.2-0.3,0.2-0.4c0-0.2-0.1-0.3-0.2-0.4c-0.1-0.1-0.3-0.2-0.4-0.2C26.1,27.6,26,27.6,25.8,27.7L25.8,27.7z M25.8,27.7"/>
	<path class="st0" d="M23.7,23.7c0.2,0,0.3-0.1,0.4-0.2c0.1-0.1,0.2-0.3,0.2-0.4c0-0.2-0.1-0.3-0.2-0.4c-0.1-0.1-0.3-0.2-0.4-0.2
		c-0.2,0-0.3,0.1-0.4,0.2c-0.1,0.1-0.2,0.3-0.2,0.4s0.1,0.3,0.2,0.4C23.4,23.6,23.6,23.7,23.7,23.7L23.7,23.7z M23.7,23.7"/>
	<path class="st0" d="M28.8,33.9c-0.2,0-0.3,0.1-0.4,0.2c-0.1,0.1-0.2,0.3-0.2,0.4c0,0.2,0.1,0.3,0.2,0.4c0.1,0.1,0.3,0.2,0.4,0.2
		c0.2,0,0.3-0.1,0.4-0.2c0.1-0.1,0.2-0.3,0.2-0.4c0-0.2-0.1-0.3-0.2-0.4C29.1,34,29,33.9,28.8,33.9L28.8,33.9z M28.8,33.9"/>
	<path class="st0" d="M25.9,19.9l4.3,8.5c0.1,0.2,0.3,0.3,0.5,0.3c0.1,0,0.2,0,0.3-0.1c0.3-0.1,0.4-0.5,0.3-0.8L27,19.3
		c-0.1-0.3-0.5-0.4-0.8-0.3C25.9,19.2,25.8,19.6,25.9,19.9L25.9,19.9z M25.9,19.9"/>
	<path class="st0" d="M25.7,18C25.8,18,25.8,18,25.7,18c0.4-0.1,0.6-0.4,0.6-0.7c-0.1-0.4-0.1-0.7-0.1-1.1c0-0.3-0.3-0.6-0.6-0.6
		c-0.3,0-0.6,0.3-0.6,0.6c0,0.4,0,0.9,0.1,1.3C25.2,17.8,25.4,18,25.7,18L25.7,18z M25.7,18"/>
</g>
</svg>
