<?xml version="1.0" encoding="utf-8"?>
<!-- Generator: Adobe Illustrator 19.2.0, SVG Export Plug-In . SVG Version: 6.00 Build 0)  -->
<svg version="1.1" id="Layer_1" xmlns="http://www.w3.org/2000/svg" xmlns:xlink="http://www.w3.org/1999/xlink" x="0px" y="0px"
	 viewBox="0 0 50 50" style="enable-background:new 0 0 50 50;" xml:space="preserve">
<style type="text/css">
	.st0{fill:#163847;}
</style>
<g>
	<path class="st0" d="M43.4,6H6.6C6.3,6,6,6.3,6,6.6v29.1c0,0.4,0.3,0.6,0.6,0.6h2.5v7c0,0.4,0.3,0.6,0.6,0.6h30.4
		c0.4,0,0.6-0.3,0.6-0.6v-7h2.5c0.4,0,0.6-0.3,0.6-0.6V6.6C44,6.3,43.7,6,43.4,6L43.4,6z M42.7,7.3v3.8H7.3V7.3H42.7z M39.6,21.2
		H10.4v-3.8h29.1V21.2z M10.4,42.7V22.5h29.1v20.3H10.4z M40.8,35.1V16.8c0-0.4-0.3-0.6-0.6-0.6H9.8c-0.4,0-0.6,0.3-0.6,0.6v18.4
		H7.3V12.3h35.5v22.8H40.8z M40.8,35.1"/>
	<rect x="8.5" y="8.5" class="st0" width="2.5" height="1.3"/>
	<rect x="12.3" y="8.5" class="st0" width="2.5" height="1.3"/>
	<rect x="11.7" y="18.7" class="st0" width="2.5" height="1.3"/>
	<rect x="15.5" y="18.7" class="st0" width="2.5" height="1.3"/>
	<rect x="40.2" y="8.5" class="st0" width="1.3" height="1.3"/>
	<rect x="37.7" y="8.5" class="st0" width="1.3" height="1.3"/>
	<rect x="37" y="18.7" class="st0" width="1.3" height="1.3"/>
	<rect x="34.5" y="18.7" class="st0" width="1.3" height="1.3"/>
	<path class="st0" d="M13,35.8h10.1c0.4,0,0.6-0.3,0.6-0.6V25c0-0.4-0.3-0.6-0.6-0.6H13c-0.4,0-0.6,0.3-0.6,0.6v10.1
		C12.3,35.5,12.6,35.8,13,35.8L13,35.8z M13.6,30.7h3.8v3.8h-3.8V30.7z M18.7,34.5v-3.8h3.8v3.8H18.7z M22.5,29.4h-3.8v-3.8h3.8
		V29.4z M17.4,25.6v3.8h-3.8v-3.8H17.4z M17.4,25.6"/>
	<rect x="25.6" y="24.4" class="st0" width="2.5" height="1.3"/>
	<rect x="25.6" y="26.9" class="st0" width="1.3" height="1.3"/>
	<rect x="28.2" y="26.9" class="st0" width="1.3" height="1.3"/>
	<rect x="30.7" y="26.9" class="st0" width="1.3" height="1.3"/>
	<rect x="33.2" y="26.9" class="st0" width="1.3" height="1.3"/>
	<rect x="35.8" y="26.9" class="st0" width="1.3" height="1.3"/>
	<rect x="30.1" y="24.4" class="st0" width="2.5" height="1.3"/>
	<rect x="34.5" y="24.4" class="st0" width="2.5" height="1.3"/>
	<rect x="25.6" y="29.4" class="st0" width="11.4" height="1.3"/>
	<rect x="25.6" y="32" class="st0" width="11.4" height="1.3"/>
	<rect x="25.6" y="34.5" class="st0" width="11.4" height="1.3"/>
	<rect x="12.3" y="38.3" class="st0" width="1.3" height="1.3"/>
	<rect x="14.9" y="38.3" class="st0" width="1.3" height="1.3"/>
	<rect x="17.4" y="38.3" class="st0" width="1.3" height="1.3"/>
	<rect x="19.9" y="38.3" class="st0" width="17.1" height="1.3"/>
</g>
</svg>
